<?xml version="1.0" encoding="UTF-8" standalone="no"?>
<!-- Created with Inkscape (http://www.inkscape.org/) -->

<svg
   xmlns:dc="http://purl.org/dc/elements/1.1/"
   xmlns:cc="http://creativecommons.org/ns#"
   xmlns:rdf="http://www.w3.org/1999/02/22-rdf-syntax-ns#"
   xmlns:svg="http://www.w3.org/2000/svg"
   xmlns="http://www.w3.org/2000/svg"
   xmlns:sodipodi="http://sodipodi.sourceforge.net/DTD/sodipodi-0.dtd"
   xmlns:inkscape="http://www.inkscape.org/namespaces/inkscape"
   width="60.132954mm"
   height="60.132954mm"
   viewBox="0 0 60.132954 60.132954"
   version="1.1"
   id="svg8"
   inkscape:version="0.92.5 (2060ec1f9f, 2020-04-08)"
   sodipodi:docname="favicon.svg">
  <defs
     id="defs2">
    <clipPath
       id="clipPath26"
       clipPathUnits="userSpaceOnUse">
      <path
         id="path24"
         d="M 0,595.28 H 841.89 V 0 H 0 Z"
         inkscape:connector-curvature="0" />
    </clipPath>
    <clipPath
       id="clipPath96"
       clipPathUnits="userSpaceOnUse">
      <path
         id="path94"
         d="M 0,595.28 H 841.89 V 0 H 0 Z"
         inkscape:connector-curvature="0" />
    </clipPath>
  </defs>
  <sodipodi:namedview
     id="base"
     pagecolor="#ffffff"
     bordercolor="#666666"
     borderopacity="1.0"
     inkscape:pageopacity="0.0"
     inkscape:pageshadow="2"
     inkscape:zoom="0.98994949"
     inkscape:cx="-108.80655"
     inkscape:cy="-4.5597022"
     inkscape:document-units="mm"
     inkscape:current-layer="layer1"
     showgrid="false"
     fit-margin-top="0"
     fit-margin-left="0"
     fit-margin-right="0"
     fit-margin-bottom="0"
     showborder="false"
     inkscape:window-width="1920"
     inkscape:window-height="1055"
     inkscape:window-x="1920"
     inkscape:window-y="0"
     inkscape:window-maximized="1" />
  <metadata
     id="metadata5">
    <rdf:RDF>
      <cc:Work
         rdf:about="">
        <dc:format>image/svg+xml</dc:format>
        <dc:type
           rdf:resource="http://purl.org/dc/dcmitype/StillImage" />
        <dc:title></dc:title>
      </cc:Work>
    </rdf:RDF>
  </metadata>
  <g
     inkscape:label="Calque 1"
     inkscape:groupmode="layer"
     id="layer1"
     transform="translate(151.86532,-212.05953)">
    <g
       id="g119">
      <circle
         style="fill:#ffffff;stroke:#000000;stroke-width:0.26458332"
         r="29.934185"
         cy="242.12601"
         cx="-121.79884"
         id="path85" />
      <g
         transform="matrix(0.8316392,0,0,0.8316392,-58.489779,199.20901)"
         id="layer1-5">
        <g
           transform="matrix(0.35277777,0,0,-0.35277777,-303.25723,188.75755)"
           id="g90">
          <g
             clip-path="url(#clipPath96)"
             id="g92">
            <g
               transform="translate(725.7822,421.6804)"
               id="g98">
              <path
                 inkscape:connector-curvature="0"
                 id="path100"
                 style="fill:#de481e;fill-opacity:1;fill-rule:nonzero;stroke:none"
                 d="m 0,0 c 0,-1.07 0.867,-1.937 1.937,-1.937 1.07,0 1.937,0.867 1.937,1.937 0,1.07 -0.867,1.937 -1.937,1.937 C 0.867,1.937 0,1.07 0,0" />
            </g>
            <g
               transform="translate(711.8359,411.9504)"
               id="g102">
              <path
                 inkscape:connector-curvature="0"
                 id="path104"
                 style="fill:#de481e;fill-opacity:1;fill-rule:nonzero;stroke:none"
                 d="m 0,0 c 0,-1.886 1.529,-3.416 3.415,-3.416 1.887,0 3.416,1.53 3.416,3.416 0,1.886 -1.529,3.416 -3.416,3.416 C 1.529,3.416 0,1.886 0,0" />
            </g>
            <g
               transform="translate(700.4922,399.7971)"
               id="g106">
              <path
                 inkscape:connector-curvature="0"
                 id="path108"
                 style="fill:#de481e;fill-opacity:1;fill-rule:nonzero;stroke:none"
                 d="M 0,0 C 0,-2.522 2.045,-4.567 4.567,-4.567 7.09,-4.567 9.135,-2.522 9.135,0 9.135,2.522 7.09,4.567 4.567,4.567 2.045,4.567 0,2.522 0,0" />
            </g>
            <g
               transform="translate(685.5723,368.6594)"
               id="g110">
              <path
                 inkscape:connector-curvature="0"
                 id="path112"
                 style="fill:#de481e;fill-opacity:1;fill-rule:nonzero;stroke:none"
                 d="M 0,0 C 3.383,0 6.125,2.742 6.125,6.125 6.125,9.508 3.383,12.25 0,12.25 -3.383,12.25 -6.125,9.508 -6.125,6.125 -6.125,2.742 -3.383,0 0,0" />
            </g>
            <g
               transform="translate(673.4277,371.1965)"
               id="g114">
              <path
                 inkscape:connector-curvature="0"
                 id="path116"
                 style="fill:#de481e;fill-opacity:1;fill-rule:nonzero;stroke:none"
                 d="m 0,0 c -3.639,0 -6.588,-2.95 -6.588,-6.588 0,-3.639 2.949,-6.589 6.588,-6.589 3.639,0 6.589,2.95 6.589,6.589 C 6.589,-2.95 3.639,0 0,0" />
            </g>
            <g
               transform="translate(659.2529,364.4353)"
               id="g118">
              <path
                 inkscape:connector-curvature="0"
                 id="path120"
                 style="fill:#de481e;fill-opacity:1;fill-rule:nonzero;stroke:none"
                 d="m 0,0 c -3.789,0 -6.859,-3.071 -6.859,-6.859 0,-3.789 3.07,-6.86 6.859,-6.86 3.788,0 6.859,3.071 6.859,6.86 C 6.859,-3.071 3.788,0 0,0" />
            </g>
            <g
               transform="translate(650.5732,355.2185)"
               id="g122">
              <path
                 inkscape:connector-curvature="0"
                 id="path124"
                 style="fill:#de481e;fill-opacity:1;fill-rule:nonzero;stroke:none"
                 d="m 0,0 c 0,3.833 -3.107,6.94 -6.94,6.94 -3.833,0 -6.94,-3.107 -6.94,-6.94 0,-3.833 3.107,-6.94 6.94,-6.94 C -3.107,-6.94 0,-3.833 0,0" />
            </g>
            <g
               transform="translate(634.9609,358.2107)"
               id="g126">
              <path
                 inkscape:connector-curvature="0"
                 id="path128"
                 style="fill:#de481e;fill-opacity:1;fill-rule:nonzero;stroke:none"
                 d="m 0,0 c 0,3.778 -3.063,6.84 -6.84,6.84 -3.778,0 -6.841,-3.062 -6.841,-6.84 0,-3.778 3.063,-6.84 6.841,-6.84 C -3.063,-6.84 0,-3.778 0,0" />
            </g>
            <g
               transform="translate(620.7354,365.7038)"
               id="g130">
              <path
                 inkscape:connector-curvature="0"
                 id="path132"
                 style="fill:#de481e;fill-opacity:1;fill-rule:nonzero;stroke:none"
                 d="m 0,0 c 0,3.62 -2.935,6.554 -6.554,6.554 -3.619,0 -6.553,-2.934 -6.553,-6.554 0,-3.62 2.934,-6.554 6.553,-6.554 C -2.935,-6.554 0,-3.62 0,0" />
            </g>
            <g
               transform="translate(602.2842,382.2473)"
               id="g134">
              <path
                 inkscape:connector-curvature="0"
                 id="path136"
                 style="fill:#de481e;fill-opacity:1;fill-rule:nonzero;stroke:none"
                 d="m 0,0 c -3.354,0 -6.072,-2.719 -6.072,-6.073 0,-3.354 2.718,-6.073 6.072,-6.073 3.354,0 6.074,2.719 6.074,6.073 C 6.074,-2.719 3.354,0 0,0" />
            </g>
            <g
               transform="translate(587.4297,401.3362)"
               id="g138">
              <path
                 inkscape:connector-curvature="0"
                 id="path140"
                 style="fill:#de481e;fill-opacity:1;fill-rule:nonzero;stroke:none"
                 d="m 0,0 c 0,2.462 -1.996,4.458 -4.459,4.458 -2.462,0 -4.458,-1.996 -4.458,-4.458 0,-2.462 1.996,-4.458 4.458,-4.458 C -1.996,-4.458 0,-2.462 0,0" />
            </g>
            <g
               transform="translate(575.8408,413.3083)"
               id="g142">
              <path
                 inkscape:connector-curvature="0"
                 id="path144"
                 style="fill:#de481e;fill-opacity:1;fill-rule:nonzero;stroke:none"
                 d="m 0,0 c 0,1.804 -1.462,3.266 -3.266,3.266 -1.803,0 -3.265,-1.462 -3.265,-3.266 0,-1.803 1.462,-3.266 3.265,-3.266 C -1.462,-3.266 0,-1.803 0,0" />
            </g>
            <g
               transform="translate(561.5059,422.5666)"
               id="g146">
              <path
                 inkscape:connector-curvature="0"
                 id="path148"
                 style="fill:#de481e;fill-opacity:1;fill-rule:nonzero;stroke:none"
                 d="m 0,0 c 0,0.963 -0.781,1.744 -1.744,1.744 -0.963,0 -1.743,-0.781 -1.743,-1.744 0,-0.963 0.78,-1.743 1.743,-1.743 C -0.781,-1.743 0,-0.963 0,0" />
            </g>
            <g
               transform="translate(603.6006,397.5813)"
               id="g150">
              <path
                 inkscape:connector-curvature="0"
                 id="path152"
                 style="fill:#233769;fill-opacity:1;fill-rule:nonzero;stroke:none"
                 d="M 0,0 C 6.804,10.012 21.075,26.797 40.246,26.731 59.4,26.797 73.672,10.012 80.475,0 c 12.128,-17.849 23.027,-28.571 42.852,-30.554 1.364,-0.136 2.581,0.859 2.718,2.223 0.008,0.081 0.011,0.161 0.011,0.24 0,1.268 -0.952,2.349 -2.235,2.477 -17.985,1.8 -27.666,11.371 -39.239,28.405 C 71.878,21.485 56.127,31.751 40.246,31.696 24.348,31.751 8.597,21.485 -4.106,2.791 -15.68,-14.243 -25.36,-23.814 -43.347,-25.614 c -1.28,-0.127 -2.235,-1.206 -2.235,-2.467 0,-0.082 0.004,-0.166 0.013,-0.25 0.136,-1.364 1.353,-2.359 2.717,-2.223 C -23.026,-28.571 -12.127,-17.849 0,0" />
            </g>
          </g>
        </g>
      </g>
    </g>
  </g>
</svg>
