<?xml version="1.0" encoding="UTF-8" standalone="no"?>
<svg
   xmlns:dc="http://purl.org/dc/elements/1.1/"
   xmlns:cc="http://creativecommons.org/ns#"
   xmlns:rdf="http://www.w3.org/1999/02/22-rdf-syntax-ns#"
   xmlns:svg="http://www.w3.org/2000/svg"
   xmlns="http://www.w3.org/2000/svg"
   id="svg1330"
   version="1.1"
   viewBox="0 0 124.53652 150.79131"
   height="150.79131mm"
   width="124.53652mm">
  <defs
     id="defs1324">
    <clipPath
       clipPathUnits="userSpaceOnUse"
       id="clipPath760">
      <path
         d="M 205.8,153.96 H 588.719 V 581.4 H 205.8 Z"
         id="path758" />
    </clipPath>
  </defs>
  <metadata
     id="metadata1327">
    <rdf:RDF>
      <cc:Work
         rdf:about="">
        <dc:format>image/svg+xml</dc:format>
        <dc:type
           rdf:resource="http://purl.org/dc/dcmitype/StillImage" />
        <dc:title></dc:title>
      </cc:Work>
    </rdf:RDF>
  </metadata>
  <g
     transform="translate(-38.273406,-35.640055)"
     id="layer1">
    <g
       transform="matrix(0.35277777,0,0,-0.35277777,-34.328259,240.74505)"
       id="g754">
      <g
         clip-path="url(#clipPath760)"
         id="g756">
        <g
           transform="scale(0.0749978,-0.0750998)"
           id="g762">
          <g
             transform="translate(6057.0811,-6181.6987)"
             id="g764">
            <path
               id="path766"
               style="fill:#dd5620;fill-opacity:1;fill-rule:nonzero;stroke:none"
               d="m 0,0 v 0 c -14,-4 -22,-19 -18,-33 3,-14 18,-22 32,-18 14,3 22,18 19,32 C 29,-5 14,3 0,0 m 123,32 v 0 c 14,4 28,-5 32,-19 4,-14 -5,-28 -19,-32 -14,-4 -28,5 -32,19 -4,14 5,28 19,32 m 123,32 v 0 c 14,4 28,-5 32,-19 3,-14 -5,-28 -19,-32 -14,-3 -29,5 -32,19 -4,14 5,28 19,32 m 122,32 v 0 c 14,4 29,-4 32,-18 4,-14 -4,-29 -18,-32 -14,-4 -29,4 -33,18 -3,14 5,29 19,32 m 613,162 v 0 c 15,10 29,-1 33,-19 2,-14 -5,-28 -19,-32 -14,-4 -29,5 -32,19 -4,14 4,28 18,32 M -32,122 v 0 c 14,3 29,-5 32,-19 4,-14 -4,-28 -18,-32 -15,-4 -29,4 -33,18 -3,14 5,29 19,33 m 123,32 v 0 c 14,4 28,-5 32,-19 4,-14 -5,-28 -19,-32 -14,-4 -28,5 -32,19 -4,14 5,28 19,32 m 122,32 v 0 c 15,4 29,-4 33,-19 3,-14 -5,-28 -19,-32 -14,-3 -29,5 -32,19 -4,14 4,28 18,32 m 123,32 v 0 c 14,4 29,-4 32,-18 4,-14 -4,-29 -19,-32 -14,-4 -28,4 -32,18 -3,14 5,29 19,32 m 491,130 v 0 c 14,3 28,-5 32,-19 4,-14 -5,-28 -19,-32 -14,-4 -28,5 -32,19 -4,14 5,28 19,32 m 122,32 v 0 c 14,4 29,-5 33,-19 3,-14 -5,-28 -19,-32 -14,-4 -29,5 -32,19 -4,14 4,28 18,32 m 123,32 v 0 c 14,4 28,-4 32,-18 4,-14 -5,-29 -19,-33 -14,-3 -28,5 -32,19 -3,14 5,28 19,32 M -187,211 v 0 c 14,4 29,-4 33,-18 3,-14 -5,-29 -19,-32 -14,-4 -29,4 -32,18 -4,14 4,29 18,32 m 123,33 v 0 c 14,3 29,-5 32,-19 4,-14 -4,-28 -19,-32 -14,-4 -28,5 -32,19 -3,14 5,28 19,32 m 123,32 v 0 c 14,4 28,-5 32,-19 4,-14 -5,-28 -19,-32 -14,-4 -28,5 -32,19 -4,14 5,28 19,32 m 122,32 v 0 c 14,4 29,-4 33,-18 3,-14 -5,-29 -19,-33 -14,-3 -29,5 -32,19 -4,14 4,28 18,32 m 123,32 v 0 c 14,4 28,-4 32,-18 4,-14 -5,-29 -19,-32 -14,-4 -28,4 -32,18 -3,14 5,29 19,32 m 123,33 v 0 c 14,3 28,-5 32,-19 4,-14 -5,-28 -19,-32 -14,-4 -28,5 -32,19 -4,14 5,28 19,32 m 122,32 v 0 c 14,4 29,-5 32,-19 4,-14 -4,-28 -18,-32 -14,-3 -29,5 -33,19 -3,14 5,28 19,32 m 123,32 v 0 c 14,4 28,-4 32,-18 4,-14 -5,-29 -19,-32 -14,-4 -28,4 -32,18 -4,14 5,29 19,32 m 123,33 v 0 c 14,3 28,-5 32,-19 3,-14 -5,-28 -19,-32 -14,-4 -29,5 -32,19 -4,14 5,28 19,32 m 122,32 v 0 c 14,4 29,-5 32,-19 4,-14 -4,-28 -18,-32 -14,-4 -29,5 -33,19 -3,14 5,28 19,32 m 123,32 v 0 c 14,4 28,-4 32,-18 4,-14 -5,-29 -19,-33 -14,-3 -28,5 -32,19 -4,14 5,28 19,32 m 123,32 v 0 c 14,4 28,-4 32,-18 3,-14 -5,-29 -19,-32 -14,-4 -29,4 -32,18 -4,14 4,29 19,32 M -219,333 v 0 c 14,4 29,-4 32,-18 4,-14 -4,-29 -18,-32 -14,-4 -29,4 -33,18 -3,14 5,29 19,32 m 123,33 v 0 c 14,3 28,-5 32,-19 4,-14 -5,-28 -19,-32 -14,-4 -28,5 -32,19 -4,14 5,28 19,32 m 123,32 v 0 c 14,4 28,-5 32,-19 3,-14 -5,-28 -19,-32 -14,-4 -29,5 -32,19 -4,14 5,28 19,32 m 122,32 v 0 c 14,4 29,-4 32,-18 4,-14 -4,-29 -18,-33 -14,-3 -29,5 -33,19 -3,14 5,29 19,32 m 123,33 v 0 c 14,3 28,-5 32,-19 4,-14 -5,-29 -19,-32 -14,-4 -28,4 -32,18 -4,14 5,29 19,33 m 123,32 v 0 c 14,3 28,-5 32,-19 3,-14 -5,-28 -19,-32 -14,-4 -29,5 -32,19 -4,14 4,28 19,32 m 122,32 v 0 c 14,4 29,-5 32,-19 4,-14 -4,-28 -18,-32 -15,-3 -29,5 -33,19 -3,14 5,28 19,32 m 123,32 v 0 c 14,4 28,-4 32,-18 4,-14 -5,-29 -19,-32 -14,-4 -28,4 -32,18 -4,14 5,29 19,32 m 122,33 v 0 c 15,3 29,-5 33,-19 3,-14 -5,-28 -19,-32 -14,-4 -29,5 -32,19 -4,14 4,28 18,32 m 123,32 v 0 c 14,4 29,-5 32,-19 4,-14 -4,-28 -19,-32 -14,-3 -28,5 -32,19 -3,14 5,28 19,32 m 123,32 v 0 c 14,4 28,-4 32,-18 4,-14 -5,-29 -19,-32 -14,-4 -28,4 -32,18 -4,14 5,29 19,32 M -251,455 v 0 c 14,4 29,-4 32,-18 4,-14 -4,-29 -18,-32 -15,-4 -29,4 -33,18 -3,14 5,29 19,32 m 123,33 v 0 c 14,3 28,-5 32,-19 4,-14 -5,-28 -19,-32 -14,-4 -28,5 -32,19 -4,14 5,28 19,32 m 122,32 v 0 c 15,4 29,-5 33,-19 3,-14 -5,-28 -19,-32 -14,-3 -29,5 -32,19 -4,14 4,28 18,32 m 123,32 v 0 c 14,4 29,-4 32,-18 4,-14 -4,-29 -19,-32 -14,-4 -28,4 -32,18 -3,14 5,29 19,32 m 123,33 v 0 c 14,3 28,-5 32,-19 4,-14 -5,-28 -19,-32 -14,-4 -28,4 -32,18 -4,14 5,29 19,33 m 122,32 v 0 c 14,4 29,-5 33,-19 3,-14 -5,-28 -19,-32 -14,-4 -29,5 -32,19 -4,14 4,28 18,32 m 123,32 v 0 c 14,4 29,-5 32,-19 4,-14 -5,-28 -19,-32 -14,-3 -28,5 -32,19 -3,14 5,28 19,32 m 123,32 v 0 c 14,4 28,-4 32,-18 4,-14 -5,-29 -19,-32 -14,-4 -28,4 -32,18 -4,14 5,29 19,32 m 122,33 v 0 c 14,3 29,-5 33,-19 3,-14 -5,-28 -19,-32 -14,-4 -29,5 -32,19 -4,14 4,28 18,32 m 123,32 v 0 c 14,4 28,-5 32,-19 4,-14 -5,-28 -19,-32 -14,-3 -28,5 -32,19 -4,14 5,28 19,32 m 123,32 v 0 c 14,4 28,-4 32,-18 3,-14 -5,-29 -19,-32 -14,-4 -29.001,4 -32,18 -4,14 5,29 19,32 m 122,33 v 0 c 14,3 29,-5 32,-19 4,-14 -4,-28 -18,-32 -14,-4 -29,4 -33,18 -3,15 5,29 19,33 M -283,577 v 0 c 14,4 29,-4 32,-18 4,-14 -5,-29 -19,-32 -14,-4 -28,4 -32,18 -3,14 5,29 19,32 m 123,33 v 0 c 14,3 28,-5 32,-19 4,-14 -5,-28 -19,-32 -14,-4 -28,5 -32,19 -4,14 5,28 19,32 m 122,32 v 0 c 14,4 29,-5 33,-19 3,-14 -5,-28 -19,-32 -14,-3 -29,5 -32,19 -4,14 4,28 18,32 m 123,32 v 0 c 14,4 28,-4 32,-18 4,-14 -5,-29 -19,-32 -14,-4 -28,4 -32,18 -4,14 5,29 19,32 m 123,33 v 0 c 14,3 28,-5 32,-19 3,-14 -5,-28 -19,-32 -14,-4 -29,4 -32,18 -4,15 5,29 19,33 m 122,32 v 0 c 14,4 29,-5 32,-19 4,-14 -4,-28 -18,-32 -14,-4 -29,5 -33,19 -3,14 5,28 19,32 m 123,32 v 0 c 14,4 28,-4 32,-19 4,-14 -5,-28 -19,-32 -14,-3 -28,5 -32,19 -4,14 5,28 19,32 m 123,32 v 0 c 14,4 28,-4 32,-18 3,-14 -5,-29 -19,-32 -14,-4 -29,4 -32,18 -4,14 4,29 19,32 m 122,33 v 0 c 14,3 29,-5 32,-19 4,-14 -4,-28 -18,-32 -15,-4 -29,5 -33,19 -3,14 5,28 19,32 m 123,32 v 0 c 14,4 28,-5 32,-19 4,-14 -5,-28 -19,-32 -14,-3 -28,5 -32,19 -4,14 5,28 19,32 m 122,32 v 0 c 15,4 29,-4 33,-18 3,-14 -5,-29 -19,-32 -14,-4 -29,4 -32,18 -4,14 4,29 18,32 m 123,33 v 0 c 14,3 29,-5 32,-19 4,-14 -4,-28 -19,-32 -14,-4 -28,5 -32,19 -3,14 5,28 19,32 m 123,32 v 0 c 14,4 28,-5 32,-19 4,-14 -5,-28 -19,-32 -14,-4 -28.001,5 -32,19 -4,14 5,28 19,32 M -315,699 v 0 c 14,4 28,-4 32,-18 4,-14 -5,-29 -19,-32 -14,-4 -28,4 -32,18 -4,14 5,29 19,32 m 123,33 v 0 c 14,3 28,-5 32,-19 3,-14 -5,-28 -19,-32 -14,-4 -29,5 -32,19 -4,14 4,28 19,32 m 122,32 v 0 c 14,4 29,-5 32,-19 4,-14 -4,-28 -18,-32 -15,-3 -29,5 -33,19 -3,14 5,28 19,32 m 123,32 v 0 c 14,4 28,-4 32,-18 4,-14 -5,-29 -19,-32 -14,-4 -28,4 -32,18 -4,14 5,29 19,32 m 122,33 v 0 c 15,3 29,-5 33,-19 3,-14 -5,-28 -19,-32 -14,-4 -29,5 -32,19 -4,14 4,28 18,32 m 123,32 v 0 c 14,4 29,-5 32,-19 4,-14 -4,-28 -19,-32 -14,-4 -28,5 -32,19 -3,14 5,28 19,32 m 123,32 v 0 c 14,4 28,-4 32,-18 4,-14 -5,-29 -19,-33 -14,-3 -28,5 -32,19 -4,14 5,28 19,32 m 122,32 v 0 c 14,4 29,-4 33,-18 3,-14 -5,-29 -19,-32 -14,-4 -29,4 -32,18 -4,14 4,29 18,32 m 123,33 v 0 c 14,3 29,-5 32,-19 4,-14 -4,-28 -19,-32 -14,-4 -28,5 -32,19 -3,14 5,28 19,32 m 123,32 v 0 c 14,4 28,-5 32,-19 4,-14 -5,-28 -19,-32 -14,-3 -28,5 -32,19 -4,14 5,28 19,32 m 122,32 v 0 c 14,4 29,-4 33,-18 3,-14 -5,-29 -19,-32 -14,-4 -29,4 -32,18 -4,14 4,29 18,32 m 123,33 v 0 c 14,3 28,-5 32,-19 4,-14 -5,-28 -19,-32 -14,-4 -28.001,5 -32,19 -4,14 5,28 19,32 M -347,821 v 0 c 14,4 28,-4 32,-18 4,-14 -5,-29 -19,-32 -14,-4 -28,4 -32,18 -4,14 5,29 19,32 m 122,33 v 0 c 14,3 29,-5 33,-19 3,-14 -5,-28 -19,-32 -14,-4 -29,5 -32,19 -4,14 4,28 18,32 m 123,32 v 0 c 14,4 29,-5 32,-19 4,-14 -5,-28 -19,-32 -14,-3 -28,5 -32,19 -3,14 5,28 19,32 m 123,32 v 0 c 14,4 28,-4 32,-18 4,-14 -5,-29 -19,-32 -14,-4 -28,4 -32,18 -4,14 5,29 19,32 m 122,33 v 0 c 14,3 29,-5 33,-19 3,-14 -5,-28 -19,-32 -14,-4 -29,5 -32,19 -4,14 4,28 18,32 m 123,32 v 0 c 14,4 28,-5 32,-19 4,-14 -5,-28 -19,-32 -14,-4 -28,5 -32,19 -4,14 5,28 19,32 m 123,32 v 0 c 14,4 28,-4 32,-18 4,-14 -5,-29 -19,-33 -14,-3 -28,5 -32,19 -4,14 5,29 19,32 m 122,33 v 0 c 14,3 29,-5 32,-19 4,-14 -4,-29 -18,-32 -14,-4 -29,4 -33,18 -3,14 5,29 19,33 m 123,32 v 0 c 14,4 28,-5 32,-19 4,-14 -5,-28 -19,-32 -14,-4 -28,5 -32,19 -4,14 5,28 19,32 m 123,32 v 0 c 14,4 28,-5 32,-19 3,-14 -5,-28 -19,-32 -14,-3 -29,5 -32,19 -4,14 4,28 19,32 m 122,32 v 0 c 14,4 29,-4 32,-18 4,-14 -4,-29 -18,-32 -14,-4 -29,4 -33,18 -3,14 5,29 19,32 m 123,33 v 0 c 14,3 28,-5 32,-19 4,-14 -5,-28 -19,-32 -14,-4 -28,5 -32,19 -4,14 5,28 19,32 M -379,944 v 0 c 14,3 28,-5 32,-19 4,-14 -5,-28 -19,-32 -14,-4 -28,4 -32,18 -4,14 5,29 19,33 m 122,32 v 0 c 14,4 29,-5 32,-19 4,-14 -4,-28 -18,-32 -14,-4 -29,5 -33,19 -3,14 5,28 19,32 m 123,32 v 0 c 14,4 28,-5 32,-19 4,-14 -5,-28 -19,-32 -14,-3 -28,5 -32,19 -4,14 5,28 19,32 m 123,32 v 0 c 14,4 28,-4 32,-18 3,-14 -5,-29 -19,-32 -14,-4 -29,4 -32,18 -4,14 5,29 19,32 m 122,33 v 0 c 14,3 29,-5 32,-19 4,-14 -4,-28 -18,-32 -15,-4 -29,5 -33,19 -3,14 5,28 19,32 m 123,32 v 0 c 14,4 28,-5 32,-19 4,-14 -5,-28 -19,-32 -14,-3 -28,5 -32,19 -4,14 5,28 19,32 m 123,32 v 0 c 14,4 28,-4 32,-18 3,-14 -5,-29 -19,-32 -14,-4 -29,4 -32,18 -4,14 4,29 19,32 m 122,33 v 0 c 14,3 29,-5 32,-19 4,-14 -4,-28 -18,-32 -15,-4 -29,4 -33,18 -3,15 5,29 19,33 m 123,32 v 0 c 14,4 28,-5 32,-19 4,-14 -5,-28 -19,-32 -14,-4 -28,5 -32,19 -4,14 5,28 19,32 m 122,32 v 0 c 15,4 29,-4 33,-19 3,-14 -5,-28 -19,-32 -14,-3 -29,5 -32,19 -4,14 4,28 18,32 m 123,32 v 0 c 14,4 29,-4 32,-18 4,-14 -4,-29 -19,-32 -14,-4 -28,4 -32,18 -3,14 5,29 19,32 m 123,33 v 0 c 14,3 28,-5 32,-19 4,-14 -5.001,-28 -19,-32 -14,-4 -28,5 -32,19 -4,14 5,28 19,32 m 122,32 v 0 c 14,4 29,-5 33,-19 3,-14 -5,-28 -19,-32 -14,-3 -29,5 -32,19 -4,14 3.999,28 18,32 m 123,32 v 0 c 14,4 29,-4 32,-18 4,-14 -5,-29 -19,-32 -14,-4 -28,4 -32.001,18 -2.999,14 5.001,29 19.001,32 M -411,1066 v 0 c 14,3 28,-5 32,-19 3,-14 -5,-28 -19,-32 -14,-4 -29,4 -32,18 -4,15 4,29 19,33 m 122,32 v 0 c 14,4 29,-5 32,-19 4,-14 -4,-28 -18,-32 -15,-4 -29,5 -33,19 -3,14 5,28 19,32 m 123,32 v 0 c 14,4 28,-4 32,-19 4,-14 -5,-28 -19,-32 -14,-3 -28,5 -32,19 -4,14 5,28 19,32 m 122,32 v 0 c 15,4 29,-4 33,-18 3,-14 -5,-29 -19,-32 -14,-4 -29,4 -32,18 -4,14 4,29 18,32 m 123,33 v 0 c 14,3 29,-5 32,-19 4,-14 -4,-28 -19,-32 -14,-4 -28,5 -32,19 -3,14 5,28 19,32 m 123,32 v 0 c 14,4 28,-5 32,-19 4,-14 -5,-28 -19,-32 -14,-3 -28,5 -32,19 -4,14 5,28 19,32 m 122,32 v 0 c 14,4 29,-4 33,-18 3,-14 -5,-29 -19,-32 -14,-4 -29,4 -32,18 -4,14 4,29 18,32 m 123,33 v 0 c 14,3 29,-5 32,-19 4,-14 -5,-28 -19,-32 -14,-4 -28,5 -32,19 -3,14 5,28 19,32 m 123,32 v 0 c 14,4 28,-5 32,-19 4,-14 -5,-28 -19,-32 -14,-4 -28,5 -32,19 -4,14 5,28 19,32 m 122,32 v 0 c 14,4 29,-4 33,-18 3,-14 -5,-29 -19,-33 -14,-3 -29,5 -32,19 -4,14 4,28 18,32 m 123,32 v 0 c 14,4 28,-4 32,-18 4,-14 -5,-29 -19,-32 -14,-4 -28,4 -32,18 -4,14 5,29 19,32 m 123,33 v 0 c 14,3 28,-5 32,-19 3,-14 -5,-28 -19,-32 -14,-4 -29,5 -32,19 -4,14 5,28 19,32 m 122,32 v 0 c 14,4 29,-5 32,-19 4,-14 -4,-28 -18,-32 -14,-3 -29,5 -33,19 -3,14 5,28 19,32 m 123,32 v 0 c 14,4 27.999,-4 32,-18 4,-14 -5,-29 -19.001,-32 -13.999,-4 -27.999,4 -31.999,18 -4,14 5,29 19,32 M -2283,703 v 0 c 14,4 28,-4 32,-18 4,-14 -5,-29 -19,-32 -14,-4 -28,4 -32,18 -4,14 5,29 19,32 m 1839,485 v 0 c 14,3 29,-5 33,-19 3,-14 -5,-28 -19,-32 -14,-4 -29,5 -32,19 -4,14 4,28 18,32 m 123,32 v 0 c 14,4 29,-5 32,-19 4,-14 -5,-28 -19,-32 -14,-4 -28,5 -32,19 -3,14 5,28 19,32 m 123,32 v 0 c 14,4 28,-4 32,-18 4,-14 -5,-29 -19,-33 -14,-3 -28,5 -32,19 -4,14 5,28 19,32 m 122,32 v 0 c 14,4 29,-4 33,-18 3,-14 -5,-29 -19,-32 -14,-4 -29,4 -32,18 -4,14 4,29 18,32 m 123,33 v 0 c 14,3 28,-5 32,-19 4,-14 -5,-28 -19,-32 -14,-4 -28,5 -32,19 -4,14 5,28 19,32 m 123,32 v 0 c 14,4 28,-5 32,-19 3,-14 -5,-28 -19,-32 -14,-3 -29,5 -32,19 -4,14 5,28 19,32 m 122,32 v 0 c 14,4 29,-4 32,-18 4,-14 -4,-29 -18,-32 -14,-4 -29,4 -33,18 -3,14 5,29 19,32 m 123,33 v 0 c 14,3 28,-5 32,-19 4,-14 -5,-28 -19,-32 -14,-4 -28,5 -32,19 -4,14 5,28 19,32 m 123,32 v 0 c 14,4 28,-5 32,-19 3,-14 -5,-28 -19,-32 -14,-4 -29,5 -32,19 -4,14 4,28 19,32 m 122,32 v 0 c 14,4 29,-4 32,-18 4,-14 -4,-29 -18,-33 -15,-3 -29,5 -33,19 -3,14 5,29 19,32 m 123,33 v 0 c 14,3 28,-5 32,-19 4,-14 -5,-29 -19,-32 -14,-4 -28,4 -32,18 -4,14 5,29 19,33 m 122,32 v 0 c 15,3 29,-5 33,-19 3,-14 -5,-28 -19,-32 -14,-4 -29,5 -32,19 -4,14 4,28 18,32 m 123,32 v 0 c 14,4 29,-5 32,-19 4,-14 -4.001,-28 -19,-32 -14,-3 -28,5 -32,19 -3,14 5,28 19,32 M -2438,793 v 0 c 14,4 28,-5 32,-19 4,-14 -5,-28 -19,-32 -14,-3 -28,5 -32,19 -4,14 5,28 19,32 m 123,32 v 0 c 14,4 28,-4 32,-18 3,-14 -5,-29 -19,-32 -14,-4 -29,4 -32,18 -4,14 5,29 19,32 m 122,33 v 0 c 14,3 29,-5 32,-19 4,-14 -4,-28 -18,-32 -15,-4 -29,5 -33,19 -3,14 5,28 19,32 m 123,32 v 0 c 14,4 28,-5 32,-19 4,-14 -5,-28 -19,-32 -14,-4 -28,5 -32,19 -4,14 5,28 19,32 m 123,32 v 0 c 14,4 28,-4 32,-18 3,-14 -5,-29 -19,-33 -14,-3 -29,5 -32,19 -4,14 4,28 19,32 m 122,32 v 0 c 14,4 29,-4 32,-18 4,-14 -4,-29 -18,-32 -15,-4 -29,4 -33,18 -3,14 5,29 19,32 m 123,33 v 0 c 14,3 28,-5 32,-19 4,-14 -5,-28 -19,-32 -14,-4 -28,5 -32,19 -4,14 5,28 19,32 m 122,32 v 0 c 15,4 29,-5 33,-19 3,-14 -5,-28 -19,-32 -14,-3 -29,5 -32,19 -4,14 4,28 18,32 m 123,32 v 0 c 14,4 29,-4 32,-18 4,-14 -4,-29 -19,-32 -14,-4 -28,4 -32,18 -3,14 5,29 19,32 m 123,33 v 0 c 14,3 28,-5 32,-19 4,-14 -5,-28 -19,-32 -14,-4 -28,5 -32,19 -4,14 5,28 19,32 m 122,32 v 0 c 14,4 29,-5 33,-19 3,-14 -5,-28 -19,-32 -14,-4 -29,5 -32,19 -4,14 4,28 18,32 m 123,32 v 0 c 14,4 29,-4 32,-18 4,-14 -5,-29 -19,-33 -14,-3 -28,5 -32,19 -3,14 5,28 19,32 m 123,32 v 0 c 14,4 28,-4 32,-18 4,-14 -5,-29 -19,-32 -14,-4 -28,4 -32,18 -4,14 5,29 19,32 m 490,130 v 0 c 14,3 29,-5 32,-19 4,-14 -4,-28 -18,-32 -14,-4 -29,5 -33,19 -3,14 5,28 19,32 m 123,32 v 0 c 14,4 28,-5 32,-19 4,-14 -5,-28 -19,-32 -14,-4 -28,5 -32,19 -4,14 5,28 19,32 m 123,32 v 0 c 14,4 28,-4 32,-18 3,-14 -5,-29 -19,-33 -14,-3 -29,5 -32,19 -4,14 4,29 19,32 m 122,33 v 0 c 14,3 29,-5 32,-19 4,-14 -4,-29 -18,-32 -15,-4 -29,4 -33,18 -3,14 5,29 19,33 m 123,32 v 0 c 14,4 28,-5 32,-19 4,-14 -5,-28 -19,-32 -14,-4 -28,5 -32,19 -4,14 5,28 19,32 m 122,32 v 0 c 15,4 29,-5 33,-19 3,-14 -5,-28 -19,-32 -14,-3 -29,5 -32,19 -4,14 4,28 18,32 m 123,32 v 0 c 14,4 29,-4 32,-18 4,-14 -4,-29 -19,-32 -14,-4 -28,4 -32,18 -3,14 5,29 19,32 m 123,33 v 0 c 14,3 28,-5 32,-19 4,-14 -5,-28 -19,-32 -14,-4 -28,5 -32,19 -4,14 5,28 19,32 m 122,32 v 0 c 15,4 29,-5 33,-19 3,-14 -5,-28 -19,-32 -14,-3 -29,5 -32,19 -4,14 4,28 18,32 m 123,32 v 0 c 14,4 29,-4 32,-18 4,-14 -5,-29 -19,-32 -14,-4 -28,4 -32,18 -3,14 5,29 19,32 m 123,33 v 0 c 14,3 28,-5 32,-19 4,-14 -5,-28 -19,-32 -14,-4 -28,4 -32,18 -4,14 5,29 19,33 m 122,32 v 0 c 14,4 29,-5 33,-19 3,-14 -5.001,-28 -19,-32 -14,-4 -29,5 -32,19 -4,14 4,28 18,32 m 123,32 v 0 c 14,4 28,-5 32,-19 4,-14 -5,-28 -19,-32 -14,-3 -28,5 -32,19 -4,14 5,28 19,32 M -2715,850 v 0 c 14,4 28,-4 32,-18 3,-14 -5,-29 -19,-32 -14,-4 -29,4 -32,18 -4,14 4,29 19,32 m 122,33 v 0 c 14,3 29,-5 32,-19 4,-14 -4,-28 -18,-32 -15,-4 -29,5 -33,19 -3,14 5,28 19,32 m 123,32 v 0 c 14,4 28,-5 32,-19 4,-14 -5,-28 -19,-32 -14,-3 -28,5 -32,19 -4,14 5,28 19,32 m 122,32 v 0 c 15,4 29,-4 33,-18 3,-14 -5,-29 -19,-32 -14,-4 -29,4 -32,18 -4,14 4,29 18,32 m 123,33 v 0 c 14,3 29,-5 32,-19 4,-14 -4,-28 -19,-32 -14,-4 -28,5 -32,19 -3,14 5,28 19,32 m 123,32 v 0 c 14,4 28,-5 32,-19 4,-14 -5,-28 -19,-32 -14,-4 -28,5 -32,19 -4,14 5,28 19,32 m 122,32 v 0 c 14,4 29,-4 33,-18 3,-14 -5,-29 -19,-33 -14,-3 -29,5 -32,19 -4,14 4,28 18,32 m 123,32 v 0 c 14,4 29,-4 32,-18 4,-14 -5,-29 -19,-32 -14,-4 -28,4 -32,18 -3,14 5,29 19,32 m 123,33 v 0 c 14,3 28,-5 32,-19 4,-14 -5,-28 -19,-32 -14,-4 -28,5 -32,19 -4,14 5,28 19,32 m 122,32 v 0 c 14,4 29,-5 32,-19 4,-14 -4,-28 -18,-32 -14,-3 -29,5 -32,19 -4,14 4,28 18,32 m 123,32 v 0 c 14,4 28,-4 32,-18 4,-14 -5,-29 -19,-32 -14,-4 -28,4 -32,18 -4,14 5,29 19,32 m 123,33 v 0 c 14,3 28,-5 32,-19 3,-14 -5,-28 -19,-32 -14,-4 -29,5 -32,19 -4,14 5,28 19,32 m 122,32 v 0 c 14,4 29,-5 32,-19 4,-14 -4,-28 -18,-32 -14,-4 -29,5 -33,19 -3,14 5,28 19,32 m 123,32 v 0 c 14,4 28,-4 32,-18 4,-14 -5,-29 -19,-33 -14,-3 -28,5 -32,19 -4,14 5,29 19,32 m 123,33 v 0 c 14,3 28,-5 32,-19 3,-14 -5,-29 -19,-32 -14,-4 -29,4 -32,18 -4,14 4,29 19,33 m 122,32 v 0 c 14,4 29,-5 32,-19 4,-14 -4,-28 -18,-32 -15,-4 -29,5 -33,19 -3,14 5,28 19,32 m 123,32 v 0 c 14,4 28,-5 32,-19 4,-14 -5,-28 -19,-32 -14,-3 -28,5 -32,19 -4,14 5,28 19,32 m 122,32 v 0 c 15,4 29,-4 33,-18 3,-14 -5,-29 -19,-32 -14,-4 -29,4 -32,18 -4,14 4,29 18,32 m 123,33 v 0 c 14,3 29,-5 32,-19 4,-14 -4,-28 -19,-32 -14,-4 -28,5 -32,19 -3,14 5,28 19,32 m 123,32 v 0 c 14,4 28,-5 32,-19 4,-14 -5,-28 -19,-32 -14,-3 -28,5 -32,19 -4,14 5,28 19,32 m 122,32 v 0 c 14,4 29,-4 33,-18 3,-14 -5,-29 -19,-32 -14,-4 -29,4 -32,18 -4,14 4,29 18,32 m 123,33 v 0 c 14,3 29,-5 32,-19 4,-14 -5,-28 -19,-32 -14,-4 -28,4 -32,18 -3,14 5,29 19,33 m 123,32 v 0 c 14,4 28,-5 32,-19 4,-14 -5,-28 -19,-32 -14,-4 -28,5 -32,19 -4,14 5,28 19,32 m 122,32 v 0 c 14,4 29,-5 33,-19 3,-14 -5,-28 -19,-32 -14,-3 -29,5 -32,19 -4,14 4,28 18,32 m 123,32 v 0 c 14,4 28,-4 32,-18 4,-14 -5,-29 -19,-32 -14,-4 -28,4 -32,18 -4,14 5,29 19,32 m 123,33 v 0 c 14,3 28,-5 32,-19 4,-14 -5,-28 -19,-32 -14,-4 -28,5 -32,19 -4,14 5,28 19,32 m 122,32 v 0 c 14,4 29,-5 32,-19 4,-14 -4,-28 -18,-32 -14,-3 -29,5 -33,19 -3,14 5,28 19,32 m 123,32 v 0 c 14,4 28,-4 32,-18 4,-14 -5,-29 -19,-32 -14,-4 -28,4 -32,18 -4,14 5,29 19,32 M -2748,973 v 0 c 14,3 29,-5 33,-19 3,-14 -5,-29 -19,-32 -14,-4 -29,4 -32,18 -4,14 4,29 18,33 m 123,32 v 0 c 14,3 29,-5 32,-19 4,-14 -5,-28 -19,-32 -14,-4 -28,5 -32,19 -3,14 5,28 19,32 m 123,32 v 0 c 14,4 28,-5 32,-19 4,-14 -5,-28 -19,-32 -14,-3 -28,5 -32,19 -4,14 5,28 19,32 m 122,32 v 0 c 14,4 29,-4 32,-18 4,-14 -4,-29 -18,-32 -14,-4 -29,4 -32,18 -4,14 4,29 18,32 m 123,33 v 0 c 14,3 28,-5 32,-19 4,-14 -5,-28 -19,-32 -14,-4 -28,5 -32,19 -4,14 5,28 19,32 m 123,32 v 0 c 14,4 28,-5 32,-19 3,-14 -5,-28 -19,-32 -14,-3 -29,5 -32,19 -4,14 5,28 19,32 m 122,32 v 0 c 14,4 29,-4 32,-18 4,-14 -4,-29 -18,-32 -14,-4 -29,4 -33,18 -3,14 5,29 19,32 m 123,33 v 0 c 14,3 28,-5 32,-19 4,-14 -5,-29 -19,-32 -14,-4 -28,4 -32,18 -4,14 5,29 19,33 m 123,32 v 0 c 14,4 28,-5 32,-19 3,-14 -5,-28 -19,-32 -14,-4 -29,5 -32,19 -4,14 4,28 19,32 m 122,32 v 0 c 14,4 29,-5 32,-19 4,-14 -4,-28 -18,-32 -15,-3 -29,5 -33,19 -3,14 5,28 19,32 m 123,32 v 0 c 14,4 28,-4 32,-18 4,-14 -5,-29 -19,-32 -14,-4 -28,4 -32,18 -4,14 5,29 19,32 m 122,33 v 0 c 15,3 29,-5 33,-19 3,-14 -5,-28 -19,-32 -14,-4 -29,5 -32,19 -4,14 4,28 18,32 m 123,32 v 0 c 14,4 29,-5 32,-19 4,-14 -4,-28 -19,-32 -14,-3 -28,5 -32,19 -3,14 5,28 19,32 m 123,32 v 0 c 14,4 28,-4 32,-18 4,-14 -5,-29 -19,-32 -14,-4 -28,4 -32,18 -4,14 5,29 19,32 m 122,33 v 0 c 14,3 29,-5 33,-19 3,-14 -5,-28 -19,-32 -14,-4 -29,4 -32,18 -4,15 4,29 18,33 m 123,32 v 0 c 14,4 29,-5 32,-19 4,-14 -5,-28 -19,-32 -14,-4 -28,5 -32,19 -3,14 5,28 19,32 m 123,32 v 0 c 14,4 28,-4 32,-19 4,-14 -5,-28 -19,-32 -14,-3 -28,5 -32,19 -4,14 5,28 19,32 m 122,32 v 0 c 14,4 29,-4 33,-18 3,-14 -5,-29 -19,-32 -14,-4 -29,4 -32,18 -4,14 4,29 18,32 m 123,33 v 0 c 14,3 28,-5 32,-19 4,-14 -5,-28 -19,-32 -14,-4 -28,5 -32,19 -4,14 5,28 19,32 m 123,32 v 0 c 14,4 28,-5 32,-19 4,-14 -5,-28 -19,-32 -14,-3 -28,5 -32,19 -4,14 5,28 19,32 m 122,32 v 0 c 14,4 29,-4 32,-18 4,-14 -4,-29 -18,-32 -14,-4 -29,4 -33,18 -3,14 5,29 19,32 m 123,33 v 0 c 14,3 28,-5 32,-19 4,-14 -5,-28 -19,-32 -14,-4 -28,5 -32,19 -4,14 5,28 19,32 m 123,32 v 0 c 14,4 28,-5 32,-19 3,-14 -5,-28 -19,-32 -14,-4 -29,5 -32,19 -4,14 4,28 19,32 m 122,32 v 0 c 14,4 29,-4 32,-18 4,-14 -4,-29 -18,-33 -14,-3 -29,5 -33,19 -3,14 5,28 19,32 m 123,32 v 0 c 14,4 28,-4 32,-18 4,-14 -5,-29 -19,-32 -14,-4 -28,4 -32,18 -4,14 5,29 19,32 m 123,33 v 0 c 14,3 28,-5 32,-19 3,-14 -5,-28 -19,-32 -14,-4 -29,5 -32,19 -4,14 4,28 19,32 m 122,32 v 0 c 14,4 29,-5 32,-19 4,-14 -4,-28 -18,-32 -15,-3 -29,5 -33,19 -3,14 5,28 19,32 m 123,32 v 0 c 14,4 28,-4 32,-18 4,-14 -5,-29 -19,-32 -14,-4 -28,4 -32,18 -4,14 5,29 19,32 m -3344,-749 v 0 c 14,3 29,-5 32,-19 4,-14 -4,-28 -18,-32 -14,-4 -29,4 -33,18 -3,14 5,29 19,33 m 123,32 v 0 c 14,4 28,-5 32,-19 4,-14 -5,-28 -19,-32 -14,-4 -28,5 -32,19 -4,14 5,28 19,32 m 123,32 v 0 c 14,4 28,-5 32,-19 3,-14 -5,-28 -19,-32 -14,-3 -29,5 -32,19 -4,14 4,28 19,32 m 122,32 v 0 c 14,4 29,-4 32,-18 4,-14 -4,-29 -18,-32 -15,-4 -29,4 -33,18 -3,14 5,29 19,32 m 123,33 v 0 c 14,3 28,-5 32,-19 4,-14 -5,-28 -19,-32 -14,-4 -28,5 -32,19 -4,14 5,28 19,32 m 122,32 v 0 c 15,4 29,-5 33,-19 3,-14 -5,-28 -19,-32 -14,-3 -29,5 -32,19 -4,14 4,28 18,32 m 123,32 v 0 c 14,4 29,-4 32,-18 4,-14 -4,-29 -19,-32 -14,-4 -28,4 -32,18 -3,14 5,29 19,32 m 123,33 v 0 c 14,3 28,-5 32,-19 4,-14 -5,-28 -19,-32 -14,-4 -28,4 -32,18 -4,15 5,29 19,33 m 122,32 v 0 c 15,4 29,-5 33,-19 3,-14 -5,-28 -19,-32 -14,-4 -29,5 -32,19 -4,14 4,28 18,32 m 123,32 v 0 c 14,4 29,-4 32,-19 4,-14 -5,-28 -19,-32 -14,-3 -28,5 -32,19 -3,14 5,28 19,32 m 123,32 v 0 c 14,4 28,-4 32,-18 4,-14 -5,-29 -19,-32 -14,-4 -28,4 -32,18 -4,14 5,29 19,32 m 122,33 v 0 c 14,3 29,-5 33,-19 3,-14 -5,-28 -19,-32 -14,-4 -29,5 -32,19 -4,14 4,28 18,32 m 123,32 v 0 c 14,4 28,-5 32,-19 4,-14 -5,-28 -19,-32 -14,-3 -28,5 -32,19 -4,14 5,28 19,32 m 123,32 v 0 c 14,4 28,-4 32,-18 4,-14 -5,-29 -19,-32 -14,-4 -28,4 -32,18 -4,14 5,29 19,32 m 122,33 v 0 c 14,3 29,-5 32,-19 4,-14 -4,-28 -18,-32 -14,-4 -29,5 -33,19 -3,14 5,28 19,32 m 123,32 v 0 c 14,4 28,-5 32,-19 4,-14 -5,-28 -19,-32 -14,-4 -28,5 -32,19 -4,14 5,28 19,32 m 123,32 v 0 c 14,4 28,-4 32,-18 3,-14 -5,-29 -19,-33 -14,-3 -29,5 -32,19 -4,14 5,28 19,32 m 122,32 v 0 c 14,4 29,-4 32,-18 4,-14 -4,-29 -18,-32 -14,-4 -29,4 -33,18 -3,14 5,29 19,32 m 123,33 v 0 c 14,3 28,-5 32,-19 4,-14 -5,-28 -19,-32 -14,-4 -28,5 -32,19 -4,14 5,28 19,32 m 123,32 v 0 c 14,4 28,-5 32,-19 3,-14 -5,-28 -19,-32 -14,-3 -29,5 -32,19 -4,14 4,28 19,32 m 122,32 v 0 c 14,4 29,-4 32,-18 4,-14 -4,-29 -18,-32 -15,-4 -29,4 -33,18 -3,14 5,29 19,32 m 123,33 v 0 c 14,3 28,-5 32,-19 4,-14 -5,-28 -19,-32 -14,-4 -28,5 -32,19 -4,14 5,28 19,32 m 122,32 v 0 c 15,4 29,-5 33,-19 3,-14 -5,-28 -19,-32 -14,-4 -29,5 -32,19 -4,14 4,28 18,32 m 123,32 v 0 c 14,4 29,-4 32,-18 4,-14 -4,-29 -19,-33 -14,-3 -28,5 -32,19 -3,14 5,29 19,32 m 123,32 v 0 c 14,4 28,-4 32,-18 4,-14 -5,-29 -19,-32 -14,-4 -28,4 -32,18 -4,14 5,29 19,32 m 122,33 v 0 c 14,3 29,-5 33,-19 3,-14 -5,-28 -19,-32 -14,-4 -29,5 -32,19 -4,14 4,28 18,32 m 123,32 v 0 c 14,4 29,-5 32,-19 4,-14 -5,-28 -19,-32 -14,-3 -28,5 -32,19 -3,14 5,28 19,32 m 123,32 v 0 c 14,4 28,-4 32,-18 4,-14 -5,-29 -19,-32 -14,-4 -28,4 -32,18 -4,14 5,29 19,32 m -3221,-717 v 0 c 14,4 28,-5 32,-19 4,-14 -5,-28 -19,-32 -14,-4 -28,5 -32,19 -4,14 5,28 19,32 m 122,32 v 0 c 14,4 29,-4 33,-19 3,-14 -5,-28 -19,-32 -14,-3 -29,5 -32,19 -4,14 4,28 18,32 m 123,32 v 0 c 14,4 29,-4 32,-18 4,-14 -4,-29 -19,-32 -14,-4 -28,4 -32,18 -3,14 5,29 19,32 m 123,33 v 0 c 14,3 28,-5 32,-19 4,-14 -5,-28 -19,-32 -14,-4 -28,5 -32,19 -4,14 5,28 19,32 m 122,32 v 0 c 14,4 29,-5 33,-19 3,-14 -5,-28 -19,-32 -14,-3 -29,5 -32,19 -4,14 4,28 18,32 m 123,32 v 0 c 14,4 28,-4 32,-18 4,-14 -5,-29 -19,-32 -14,-4 -28,4 -32,18 -4,14 5,29 19,32 m 123,33 v 0 c 14,3 28,-5 32,-19 4,-14 -5,-28 -19,-32 -14,-4 -28,5 -32,19 -4,14 5,28 19,32 m 122,32 v 0 c 14,4 29,-5 32,-19 4,-14 -4,-28 -18,-32 -14,-4 -29,5 -33,19 -3,14 5,28 19,32 m 123,32 v 0 c 14,4 28,-4 32,-18 4,-14 -5,-29 -19,-33 -14,-3 -28,5 -32,19 -4,14 5,28 19,32 m 123,32 v 0 c 14,4 28,-4 32,-18 3,-14 -5,-29 -19,-32 -14,-4 -29,4 -32,18 -4,14 5,29 19,32 m 122,33 v 0 c 14,3 29,-5 32,-19 4,-14 -4,-28 -18,-32 -14,-4 -29,5 -33,19 -3,14 5,28 19,32 m 123,32 v 0 c 14,4 28,-5 32,-19 4,-14 -5,-28 -19,-32 -14,-3 -28,5 -32,19 -4,14 5,28 19,32 m 123,32 v 0 c 14,4 28,-4 32,-18 3,-14 -5,-29 -19,-32 -14,-4 -29,4 -32,18 -4,14 4,29 19,32 m 122,33 v 0 c 14,3 29,-5 32,-19 4,-14 -4,-28 -18,-32 -15,-4 -29,5 -33,19 -3,14 5,28 19,32 m 123,32 v 0 c 14,4 28,-5 32,-19 4,-14 -5,-28 -19,-32 -14,-4 -28,5 -32,19 -4,14 5,28 19,32 m 122,32 v 0 c 15,4 29,-4 33,-18 3,-14 -5,-29 -19,-33 -14,-3 -29,5 -32,19 -4,14 4,29 18,32 m 123,32 v 0 c 14,4 29,-4 32,-18 4,-14 -4,-29 -19,-32 -14,-4 -28,4 -32,18 -3,14 5,29 19,32 m 123,33 v 0 c 14,3 28,-5 32,-19 4,-14 -5,-28 -19,-32 -14,-4 -28,5 -32,19 -4,14 5,28 19,32 m 122,32 v 0 c 14,4 29,-5 33,-19 3,-14 -5,-28 -19,-32 -14,-3 -29,5 -32,19 -4,14 4,28 18,32 m 123,32 v 0 c 14,4 29,-4 32,-18 4,-14 -5,-29 -19,-32 -14,-4 -28,4 -32,18 -3,14 5,29 19,32 m 123,33 v 0 c 14,3 28,-5 32,-19 4,-14 -5,-28 -19,-32 -14,-4 -28,5 -32,19 -4,14 5,28 19,32 m 122,32 v 0 c 14,4 29,-5 32,-19 4,-14 -4,-28 -18,-32 -14,-3 -29,5 -32,19 -4,14 4,28 18,32 m 123,32 v 0 c 14,4 28,-4 32,-18 4,-14 -5,-29 -19,-32 -14,-4 -28,4 -32,18 -4,14 5,29 19,32 m 123,33 v 0 c 14,3 28,-5 32,-19 3,-14 -5,-29 -19,-32 -14,-4 -29,4 -32,18 -4,14 5,29 19,33 m 122,32 v 0 c 14,4 29,-5 32,-19 4,-14 -4,-28 -18,-32 -14,-4 -29,5 -33,19 -3,14 5,28 19,32 m 123,32 v 0 c 14,4 28,-5 32,-19 4,-14 -5,-28 -19,-32 -14,-3 -28,5 -32,19 -4,14 5,28 19,32 m 123,32 v 0 c 14,4 28,-4 32,-18 3,-14 -5,-29 -19,-32 -14,-4 -29,4 -32,18 -4,14 4,29 19,32 m 122,33 v 0 c 14,3 29,-5 32,-19 4,-14 -4,-28 -18,-32 -15,-4 -29,5 -33,19 -3,14 5,28 19,32 m -3343,-750 v 0 c 14,4 28,-5 32,-19 4,-14 -5,-28 -19,-32 -14,-4 -28,5 -32,19 -4,14 5,28 19,32 m 122,32 v 0 c 14,4 29,-4 32,-18 4,-14 -4,-29 -18,-33 -14,-3 -29,5 -33,19 -3,14 5,28 19,32 m 123,32 v 0 c 14,4 28,-4 32,-18 4,-14 -5,-29 -19,-32 -14,-4 -28,4 -32,18 -4,14 5,29 19,32 m 123,33 v 0 c 14,3 28,-5 32,-19 3,-14 -5,-28 -19,-32 -14,-4 -29,5 -32,19 -4,14 4,28 19,32 m 122,32 v 0 c 14,4 29,-5 32,-19 4,-14 -4,-28 -18,-32 -14,-3 -29,5 -33,19 -3,14 5,28 19,32 m 123,32 v 0 c 14,4 28,-4 32,-18 4,-14 -5,-29 -19,-32 -14,-4 -28,4 -32,18 -4,14 5,29 19,32 m 123,33 v 0 c 14,3 28,-5 32,-19 3,-14 -5,-28 -19,-32 -14,-4 -29,5 -32,19 -4,14 4,28 19,32 m 122,32 v 0 c 14,4 29,-5 32,-19 4,-14 -4,-28 -18,-32 -15,-4 -29,5 -33,19 -3,14 5,28 19,32 m 123,32 v 0 c 14,4 28,-4 32,-18 4,-14 -5,-29 -19,-33 -14,-3 -28,5 -32,19 -4,14 5,29 19,32 m 122,33 v 0 c 15,3 29,-5 33,-19 3,-14 -5,-29 -19,-32 -14,-4 -29,4 -32,18 -4,14 4,29 18,33 m 123,32 v 0 c 14,4 29,-5 32,-19 4,-14 -4,-28 -19,-32 -14,-4 -28,5 -32,19 -3,14 5,28 19,32 m 123,32 v 0 c 14,4 28,-5 32,-19 4,-14 -5,-28 -19,-32 -14,-3 -28,5 -32,19 -4,14 5,28 19,32 m 122,32 v 0 c 14,4 29,-4 33,-18 3,-14 -5,-29 -19,-32 -14,-4 -29,4 -32,18 -4,14 4,29 18,32 m 123,33 v 0 c 14,3 29,-5 32,-19 4,-14 -5,-28 -19,-32 -14,-4 -28,5 -32,19 -3,14 5,28 19,32 m 123,32 v 0 c 14,4 28,-5 32,-19 4,-14 -5,-28 -19,-32 -14,-3 -28,5 -32,19 -4,14 5,28 19,32 m 122,32 v 0 c 14,4 29,-4 32,-18 4,-14 -4,-29 -18,-32 -14,-4 -29,4 -32,18 -4,14 4,29 18,32 m 123,33 v 0 c 14,3 28,-5 32,-19 4,-14 -5,-28 -19,-32 -14,-4 -28,4 -32,18 -4,14 5,29 19,33 m 123,32 v 0 c 14,4 28,-5 32,-19 3,-14 -5,-28 -19,-32 -14,-4 -29,5 -32,19 -4,14 5,28 19,32 m 122,32 v 0 c 14,4 29,-5 32,-19 4,-14 -4,-28 -18,-32 -14,-3 -29,5 -33,19 -3,14 5,28 19,32 m 123,32 v 0 c 14,4 28,-4 32,-18 4,-14 -5,-29 -19,-32 -14,-4 -28,4 -32,18 -4,14 5,29 19,32 m 123,33 v 0 c 14,3 28,-5 32,-19 3,-14 -5,-28 -19,-32 -14,-4 -29,5 -32,19 -4,14 4,28 19,32 m 122,32 v 0 c 14,4 29,-5 32,-19 4,-14 -4,-28 -18,-32 -15,-3 -29,5 -33,19 -3,14 5,28 19,32 m 123,32 v 0 c 14,4 28,-4 32,-18 4,-14 -5,-29 -19,-32 -14,-4 -28,4 -32,18 -4,14 5,29 19,32 m 122,33 v 0 c 15,3 29,-5 33,-19 3,-14 -5,-28 -19,-32 -14,-4 -29,4 -32,18 -4,15 4,29 18,33 m 123,32 v 0 c 14,4 29,-5 32,-19 4,-14 -4,-28 -19,-32 -14,-4 -28,5 -32,19 -3,14 5,28 19,32 m 123,32 v 0 c 14,4 28,-4 32,-19 4,-14 -5,-28 -19,-32 -14,-3 -28,5 -32,19 -4,14 5,28 19,32 m 122,32 v 0 c 14,4 29,-4 33,-18 3,-14 -5,-29 -19,-32 -14,-4 -29,4 -32,18 -4,14 4,29 18,32 m -3220,-717 v 0 c 14,4 28,-5 32,-19 3,-14 -5,-28 -19,-32 -14,-3 -29,5 -32,19 -4,14 4,28 19,32 m 122,32 v 0 c 14,4 29,-4 32,-18 4,-14 -4,-29 -18,-32 -15,-4 -29,4 -33,18 -3,14 5,29 19,32 m 123,33 v 0 c 14,3 28,-5 32,-19 4,-14 -5,-28 -19,-32 -14,-4 -28,4 -32,18 -4,14 5,29 19,33 m 122,32 v 0 c 15,4 29,-5 33,-19 3,-14 -5,-28 -19,-32 -14,-4 -29,5 -32,19 -4,14 4,28 18,32 m 123,32 v 0 c 14,4 29,-5 32,-19 4,-14 -4,-28 -19,-32 -14,-3 -28,5 -32,19 -3,14 5,28 19,32 m 123,32 v 0 c 14,4 28,-4 32,-18 4,-14 -5,-29 -19,-32 -14,-4 -28,4 -32,18 -4,14 5,29 19,32 m 122,33 v 0 c 14,3 29,-5 33,-19 3,-14 -5,-28 -19,-32 -14,-4 -29,5 -32,19 -4,14 4,28 18,32 m 123,32 v 0 c 14,4 29,-5 32,-19 4,-14 -5,-28 -19,-32 -14,-3 -28,5 -32,19 -3,14 5,28 19,32 m 123,32 v 0 c 14,4 28,-4 32,-18 4,-14 -5,-29 -19,-32 -14,-4 -28,4 -32,18 -4,14 5,29 19,32 m 122,33 v 0 c 14,3 29,-5 32,-19 4,-14 -4,-28 -18,-32 -14,-4 -29,4 -32,18 -4,14 4,29 18,33 m 123,32 v 0 c 14,4 28,-5 32,-19 4,-14 -5,-28 -19,-32 -14,-4 -28,5 -32,19 -4,14 5,28 19,32 m 123,32 v 0 c 14,4 28,-4 32,-19 3,-14 -5,-28 -19,-32 -14,-3 -29,5 -32,19 -4,14 5,28 19,32 m 122,32 v 0 c 14,4 29,-4 32,-18 4,-14 -4,-29 -18,-32 -14,-4 -29,4 -33,18 -3,14 5,29 19,32 m 123,33 v 0 c 14,3 28,-5 32,-19 4,-14 -5,-28 -19,-32 -14,-4 -28,5 -32,19 -4,14 5,28 19,32 m 123,32 v 0 c 14,4 28,-5 32,-19 3,-14 -5,-28 -19,-32 -14,-3 -29,5 -32,19 -4,14 4,28 19,32 m 122,32 v 0 c 14,4 29,-4 32,-18 4,-14 -4,-29 -18,-32 -15,-4 -29,4 -33,18 -3,14 5,29 19,32 m 123,33 v 0 c 14,3 28,-5 32,-19 4,-14 -5,-28 -19,-32 -14,-4 -28,5 -32,19 -4,14 5,28 19,32 m 122,32 v 0 c 15,4 29,-5 33,-19 3,-14 -5,-28 -19,-32 -14,-4 -29,5 -32,19 -4,14 4,28 18,32 m 123,32 v 0 c 14,4 29,-4 32,-18 4,-14 -4,-29 -19,-33 -14,-3 -28,5 -32,19 -3,14 5,28 19,32 m 123,32 v 0 c 14,4 28,-4 32,-18 4,-14 -5,-29 -19,-32 -14,-4 -28,4 -32,18 -4,14 5,29 19,32 m 122,33 v 0 c 14,3 29,-5 33,-19 3,-14 -5,-28 -19,-32 -14,-4 -29,5 -32,19 -4,14 4,28 18,32 m 123,32 v 0 c 14,4 29,-5 32,-19 4,-14 -5,-28 -19,-32 -14,-3 -28,5 -32,19 -3,14 5,28 19,32 m 123,32 v 0 c 14,4 28,-4 32,-18 4,-14 -5,-29 -19,-32 -14,-4 -28,4 -32,18 -4,14 5,29 19,32 m 122,33 v 0 c 14,3 29,-5 33,-19 3,-14 -5,-28 -19,-32 -14,-4 -29,5 -32,19 -4,14 4,28 18,32 m 123,32 v 0 c 14,4 28,-5 32,-19 4,-14 -5,-28 -19,-32 -14,-4 -28,5 -32,19 -4,14 5,28 19,32 m 123,32 v 0 c 14,4 28,-4 32,-18 4,-14 -5,-29 -19,-33 -14,-3 -28,5 -32,19 -4,14 5,28 19,32 m -3099,-685 v 0 c 14,4 29,-5 33,-19 3,-14 -5,-28 -19,-32 -14,-3 -29,5 -32,19 -4,14 4,28 18,32 m 123,32 v 0 c 14,4 29,-4 32,-18 4,-14 -5,-29 -19,-32 -14,-4 -28,4 -32,18 -3,14 5,29 19,32 m 123,33 v 0 c 14,3 28,-5 32,-19 4,-14 -5,-28 -19,-32 -14,-4 -28,4 -32,18 -4,15 5,29 19,33 m 122,32 v 0 c 14,4 29,-5 32,-19 4,-14 -4,-28 -18,-32 -14,-4 -29,5 -32,19 -4,14 4,28 18,32 m 123,32 v 0 c 14,4 28,-4 32,-19 4,-14 -5,-28 -19,-32 -14,-3 -28,5 -32,19 -4,14 5,28 19,32 m 123,32 v 0 c 14,4 28,-4 32,-18 3,-14 -5,-29 -19,-32 -14,-4 -29,4 -32,18 -4,14 5,29 19,32 m 122,33 v 0 c 14,3 29,-5 32,-19 4,-14 -4,-28 -18,-32 -14,-4 -29,5 -33,19 -3,14 5,28 19,32 m 123,32 v 0 c 14,4 28,-5 32,-19 4,-14 -5,-28 -19,-32 -14,-3 -28,5 -32,19 -4,14 5,28 19,32 m 123,32 v 0 c 14,4 28,-4 32,-18 3,-14 -5,-29 -19,-32 -14,-4 -29,4 -32,18 -4,14 4,29 19,32 m 122,33 v 0 c 14,3 29,-5 32,-19 4,-14 -4,-28 -18,-32 -15,-4 -29,5 -33,19 -3,14 5,28 19,32 m 123,32 v 0 c 14,4 28,-5 32,-19 4,-14 -5,-28 -19,-32 -14,-4 -28,5 -32,19 -4,14 5,28 19,32 m 122,32 v 0 c 15,4 29,-4 33,-18 3,-14 -5,-29 -19,-33 -14,-3 -29,5 -32,19 -4,14 4,28 18,32 m 123,32 v 0 c 14,4 29,-4 32,-18 4,-14 -4,-29 -19,-32 -14,-4 -28,4 -32,18 -3,14 5,29 19,32 m 123,33 v 0 c 14,3 28,-5 32,-19 4,-14 -5,-28 -19,-32 -14,-4 -28,5 -32,19 -4,14 5,28 19,32 m 122,32 v 0 c 14,4 29,-5 33,-19 3,-14 -5,-28 -19,-32 -14,-3 -29,5 -32,19 -4,14 4,28 18,32 m 123,32 v 0 c 14,4 29,-4 32,-18 4,-14 -5,-29 -19,-32 -14,-4 -28,4 -32,18 -3,14 5,29 19,32 m 123,33 v 0 c 14,3 28,-5 32,-19 4,-14 -5,-28 -19,-32 -14,-4 -28,5 -32,19 -4,14 5,28 19,32 m 122,32 v 0 c 14,4 29,-5 33,-19 3,-14 -5,-28 -19,-32 -14,-4 -29,5 -32,19 -4,14 4,28 18,32 m 123,32 v 0 c 14,4 28,-4 32,-18 4,-14 -5,-29 -19,-33 -14,-3 -28,5 -32,19 -4,14 5,28 19,32 m 123,32 v 0 c 14,4 28,-4 32,-18 3,-14 -5,-29 -19,-32 -14,-4 -28,4 -32,18 -4,14 5,29 19,32 m 122,33 v 0 c 14,3 29,-5 32,-19 4,-14 -4,-28 -18,-32 -14,-4 -29,5 -33,19 -3,14 5,28 19,32 m 123,32 v 0 c 14,4 28,-5 32,-19 4,-14 -5,-28 -19,-32 -14,-3 -28,5 -32,19 -4,14 5,28 19,32 m 123,32 v 0 c 14,4 28,-4 32,-18 3,-14 -5,-29 -19,-32 -14,-4 -29,4 -32,18 -4,14 5,29 19,32 m 122,33 v 0 c 14,3 29,-5 32,-19 4,-14 -4,-28 -18,-32 -14,-4 -29,5 -33,19 -3,14 5,28 19,32 m -2853,-621 v 0 c 14,4 29,-5 32,-19 4,-14 -4,-28 -18,-32 -14,-3 -29,5 -33,19 -3,14 5,28 19,32 m 123,32 v 0 c 14,4 28,-4 32,-18 4,-14 -5,-29 -19,-32 -14,-4 -28,4 -32,18 -4,14 5,29 19,32 m 123,33 v 0 c 14,3 28,-5 32,-19 3,-14 -5,-28 -19,-32 -14,-4 -29,5 -32,19 -4,14 4,28 19,32 m 122,32 v 0 c 14,4 29,-5 32,-19 4,-14 -4,-28 -18,-32 -15,-4 -29,5 -33,19 -3,14 5,28 19,32 m 123,32 v 0 c 14,4 28,-4 32,-18 4,-14 -5,-29 -19,-33 -14,-3 -28,5 -32,19 -4,14 5,28 19,32 m 122,32 v 0 c 15,4 29,-4 33,-18 3,-14 -5,-29 -19,-32 -14,-4 -29,4 -32,18 -4,14 4,29 18,32 m 123,33 v 0 c 14,3 29,-5 32,-19 4,-14 -4,-28 -19,-32 -14,-4 -28,5 -32,19 -3,14 5,28 19,32 m 123,32 v 0 c 14,4 28,-5 32,-19 4,-14 -5,-28 -19,-32 -14,-3 -28,5 -32,19 -4,14 5,28 19,32 m 122,32 v 0 c 14,4 29,-4 33,-18 3,-14 -5,-29 -19,-32 -14,-4 -29,4 -32,18 -4,14 4,29 18,32 m 123,33 v 0 c 14,3 29,-5 32,-19 4,-14 -5,-28 -19,-32 -14,-4 -28,5 -32,19 -3,14 5,28 19,32 m 123,32 v 0 c 14,4 28,-5 32,-19 4,-14 -5,-28 -19,-32 -14,-4 -28,5 -32,19 -4,14 5,28 19,32 m 122,32 v 0 c 14,4 29,-4 33,-18 3,-14 -5,-29 -19,-33 -14,-3 -29,5 -32,19 -4,14 4,29 18,32 m 123,33 v 0 c 14,3 28,-5 32,-19 4,-14 -5,-29 -19,-32 -14,-4 -28,4 -32,18 -4,14 5,29 19,33 m 123,32 v 0 c 14,3 28,-5 32,-19 4,-14 -5,-28 -19,-32 -14,-4 -28,5 -32,19 -4,14 5,28 19,32 m 122,32 v 0 c 14,4 29,-5 32,-19 4,-14 -4,-28 -18,-32 -14,-3 -29,5 -33,19 -3,14 5,28 19,32 m 123,32 v 0 c 14,4 28,-4 32,-18 4,-14 -5,-29 -19,-32 -14,-4 -28,4 -32,18 -4,14 5,29 19,32 m 123,33 v 0 c 14,3 28,-5 32,-19 3,-14 -5,-28 -19,-32 -14,-4 -29,5 -32,19 -4,14 5,28 19,32 m 122,32 v 0 c 14,4 29,-5 32,-19 4,-14 -4,-28 -18,-32 -14,-3 -29,5 -33,19 -3,14 5,28 19,32 m 123,32 v 0 c 14,4 28,-4 32,-18 4,-14 -5,-29 -19,-33 -14,-3 -28,5 -32,19 -4,14 5,29 19,32 m 123,33 v 0 c 14,3 28,-5 32,-19 3,-14 -5,-29 -19,-32 -14,-4 -29,4 -32,18 -4,14 4,29 19,33 m 122,32 v 0 c 14,4 29,-5 32,-19 4,-14 -4,-28 -18,-32 -15,-4 -29,5 -33,19 -3,14 5,28 19,32 m 123,32 v 0 c 14,4 28,-5 32,-19 4,-14 -5,-28 -19,-32 -14,-3 -28,5 -32,19 -4,14 5,28 19,32 m -2608,-556 v 0 c 14,4 29,-5 32,-19 4,-14 -4,-28 -19,-32 -14,-3 -28,5 -32,19 -3,14 5,28 19,32 m 123,32 v 0 c 14,4 28,-4 32,-18 4,-14 -5,-29 -19,-32 -14,-4 -28,4 -32,18 -4,14 5,29 19,32 m 122,33 v 0 c 15,3 29,-5 33,-19 3,-14 -5,-28 -19,-32 -14,-4 -29,5 -32,19 -4,14 4,28 18,32 m 123,32 v 0 c 14,4 29,-5 32,-19 4,-14 -5,-28 -19,-32 -14,-4 -28,5 -32,19 -3,14 5,28 19,32 m 123,32 v 0 c 14,4 28,-4 32,-18 4,-14 -5,-29 -19,-33 -14,-3 -28,5 -32,19 -4,14 5,29 19,32 m 122,33 v 0 c 14,3 29,-5 33,-19 3,-14 -5,-29 -19,-32 -14,-4 -29,4 -32,18 -4,14 4,29 18,33 m 123,32 v 0 c 14,3 28,-5 32,-19 4,-14 -5,-28 -19,-32 -14,-4 -28,5 -32,19 -4,14 5,28 19,32 m 123,32 v 0 c 14,4 28,-5 32,-19 3,-14 -5,-28 -19,-32 -14,-3 -28,5 -32,19 -4,14 5,28 19,32 m 122,32 v 0 c 14,4 29,-4 32,-18 4,-14 -4,-29 -18,-32 -14,-4 -29,4 -33,18 -3,14 5,29 19,32 m 123,33 v 0 c 14,3 28,-5 32,-19 4,-14 -5,-28 -19,-32 -14,-4 -28,5 -32,19 -4,14 5,28 19,32 m 123,32 v 0 c 14,4 28,-5 32,-19 3,-14 -5,-28 -19,-32 -14,-3 -29,5 -32,19 -4,14 5,28 19,32 m 122,32 v 0 c 14,4 29,-4 32,-18 4,-14 -4,-29 -18,-32 -14,-4 -29,4 -33,18 -3,14 5,29 19,32 m 123,33 v 0 c 14,3 28,-5 32,-19 4,-14 -5,-29 -19,-32 -14,-4 -28,4 -32,18 -4,14 5,29 19,33 m 123,32 v 0 c 14,4 28,-5 32,-19 3,-14 -5,-28 -19,-32 -14,-4 -29,5 -32,19 -4,14 4,28 19,32 m 122,32 v 0 c 14,4 29,-5 32,-19 4,-14 -4,-28 -18,-32 -15,-3 -29,5 -33,19 -3,14 5,28 19,32 m 123,32 v 0 c 14,4 28,-4 32,-18 4,-14 -5,-29 -19,-32 -14,-4 -28,4 -32,18 -4,14 5,29 19,32 m 122,33 v 0 c 15,3 29,-5 33,-19 3,-14 -5,-28 -19,-32 -14,-4 -29,5 -32,19 -4,14 4,28 18,32 m 123,32 v 0 c 14,4 29,-5 32,-19 4,-14 -4,-28 -19,-32 -14,-3 -28,5 -32,19 -3,14 5,28 19,32 m 123,32 v 0 c 14,4 28,-4 32,-18 4,-14 -5,-29 -19,-32 -14,-4 -28,4 -32,18 -4,14 5,29 19,32 m 122,33 v 0 c 14,3 29,-5 33,-19 3,-14 -5,-28 -19,-32 -14,-4 -29,4 -32,18 -4,15 4,29 18,33 m 123,32 v 0 c 14,4 29,-5 32,-19 4,-14 -5,-28 -19,-32 -14,-4 -28,5 -32,19 -3,14 5,28 19,32 m 123,32 v 0 c 14,4 28,-4 32,-19 4,-14 -5,-28 -19,-32 -14,-3 -28,5 -32,19 -4,14 5,28 19,32 m -2608,-556 v 0 c 14,4 28,-5 32,-19 4,-14 -5,-28 -19,-32 -14,-3 -28,5 -32,19 -4,14 5,28 19,32 m 123,32 v 0 c 14,4 28,-4 32,-18 3,-14 -5,-29 -19,-32 -14,-4 -28,4 -32,18 -4,14 5,29 19,32 m 122,33 v 0 c 14,3 29,-5 32,-19 4,-14 -4,-28 -18,-32 -14,-4 -29,5 -33,19 -3,14 5,28 19,32 m 123,32 v 0 c 14,4 28,-5 32,-19 4,-14 -5,-28 -19,-32 -14,-3 -28,5 -32,19 -4,14 5,28 19,32 m 123,32 v 0 c 14,4 28,-4 32,-18 3,-14 -5,-29 -19,-32 -14,-4 -29,4 -32,18 -4,14 5,29 19,32 m 122,33 v 0 c 14,3 29,-5 32,-19 4,-14 -4,-28 -18,-32 -14,-4 -29,4 -33,18 -3,14 5,29 19,33 m 123,32 v 0 c 14,4 28,-5 32,-19 4,-14 -5,-28 -19,-32 -14,-4 -28,5 -32,19 -4,14 5,28 19,32 m 123,32 v 0 c 14,4 28,-5 32,-19 3,-14 -5,-28 -19,-32 -14,-3 -29,5 -32,19 -4,14 4,28 19,32 m 122,32 v 0 c 14,4 29,-4 32,-18 4,-14 -4,-29 -18,-32 -15,-4 -29,4 -33,18 -3,14 5,29 19,32 m 123,33 v 0 c 14,3 28,-5 32,-19 4,-14 -5,-28 -19,-32 -14,-4 -28,5 -32,19 -4,14 5,28 19,32 m 122,32 v 0 c 15,4 29,-5 33,-19 3,-14 -5,-28 -19,-32 -14,-3 -29,5 -32,19 -4,14 4,28 18,32 m 123,32 v 0 c 14,4 29,-4 32,-18 4,-14 -4,-29 -19,-32 -14,-4 -28,4 -32,18 -3,14 5,29 19,32 m 123,33 v 0 c 14,3 28,-5 32,-19 4,-14 -5,-28 -19,-32 -14,-4 -28,4 -32,18 -4,15 5,29 19,33 m 122,32 v 0 c 14,4 29,-5 33,-19 3,-14 -5,-28 -19,-32 -14,-4 -29,5 -32,19 -4,14 4,28 18,32 m 123,32 v 0 c 14,4 29,-4 32,-19 4,-14 -5,-28 -19,-32 -14,-3 -28,5 -32,19 -3,14 5,28 19,32 m 123,32 v 0 c 14,4 28,-4 32,-18 4,-14 -5,-29 -19,-32 -14,-4 -28,4 -32,18 -4,14 5,29 19,32 m 122,33 v 0 c 14,3 29,-5 32,-19 4,-14 -4,-28 -18,-32 -14,-4 -29,5 -32,19 -4,14 4,28 18,32 m 123,32 v 0 c 14,4 28,-5 32,-19 4,-14 -5,-28 -19,-32 -14,-3 -28,5 -32,19 -4,14 5,28 19,32 m 123,32 v 0 c 14,4 28,-4 32,-18 3,-14 -5,-29 -19,-32 -14,-4 -29,4 -32,18 -4,14 5,29 19,32 m 122,33 v 0 c 14,3 29,-5 32,-19 4,-14 -4,-28 -18,-32 -14,-4 -29,5 -33,19 -3,14 5,28 19,32 m 123,32 v 0 c 14,4 28,-5 32,-19 4,-14 -5,-28 -19,-32 -14,-4 -28,5 -32,19 -4,14 5,28 19,32 m -2608,-556 v 0 c 14,4 29,-5 32,-19 4,-14 -4,-28 -18,-32 -14,-4 -29,5 -33,19 -3,14 5,28 19,32 m 123,32 v 0 c 14,4 28,-5 32,-19 4,-14 -5,-28 -19,-32 -14,-3 -28,5 -32,19 -4,14 5,28 19,32 m 123,32 v 0 c 14,4 28,-4 32,-18 3,-14 -5,-29 -19,-32 -14,-4 -29,4 -32,18 -4,14 4,29 19,32 m 122,33 v 0 c 14,3 29,-5 32,-19 4,-14 -4,-28 -18,-32 -15,-4 -29,5 -33,19 -3,14 5,28 19,32 m 123,32 v 0 c 14,4 28,-5 32,-19 4,-14 -5,-28 -19,-32 -14,-3 -28,5 -32,19 -4,14 5,28 19,32 m 122,32 v 0 c 15,4 29,-4 33,-18 3,-14 -5,-29 -19,-32 -14,-4 -29,4 -32,18 -4,14 4,29 18,32 m 123,33 v 0 c 14,3 29,-5 32,-19 4,-14 -4,-28 -19,-32 -14,-4 -28,5 -32,19 -3,14 5,28 19,32 m 123,32 v 0 c 14,4 28,-5 32,-19 4,-14 -5,-28 -19,-32 -14,-4 -28,5 -32,19 -4,14 5,28 19,32 m 122,32 v 0 c 14,4 29,-4 33,-18 3,-14 -5,-29 -19,-33 -14,-3 -29,5 -32,19 -4,14 4,28 18,32 m 123,32 v 0 c 14,4 29,-4 32,-18 4,-14 -5,-29 -19,-32 -14,-4 -28,4 -32,18 -3,14 5,29 19,32 m 123,33 v 0 c 14,3 28,-5 32,-19 4,-14 -5,-28 -19,-32 -14,-4 -28,5 -32,19 -4,14 5,28 19,32 m 122,32 v 0 c 14,4 29,-5 32,-19 4,-14 -4,-28 -18,-32 -14,-3 -29,5 -33,19 -3,14 5,28 19,32 m 123,32 v 0 c 14,4 28,-4 32,-18 4,-14 -5,-29 -19,-32 -14,-4 -28,4 -32,18 -4,14 5,29 19,32 m 123,33 v 0 c 14,3 28,-5 32,-19 3,-14 -5,-28 -19,-32 -14,-4 -29,5 -32,19 -4,14 5,28 19,32 m 122,32 v 0 c 14,4 29,-5 32,-19 4,-14 -4,-28 -18,-32 -14,-4 -29,5 -33,19 -3,14 5,28 19,32 m 123,32 v 0 c 14,4 28,-4 32,-18 4,-14 -5,-29 -19,-33 -14,-3 -28,5 -32,19 -4,14 5,28 19,32 m 123,32 v 0 c 14,4 28,-4 32,-18 3,-14 -5,-29 -19,-32 -14,-4 -29,4 -32,18 -4,14 4,29 19,32 m 122,33 v 0 c 14,3 29,-5 32,-19 4,-14 -4,-28 -18,-32 -15,-4 -29,5 -33,19 -3,14 5,28 19,32 m 123,32 v 0 c 14,4 28,-5 32,-19 4,-14 -5,-28 -19,-32 -14,-3 -28,5 -32,19 -4,14 5,28 19,32 m 122,32 v 0 c 15,4 29,-4 33,-18 3,-14 -5,-29 -19,-32 -14,-4 -29,4 -32,18 -4,14 4,29 18,32 m 123,33 v 0 c 14,3 29,-5 32,-19 4,-14 -4,-28 -19,-32 -14,-4 -28,5 -32,19 -3,14 5,28 19,32 m 859,226 v 0 c 14,3 28,-5 32,-19 3,-14 -5,-28 -19,-32 -14,-4 -28,5 -32,19 -4,14 5,28 19,32 m 122,32 v 0 c 14,4 29,-5 32,-19 4,-14 -4,-28 -18,-32 -14,-3 -29,5 -33,19 -3,14 5,28 19,32 m 246,65 v 0 c 14,3 28,-5 32,-19 3,-14 -5,-28 -19,-32 -14,-4 -29,4 -32,18 -4,14 5,29 19,33 m -3712,-847 v 0 c 14,4 29,-5 32,-19 4,-14 -4,-28 -19,-32 -14,-4 -28,5 -32,19 -3,14 5,28 19,32 m 123,32 v 0 c 14,4 28,-4 32,-18 4,-14 -5,-29 -19,-33 -14,-3 -28,5 -32,19 -4,14 5,28 19,32 m 122,32 v 0 c 14,4 29,-4 33,-18 3,-14 -5,-29 -19,-32 -14,-4 -29,4 -32,18 -4,14 4,29 18,32 m 123,33 v 0 c 14,3 29,-5 32,-19 4,-14 -5,-28 -19,-32 -14,-4 -28,5 -32,19 -3,14 5,28 19,32 m 123,32 v 0 c 14,4 28,-5 32,-19 4,-14 -5,-28 -19,-32 -14,-3 -28,5 -32,19 -4,14 5,28 19,32 m 122,32 v 0 c 14,4 29,-4 32,-18 4,-14 -4,-29 -18,-32 -14,-4 -29,4 -33,18 -3,14 5,29 19,32 m 123,33 v 0 c 14,3 28,-5 32,-19 4,-14 -5,-28 -19,-32 -14,-4 -28,5 -32,19 -4,14 5,28 19,32 m 123,32 v 0 c 14,4 28,-5 32,-19 3,-14 -5,-28 -19,-32 -14,-4 -29,5 -32,19 -4,14 5,28 19,32 m 122,32 v 0 c 14,4 29,-4 32,-18 4,-14 -4,-29 -18,-33 -14,-3 -29,5 -33,19 -3,14 5,28 19,32 m 123,32 v 0 c 14,4 28,-4 32,-18 4,-14 -5,-29 -19,-32 -14,-4 -28,4 -32,18 -4,14 5,29 19,32 m 123,33 v 0 c 14,3 28,-5 32,-19 3,-14 -5,-28 -19,-32 -14,-4 -29,5 -32,19 -4,14 4,28 19,32 m 122,32 v 0 c 14,4 29,-5 32,-19 4,-14 -4,-28 -18,-32 -15,-3 -29,5 -33,19 -3,14 5,28 19,32 m 123,32 v 0 c 14,4 28,-4 32,-18 4,-14 -5,-29 -19,-32 -14,-4 -28,4 -32,18 -4,14 5,29 19,32 m 122,33 v 0 c 15,3 29,-5 33,-19 3,-14 -5,-28 -19,-32 -14,-4 -29,5 -32,19 -4,14 4,28 18,32 m 123,32 v 0 c 14,4 29,-5 32,-19 4,-14 -4,-28 -19,-32 -14,-4 -28,5 -32,19 -3,14 5,28 19,32 m 123,32 v 0 c 14,4 28,-4 32,-18 4,-14 -5,-29 -19,-33 -14,-3 -28,5 -32,19 -4,14 5,29 19,32 m 122,33 v 0 c 14,3 29,-5 33,-19 3,-14 -5,-29 -19,-32 -14,-4 -29,4 -32,18 -4,14 4,29 18,33 m 123,32 v 0 c 14,4 29,-5 32,-19 4,-14 -4,-28 -19,-32 -14,-4 -28,5 -32,19 -3,14 5,28 19,32 m 123,32 v 0 c 14,4 28,-5 32,-19 4,-14 -5,-28 -19,-32 -14,-3 -28,5 -32,19 -4,14 5,28 19,32 m 122,32 v 0 c 14,4 29,-4 33,-18 3,-14 -5,-29 -19,-32 -14,-4 -29,4 -32,18 -4,14 4,29 18,32 m 123,33 v 0 c 14,3 28,-5 32,-19 4,-14 -5,-28 -19,-32 -14,-4 -28,5 -32,19 -4,14 5,28 19,32 m 736,193 v 0 c 14,4 28,-4 32,-18 4,-14 -5,-29 -19,-32 -14,-4 -28,4 -32,18 -4,14 5,29 19,32 m 123,33 v 0 c 14,3 28,-5 32,-19 3,-14 -5,-28 -19,-32 -14,-4 -29,5 -32,19 -4,14 4,28 19,32 m 122,32 v 0 c 14,4 29,-5 32,-19 4,-14 -4,-28 -18,-32 -15,-3 -29,5 -33,19 -3,14 5,28 19,32 m -3466,-782 v 0 c 14,4 28,-5 32,-19 4,-14 -5,-28 -19,-32 -14,-4 -28,5 -32,19 -4,14 5,28 19,32 m 123,32 v 0 c 14,4 28,-4 32,-18 3,-14 -5,-29 -19,-33 -14,-3 -29,5 -32,19 -4,14 5,29 19,32 m 122,33 v 0 c 14,3 29,-5 32,-19 4,-14 -4,-29 -18,-32 -14,-4 -29,4 -33,18 -3,14 5,29 19,33 m 123,32 v 0 c 14,4 28,-5 32,-19 4,-14 -5,-28 -19,-32 -14,-4 -28,5 -32,19 -4,14 5,28 19,32 m 123,32 v 0 c 14,4 28,-5 32,-19 3,-14 -5,-28 -19,-32 -14,-3 -29,5 -32,19 -4,14 4,28 19,32 m 122,32 v 0 c 14,4 29,-4 32,-18 4,-14 -4,-29 -18,-32 -15,-4 -29,4 -33,18 -3,14 5,29 19,32 m 123,33 v 0 c 14,3 28,-5 32,-19 4,-14 -5,-28 -19,-32 -14,-4 -28,5 -32,19 -4,14 5,28 19,32 m 122,32 v 0 c 15,4 29,-5 33,-19 3,-14 -5,-28 -19,-32 -14,-3 -29,5 -32,19 -4,14 4,28 18,32 m 123,32 v 0 c 14,4 29,-4 32,-18 4,-14 -4,-29 -19,-32 -14,-4 -28,4 -32,18 -3,14 5,29 19,32 m 123,33 v 0 c 14,3 28,-5 32,-19 4,-14 -5,-29 -19,-32 -14,-4 -28,4 -32,18 -4,14 5,29 19,33 m 122,32 v 0 c 14,4 29,-5 33,-19 3,-14 -5,-28 -19,-32 -14,-4 -29,5 -32,19 -4,14 4,28 18,32 m 123,32 v 0 c 14,4 29,-5 32,-19 4,-14 -5,-28 -19,-32 -14,-3 -28,5 -32,19 -3,14 5,28 19,32 m 123,32 v 0 c 14,4 28,-4 32,-18 4,-14 -5,-29 -19,-32 -14,-4 -28,4 -32,18 -4,14 5,29 19,32 m 122,33 v 0 c 14,3 29,-5 33,-19 3,-14 -5,-28 -19,-32 -14,-4 -29,5 -32,19 -4,14 4,28 18,32 m 123,32 v 0 c 14,4 28,-5 32,-19 4,-14 -5,-28 -19,-32 -14,-3 -28,5 -32,19 -4,14 5,28 19,32 m 123,32 v 0 c 14,4 28,-4 32,-18 3,-14 -5,-29 -19,-32 -14,-4 -28,4 -32,18 -4,14 5,29 19,32 m 122,33 v 0 c 14,3 29,-5 32,-19 4,-14 -4,-28 -18,-32 -14,-4 -29,4 -33,18 -3,15 5,29 19,33 m 123,32 v 0 c 14,4 28,-5 32,-19 4,-14 -5,-28 -19,-32 -14,-4 -28,5 -32,19 -4,14 5,28 19,32 m 123,32 v 0 c 14,4 28,-4 32,-19 3,-14 -5,-28 -19,-32 -14,-3 -29,5 -32,19 -4,14 5,28 19,32 m 122,32 v 0 c 14,4 29,-4 32,-18 4,-14 -4,-29 -18,-32 -14,-4 -29,4 -33,18 -3,14 5,29 19,32 m 123,33 v 0 c 14,3 28,-5 32,-19 4,-14 -5,-28 -19,-32 -14,-4 -28,5 -32,19 -4,14 5,28 19,32 m -2608,-556 v 0 c 14,3 29,-5 32,-19 4,-14 -4,-28 -18,-32 -15,-4 -29,5 -33,19 -3,14 5,28 19,32 m 123,32 v 0 c 14,4 28,-5 32,-19 4,-14 -5,-28 -19,-32 -14,-3 -28,5 -32,19 -4,14 5,28 19,32 m 122,32 v 0 c 15,4 29,-4 33,-18 3,-14 -5,-29 -19,-32 -14,-4 -29,4 -32,18 -4,14 4,29 18,32 m 123,33 v 0 c 14,3 29,-5 32,-19 4,-14 -4,-28 -19,-32 -14,-4 -28,4 -32,18 -3,14 5,29 19,33 m 123,32 v 0 c 14,4 28,-5 32,-19 4,-14 -5,-28 -19,-32 -14,-4 -28,5 -32,19 -4,14 5,28 19,32 m 122,32 v 0 c 14,4 29,-5 33,-19 3,-14 -5,-28 -19,-32 -14,-3 -29,5 -32,19 -4,14 4,28 18,32 m 123,32 v 0 c 14,4 29,-4 32,-18 4,-14 -5,-29 -19,-32 -14,-4 -28,4 -32,18 -3,14 5,29 19,32 m 123,33 v 0 c 14,3 28,-5 32,-19 4,-14 -5,-28 -19,-32 -14,-4 -28,5 -32,19 -4,14 5,28 19,32 m 122,32 v 0 c 14,4 29,-5 33,-19 3,-14 -5,-28 -19,-32 -14,-3 -29,5 -32,19 -4,14 4,28 18,32 m 123,32 v 0 c 14,4 28,-4 32,-18 4,-14 -5,-29 -19,-32 -14,-4 -28,4 -32,18 -4,14 5,29 19,32 m 123,33 v 0 c 14,3 28,-5 32,-19 3,-14 -5,-28 -19,-32 -14,-4 -28,4 -32,18 -4,15 5,29 19,33 m 122,32 v 0 c 14,4 29,-5 32,-19 4,-14 -4,-28 -18,-32 -14,-4 -29,5 -33,19 -3,14 5,28 19,32 m 123,32 v 0 c 14,4 28,-4 32,-19 4,-14 -5,-28 -19,-32 -14,-3 -28,5 -32,19 -4,14 5,28 19,32 m 123,32 v 0 c 14,4 28,-4 32,-18 3,-14 -5,-29 -19,-32 -14,-4 -29,4 -32,18 -4,14 5,29 19,32 m 122,33 v 0 c 14,3 29,-5 32,-19 4,-14 -4,-28 -18,-32 -15,-4 -29,5 -33,19 -3,14 5,28 19,32 m 123,32 v 0 c 14,4 28,-5 32,-19 4,-14 -5,-28 -19,-32 -14,-3 -28,5 -32,19 -4,14 5,28 19,32 m 123,32 v 0 c 14,4 28,-4 32,-18 3,-14 -5,-29 -19,-32 -14,-4 -29,4 -32,18 -4,14 4,29 19,32 m 122,33 v 0 c 14,3 29,-5 32,-19 4,-14 -4,-28 -18,-32 -15,-4 -29,5 -33,19 -3,14 5,28 19,32 m 123,32 v 0 c 14,4 28,-5 32,-19 4,-14 -5,-28 -19,-32 -14,-4 -28,5 -32,19 -4,14 5,28 19,32 m 122,32 v 0 c 15,4 29,-4 33,-18 3,-14 -5,-29 -19,-33 -14,-3 -29,5 -32,19 -4,14 4,28 18,32 m 123,32 v 0 c 14,4 29,-4 32,-18 4,-14 -4,-29 -19,-32 -14,-4 -28,4 -32,18 -3,14 5,29 19,32 m 123,33 v 0 c 14,3 28,-5 32,-19 4,-14 -5,-28 -19,-32 -14,-4 -28,5 -32,19 -4,14 5,28 19,32 m 122,32 v 0 c 14,4 29,-5 33,-19 3,-14 -5,-28 -19,-32 -14,-3 -29,5 -32,19 -4,14 4,28 18,32 m 368,97 v 0 c 14,4 29,-5 32,-19 4,-14 -4,-28 -18,-32 -14,-4 -29,5 -33,19 -3,14 5,28 19,32 m -2975,-653 v 0 c 14,4 28,-5 32,-19 4,-14 -5,-28 -19,-32 -14,-3 -28,5 -32,19 -4,14 5,28 19,32 m 122,32 v 0 c 14,4 29,-4 33,-18 3,-14 -5,-29 -19,-32 -14,-4 -29,4 -32,18 -4,14 4,29 18,32 m 123,33 v 0 c 14,3 28,-5 32,-19 4,-14 -5,-28 -19,-32 -14,-4 -28,4 -32,18 -4,15 5,29 19,33 m 123,32 v 0 c 14,4 28,-5 32,-19 3,-14 -5,-28 -19,-32 -14,-4 -28,5 -32,19 -4,14 5,28 19,32 m 122,32 v 0 c 14,4 29,-4 32,-18 4,-15 -4,-29 -18,-33 -14,-3 -29,5 -33,19 -3,14 5,28 19,32 m 123,32 v 0 c 14,4 28,-4 32,-18 4,-14 -5,-29 -19,-32 -14,-4 -28,4 -32,18 -4,14 5,29 19,32 m 123,33 v 0 c 14,3 28,-5 32,-19 3,-14 -5,-28 -19,-32 -14,-4 -29,5 -32,19 -4,14 5,28 19,32 m 122,32 v 0 c 14,4 29,-5 32,-19 4,-14 -4,-28 -18,-32 -14,-3 -29,5 -33,19 -3,14 5,28 19,32 m 123,32 v 0 c 14,4 28,-4 32,-18 4,-14 -5,-29 -19,-32 -14,-4 -28,4 -32,18 -4,14 5,29 19,32 m 123,33 v 0 c 14,3 28,-5 32,-19 3,-14 -5,-28 -19,-32 -14,-4 -29,5 -32,19 -4,14 4,28 19,32 m 122,32 v 0 c 14,4 29,-5 32,-19 4,-14 -4,-28 -18,-32 -15,-4 -29,5 -33,19 -3,14 5,28 19,32 m 123,32 v 0 c 14,4 28,-4 32,-18 4,-14 -5,-29 -19,-33 -14,-3 -28,5 -32,19 -4,14 5,28 19,32 m 122,32 v 0 c 15,4 29,-4 33,-18 3,-14 -5,-29 -19,-32 -14,-4 -29,4 -32,18 -4,14 4,29 18,32 m 123,33 v 0 c 14,3 29,-5 32,-19 4,-14 -4,-28 -19,-32 -14,-4 -28,5 -32,19 -3,14 5,28 19,32 m 123,32 v 0 c 14,4 28,-5 32,-19 4,-14 -5,-28 -19,-32 -14,-3 -28,5 -32,19 -4,14 5,28 19,32 m 122,32 v 0 c 14,4 29,-4 33,-18 3,-14 -5,-29 -19,-32 -14,-4 -29,4 -32,18 -4,14 4,29 18,32 m 123,33 v 0 c 14,3 29,-5 32,-19 4,-14 -5,-28 -19,-32 -14,-4 -28,5 -32,19 -3,14 5,28 19,32 m 123,32 v 0 c 14,4 28,-5 32,-19 4,-14 -5,-28 -19,-32 -14,-4 -28,5 -32,19 -4,14 5,28 19,32 m 122,32 v 0 c 14,4 29,-4 32,-18 4,-14 -4,-29 -18,-33 -14,-3 -29,5 -33,19 -3,14 5,29 19,32 m 123,33 v 0 c 14,3 28,-5 32,-19 4,-14 -5,-29 -19,-32 -14,-4 -28,4 -32,18 -4,14 5,29 19,33 m 123,32 v 0 c 14,3 28,-5 32,-19 3,-14 -5,-28 -19,-32 -14,-4 -29,5 -32,19 -4,14 5,28 19,32 m -2363,-492 v 0 c 14,4 29,-4 32,-18 4,-14 -4,-29 -18,-32 -14,-4 -29,4 -33,18 -3,14 5,29 19,32 m 123,33 v 0 c 14,3 28,-5 32,-19 4,-14 -5,-28 -19,-32 -14,-4 -28,5 -32,19 -4,14 5,28 19,32 m 123,32 v 0 c 14,4 28,-5 32,-19 3,-14 -5,-28 -19,-32 -14,-4 -29,5 -32,19 -4,14 4,28 19,32 m 122,32 v 0 c 14,4 29,-4 32,-18 4,-14 -4,-29 -18,-33 -15,-3 -29,5 -33,19 -3,14 5,28 19,32 m 123,32 v 0 c 14,4 28,-4 32,-18 4,-14 -5,-29 -19,-32 -14,-4 -28,4 -32,18 -4,14 5,29 19,32 m 122,33 v 0 c 15,3 29,-5 33,-19 3,-14 -5,-28 -19,-32 -14,-4 -29,5 -32,19 -4,14 4,28 18,32 m 123,32 v 0 c 14,4 29,-5 32,-19 4,-14 -4,-28 -19,-32 -14,-3 -28,5 -32,19 -3,14 5,28 19,32 m 123,32 v 0 c 14,4 28,-4 32,-18 4,-14 -5,-29 -19,-32 -14,-4 -28,4 -32,18 -4,14 5,29 19,32 m 122,33 v 0 c 14,3 29,-5 33,-19 3,-14 -5,-28 -19,-32 -14,-4 -29,5 -32,19 -4,14 4,28 18,32 m 123,32 v 0 c 14,4 29,-5 32,-19 4,-14 -5,-28 -19,-32 -14,-4 -28,5 -32,19 -3,14 5,28 19,32 m 123,32 v 0 c 14,4 28,-4 32,-18 4,-14 -5,-29 -19,-33 -14,-3 -28,5 -32,19 -4,14 5,29 19,32 m 122,33 v 0 c 14,3 29,-5 32,-19 4,-14 -4,-29 -18,-32 -14,-4 -29,4 -33,18 -3,14 5,29 19,33 m 123,32 v 0 c 14,4 28,-5 32,-19 4,-14 -5,-28 -19,-32 -14,-4 -28,5 -32,19 -4,14 5,28 19,32 m 123,32 v 0 c 14,4 28,-5 32,-19 3,-14 -5,-28 -19,-32 -14,-3 -29,5 -32,19 -4,14 5,28 19,32 m 122,32 v 0 c 14,4 29,-4 32,-18 4,-14 -4,-29 -18,-32 -14,-4 -29,4 -33,18 -3,14 5,29 19,32 m 123,33 v 0 c 14,3 28,-5 32,-19 4,-14 -5,-28 -19,-32 -14,-4 -28,5 -32,19 -4,14 5,28 19,32 m 123,32 v 0 c 14,4 28,-5 32,-19 3,-14 -5,-28 -19,-32 -14,-3 -29,5 -32,19 -4,14 4,28 19,32 m 122,32 v 0 c 14,4 29,-4 32,-18 4,-14 -4,-29 -18,-32 -15,-4 -29,4 -33,18 -3,14 5,29 19,32 m 123,33 v 0 c 14,3 28,-5 32,-19 4,-14 -5,-28 -19,-32 -14,-4 -28,4 -32,18 -4,14 5,29 19,33 m -2240,-460 v 0 c 14,4 29,-4 32,-18 4,-14 -4,-29 -19,-32 -14,-4 -28,4 -32,18 -3,14 5,29 19,32 m 123,33 v 0 c 14,3 28,-5 32,-19 4,-14 -5,-28 -19,-32 -14,-4 -28,5 -32,19 -4,14 5,28 19,32 m 122,32 v 0 c 14,4 29,-5 33,-19 3,-14 -5,-28 -19,-32 -14,-4 -29,5 -32,19 -4,14 4,28 18,32 m 123,32 v 0 c 14,4 29,-4 32,-18 4,-14 -5,-29 -19,-33 -14,-3 -28,5 -32,19 -3,14 5,29 19,32 m 123,33 v 0 c 14,3 28,-5 32,-19 4,-14 -5,-29 -19,-32 -14,-4 -28,4 -32,18 -4,14 5,29 19,33 m 122,32 v 0 c 14,4 29,-5 32,-19 4,-14 -4,-28 -18,-32 -14,-4 -29,5 -33,19 -3,14 5,28 19,32 m 123,32 v 0 c 14,4 28,-5 32,-19 4,-14 -5,-28 -19,-32 -14,-3 -28,5 -32,19 -4,14 5,28 19,32 m 123,32 v 0 c 14,4 28,-4 32,-18 3,-14 -5,-29 -19,-32 -14,-4 -29,4 -32,18 -4,14 5,29 19,32 m 122,33 v 0 c 14,3 29,-5 32,-19 4,-14 -4,-28 -18,-32 -14,-4 -29,5 -33,19 -3,14 5,28 19,32 m 123,32 v 0 c 14,4 28,-5 32,-19 4,-14 -5,-28 -19,-32 -14,-3 -28,5 -32,19 -4,14 5,28 19,32 m 123,32 v 0 c 14,4 28,-4 32,-18 3,-14 -5,-29 -19,-32 -14,-4 -29,4 -32,18 -4,14 4,29 19,32 m 122,33 v 0 c 14,3 29,-5 32,-19 4,-14 -4,-28 -18,-32 -15,-4 -29,4 -33,18 -3,14 5,29 19,33 m 123,32 v 0 c 14,4 28,-5 32,-19 4,-14 -5,-28 -19,-32 -14,-4 -28,5 -32,19 -4,14 5,28 19,32 m 122,32 v 0 c 15,4 29,-5 33,-19 3,-14 -5,-28 -19,-32 -14,-3 -29,5 -32,19 -4,14 4,28 18,32 m 123,32 v 0 c 14,4 29,-4 32,-18 4,-14 -4,-29 -19,-32 -14,-4 -28,4 -32,18 -3,14 5,29 19,32 m 123,33 v 0 c 14,3 28,-5 32,-19 4,-14 -5,-28 -19,-32 -14,-4 -28,5 -32,19 -4,14 5,28 19,32 m 122,32 v 0 c 14,4 29,-5 33,-19 3,-14 -5,-28 -19,-32 -14,-3 -29,5 -32,19 -4,14 4,28 18,32 m 123,31.999 v 0 c 14,4.001 29,-3.999 32,-17.999 4,-14 -5,-29 -19,-32 -14,-4 -28,4 -32,18 -3,14 5,28.999 19,31.999 m 123,33 v 0 c 14,3.001 28,-4.999 32,-18.999 4,-14.001 -5,-28 -19,-32 -14,-4.001 -28,4 -32,17.999 -4,15.001 5,29 19,33 M -3139,2957 v 0 c 14,4 28,-4 32,-18 4,-14 -5,-29 -19,-32 -14,-4 -28,4 -32,18 -4,14 5,29 19,32 m 123,33 v 0 c 14,3 28,-5 32,-19 3,-14 -5,-28 -19,-32 -14,-4 -29,5 -32,19 -4,14 5,28 19,32 m 122,32 v 0 c 14,4 29,-5 32,-19 4,-14 -4,-28 -18,-32 -14,-3 -29,5 -33,19 -3,14 5,28 19,32 m 123,32 v 0 c 14,4 28,-4 32,-18 4,-14 -5,-29 -19,-32 -14,-4 -28,4 -32,18 -4,14 5,29 19,32 m 123,33 v 0 c 14,3 28,-5 32,-19 3,-14 -5,-28 -19,-32 -14,-4 -29,4 -32,18 -4,14 4,29 19,33 m 122,32 v 0 c 14,4 29,-5 32,-19 4,-14 -4,-28 -18,-32 -15,-4 -29,5 -33,19 -3,14 5,28 19,32 m 123,32 v 0 c 14,4 28,-4 32,-19 4,-14 -5,-28 -19,-32 -14,-3 -28,5 -32,19 -4,14 5,28 19,32 m 122,32 v 0 c 15,4 29,-4 33,-18 3,-14 -5,-29 -19,-32 -14,-4 -29,4 -32,18 -4,14 4,29 18,32 m 123,33 v 0 c 14,3 29,-5 32,-19 4,-14 -4,-28 -19,-32 -14,-4 -28,5 -32,19 -3,14 5,28 19,32 m 123,32 v 0 c 14,4 28,-5 32,-19 4,-14 -5,-28 -19,-32 -14,-3 -28,5 -32,19 -4,14 5,28 19,32 m 122,32 v 0 c 14,4 29,-4 33,-18 3,-14 -5,-29 -19,-32 -14,-4 -29,4 -32,18 -4,14 4,29 18,32 m 123,33 v 0 c 14,3 29,-5 32,-19 4,-14 -4,-28 -19,-32 -14,-4 -28,5 -32,19 -3,14 5,28 19,32 m 123,32 v 0 c 14,4 28,-5 32,-19 4,-14 -5,-28 -19,-32 -14,-4 -28,5 -32,19 -4,14 5,28 19,32 m 122,32 v 0 c 14,3.999 29,-4.001 33,-18 3,-14 -5,-29 -19,-33 -14,-3 -29,5 -32,19 -4,14 4,27.999 18,32 m 123,32 v 0 c 14,3.999 28,-4.001 32,-18 4,-14 -5,-29.001 -19,-32 -14,-4 -28,3.999 -32,18 -4,14 5,28.999 19,32 m 123,33 v 0 c 14,3 28,-5.001 32,-19 3,-14 -5,-28.001 -19,-32 -14,-4 -29,5 -32,19 -4,13.999 5,27.999 19,32 m 122,32 v 0 c 14,3.999 29,-5.001 32,-19 4,-14 -4,-28.001 -18,-32 -14,-3 -29,5 -33,19 -3,13.999 5,27.999 19,32 m -2117,-427 v 0 c 14,4 29,-4 32,-19 4,-14 -4,-28 -18,-32 -15,-3 -29,5 -33,19 -2,14 5,28 19,32 m 123,32 v 0 c 14,4 28,-4 32,-18 4,-14 -5,-29 -19,-32 -14,-4 -28,4 -32,18 -4,14 5,29 19,32 m 122,33 v 0 c 15,3 29,-5 33,-19 3,-14 -5,-28 -19,-32 -14,-4 -29,5 -32,19 -4,14 4,28 18,32 m 123,32 v 0 c 14,4 29,-5 32,-19 4,-14 -4,-28 -19,-32 -14,-3 -28,5 -32,19 -3,14 5,28 19,32 m 123,32 v 0 c 14,4 28,-4 32,-18 4,-14 -5,-29 -19,-32 -14,-4 -28,4 -32,18 -4,14 5,29 19,32 m 122,33 v 0 c 14,3 29,-5 33,-19 3,-14 -5,-28 -19,-32 -14,-4 -29,5 -32,19 -4,14 4,28 18,32 m 123,32 v 0 c 14,4 29,-5 32,-19 4,-14 -5,-28 -19,-32 -14,-4 -28,5 -32,19 -3,14 5,28 19,32 m 123,32 v 0 c 14,4 28,-4 32,-18 4,-14 -5,-29 -19,-33 -14,-3 -28,5 -32,19 -4,14 5,28 19,32 m 122,32 v 0 c 14,4 29,-4 33,-18 3,-14 -5,-29 -19,-32 -14,-4 -29,4 -32,18 -4,14 4,29 18,32 m 123,33 v 0 c 14,3 28,-5 32,-19 4,-14 -5,-28 -19,-32 -14,-4 -28,5 -32,19 -4,14 5,28 19,32 m 123,32 v 0 c 14,3.999 28,-5 32,-19 3,-14 -5,-28 -19,-32 -14,-3 -28,5 -32,19 -4,14 5,28 19,32 m 122,32 v 0 c 14,3.999 29,-4 32,-18.001 4,-13.999 -4,-28.999 -18,-31.999 -14,-4 -29,4 -33,18 -3,13.999 5,29 19,32 m 123,32.999 v 0 c 14,3 28,-4.999 32,-19 4,-13.999 -5,-27.999 -19,-32 -14,-3.999 -28,5.001 -32,19 -4,14 5,28.001 19,32 m 123,32 v 0 c 14,4.001 28,-4.999 32,-19 3,-13.999 -5,-27.999 -19,-32 -14,-3.999 -29,5.001 -32,19 -4,14 4,28.001 19,32 m 122,32 v 0 c 14,4.001 29,-3.999 32,-18 4,-14 -4,-28.999 -18,-33 -14,-2.999 -29,5.001 -33,19 -3,14 5,28.001 19,32 m 123,32 v 0 c 14,4.001 28,-3.999 32,-18 4,-14 -5,-28.999 -19,-32 -14,-3.999 -28,4.001 -32,18 -4,14 5,29.001 19,32 m 123,33 v 0 c 14,3 28,-4.999 32,-19 3,-14 -5,-27.999 -19,-32 -14,-3.999 -29,5.001 -32,19 -4,14.001 4,28.001 19,32 m -1259,-201 v 0 c 14,4.001 28,-4.999 32,-18.999 4,-14 -5,-28 -19,-32 -14,-4 -28,5 -32,19 -4,14 5,28 19,31.999 m 123,32 v 0 c 14,4.001 28,-3.999 32,-17.999 3,-14.001 -5,-29 -19,-33 -14,-3 -29,5 -32,18.999 -4,14.001 4,29 19,32 m 122,33.001 v 0 c 14,3 29,-5 32,-19 4,-14.001 -4,-29 -18,-32 -14,-4.001 -29,3.999 -33,17.999 -3,14.001 5,29 19,33.001 m 123,32 v 0 c 14,3 28,-5 32,-19 4,-14.001 -5,-28.001 -19,-32 -14,-4.001 -28,4.999 -32,19 -4,14 5,27.999 19,32 m 123,31.999 v 0 c 14,4.001 28,-4.999 32,-18.999 3,-14.001 -5,-28 -19,-32 -14,-3.001 -29,4.999 -32,19 -4,14 4,27.999 19,31.999 m 122,32 v 0 c 14,4.001 29,-4 32,-17.999 4,-14.001 -4,-29 -18,-32 -15,-4.001 -29,3.999 -33,17.999 -3,14.001 5,29 19,32 m 123,33.001 v 0 c 14,3 28,-5.001 32,-19 4,-14.001 -5,-28.001 -19,-32 -14,-4.001 -28,4.999 -32,19 -4,14 5,27.999 19,32 m 122,32 v 0 c 15,4 29,-5 33,-19 3,-14.001 -5,-28.001 -19,-32 -14,-4.001 -29,4.999 -32,19 -4,14 4,27.999 18,32 m 123,32 v 0 c 14,4 29,-4.001 32,-18 4,-14 -4,-29.001 -19,-33 -14,-3.001 -28,4.999 -32,19 -3,14 5,28.999 19,32 m 123,33 v 0 c 14,3 28,-5.001 32,-19 4,-14 -5,-29.001 -19,-32 -14,-4.001 -28,3.999 -32,18 -4,14 5,28.999 19,33 m 122,32 v 0 c 14,4 29,-5.001 33,-19 3,-14 -5,-28.001 -19,-32 -14,-4.001 -29,4.999 -32,19 -4,14 4,27.999 18,32 m -1136,-169 v 0 c 15,3.999 29,-4.001 33,-18.001 3,-13.999 -5,-29 -19,-32 -14,-3.999 -29,4.001 -32,18.001 -4,13.999 4,29 18,32 m 123,33 v 0 c 14,2.999 29,-5.001 32,-19.001 4,-13.999 -4,-27.999 -19,-32 -14,-3.999 -28,4.001 -32,18.001 -3,13.999 5,29 19,33 m 123,32 v 0 c 14,3.999 28,-5.001 32,-19.001 4,-13.999 -5,-27.999 -19,-32 -14,-3.999 -28,5.001 -32,19.001 -4,13.999 5,28 19,32 m -155,89.999 v 0 c 14,3.001 28,-4.999 32,-18.999 4,-14.001 -5,-28 -19,-32 -14,-4.001 -28,5 -32,17.999 -4,15.001 5,29.001 19,33" />
          </g>
        </g>
        <g
           transform="scale(0.0749978,-0.0750998)"
           id="g768">
          <g
             transform="translate(7221.0811,-4624.6987)"
             id="g770">
            <path
               id="path772"
               style="fill:#eea97f;fill-opacity:1;fill-rule:nonzero;stroke:none"
               d="m 0,0 v 0 c -14,-4 -28,4 -32,18 -4,14 4.999,29 19,32 C 1,54 15,46 19,32 23,18 14,3 0,0 m 123,32 v 0 C 109,28 94,37 90.999,51 87,65 95,79 109,83 c 15,3 29,-5 33,-19 3,-14 -5,-28 -19,-32 m 32,-122 v 0 c -14,-4 -29,5 -32,19 -4,14 4,28 19,32 14,3 28,-5 32,-19 3,-14 -5,-28 -19,-32 m 31.999,-122 v 0 C 173,-216 159,-207 155,-193 c -4,14 5,28 19,32 14,3 27.999,-5 32,-19 4,-14 -5,-28 -19.001,-32 M -26,-399 v 0 c -14,-3 -29,5 -32,19 -4,14 4,28 19,32 14,4 28,-5 32,-19 3,-14 -5.001,-28 -19,-32 m 123,33 v 0 c -15,-4 -29,4 -33,18 -3,14 4.999,29 19,32 14,4 29,-4 32,-18 4,-14 -4,-29 -18,-32 M 6,-521 v 0 c -14,-4 -28,5 -32,19 -4,14 5,28 19,32 14,4 28,-5 32,-19 4,-14 -5,-28 -19,-32 m 123,32 v 0 c -14,-3 -29,5 -33,19 -3,14 5,29 19,32 14,4 29,-4 32,-18 4,-14 -4,-29 -18,-33 m 32,-122 v 0 c -14,-3 -29,5 -32,19 -4,14 4,28 18,32 15,4 29,-4 33,-18 3,-14 -5,-29 -19,-33 M 70,-765 v 0 c -14,-4 -28,5 -32,19 -4,14 5,28 19,32 14,4 28,-5 32,-19 4,-14 -5,-28 -19,-32 m 130,7 v 0 c -14,-4 -29,5 -33,19 -3,14 4.999,28 19,32 14,3 29,-5 32,-19 4,-14 -4,-28 -18,-32 M -20,-919 v 0 c -14,-4 -29.001,4 -32,18 -4,14 4,29 18,33 14,3 28.999,-5 33,-19 3,-14 -5,-29 -19,-32 m 122,32 v 0 c -14,-4 -28,5 -32,19 -3,14 5,28 19,32 14,4 29,-5 32,-19 4,-14 -5,-28 -19,-32 m 33,-122 v 0 c -15,-4 -29.001,5 -33,19 -3,14 5,28 19,32 14,3 28.999,-5 32,-19 4,-14 -4,-28 -18,-32 m -1563,-542 v 0 c -14,-3 -28,5 -32,19 -4,14 5,28 19,32 14,4 28,-5 32,-19 4,-14 -5,-28 -19,-32 m 123,33 v 0 c -14,-4 -29,4 -32,18 -4,14 4,29 19,32 14,4 28,-4 32,-18 3,-14 -5,-29 -19,-32 m 613,161 v 0 c -14,-4 -28,5 -32,19 -4,14 5,28 19,32 14,3 28,-5 32,-19 4,-14 -5,-28 -19,-32 m 123,32 v 0 c -14,-3 -29,5 -32,19 -4,14 4,28 18,32 15,4 29,-5 33,-19 3,-14 -5,-28 -19,-32 m 122,33 v 0 c -14,-4 -28,4 -32,18 -3,14 5,29 19,32 14,4 29,-4 32,-18 4,-14 -4,-29 -19,-32 m 491,129 v 0 c -14,-4 -28,4 -32,18 -4,14 5,29 19,32 14,4 28,-4 32,-18 4,-14 -5,-29 -19,-32 m 123,32 v 0 c -14,-4 -29,5 -33,19 -3,14 5,28 19,32 14,3 29,-5 32,-19 4,-14 -4,-28 -18,-32 m -1685,-574 v 0 c -14,-4 -29,5 -32,19 -4,14 4,28 18,32 14,3 29,-5 33,-19 3,-14 -5,-28 -19,-32 m 122,32 v 0 c -14,-4 -28,5 -32,19 -3,14 5,28 19,32 14,4 29,-5 32,-19 4,-14 -4,-28 -19,-32 m 123,32 v 0 c -14,-3 -28,5 -32,19 -4,14 5,29 19,32 14,4 28,-4 32,-18 4,-14 -5,-29 -19,-33 m 613,162 v 0 c -14,-4 -28,5 -32,19 -4,14 5,28 19,32 14,3 28,-5 32,-19 4,-14 -5,-28 -19,-32 m 123,32 v 0 c -14,-3 -29,5 -32,19 -4,14 5,28 19,32 14,4 28,-5 32,-19 3,-14 -5,-28 -19,-32 m 123,33 v 0 c -14,-4 -29,4 -33,18 -3,14 5,29 19,32 14,4 29,-4 32,-18 4,-14 -4,-29 -18,-32 m 122,32 v 0 c -14,-4 -28,4 -32,18 -4,14 5,29 19,33 14,3 28,-5 32,-19 4,-14 -5,-28 -19,-32 m 246,64 v 0 c -15,-3 -29,5 -33,19 -3,14 5,28 19,32 14,4 29,-5 32,-19 4,-14 -4,-28 -18,-32 m 122,33 v 0 c -14,-4 -28,4 -32,18 -4,14 5,29 19,32 14,4 27.999,-4 32,-18 4,-14 -5,-29 -19,-32 m 123,32 v 0 c -14,-4 -29,5 -32,19 -4,14 4,28 18,32 15,3 29,-5 33,-19 3,-14 -5,-28 -19,-32 m -1685,-574 v 0 c -14,-4 -29,5 -32,19 -4,14 4,28 19,32 14,3 28,-5 32,-19 3,-14 -5,-28 -19,-32 m 123,32 v 0 c -15,-4 -29,5 -33,19 -3,14 5,28 19,32 14,4 29,-5 32,-19 4,-14 -4,-28 -18,-32 m 122,32 v 0 c -14,-3 -28,5 -32,19 -4,14 5,28 19,32 14,4 28,-4 32,-18 4,-14 -5,-29 -19,-33 m 123,33 v 0 c -14,-4 -29,4 -32,18 -4,14 4,29 18,32 15,4 29,-4 33,-18 3,-14 -5,-29 -19,-32 m 122,32 v 0 c -14,-4 -28,5 -32,19 -3,14 5,28 19,32 14,3 29,-5 32,-19 4,-14 -4,-28 -19,-32 m 123,32 v 0 c -14,-3 -28,5 -32,19 -4,14 5,28 19,32 14,4 28,-5 32,-19 4,-14 -5,-28 -19,-32 m 123,33 v 0 c -14,-4 -29,4 -32,18 -4,14 4,29 18,32 14,4 29,-4 33,-18 3,-14 -5,-29 -19,-32 m 122,32 v 0 c -14,-4 -28,5 -32,19 -3,14 5,28 19,32 14,3 29,-5 32,-19 4,-14 -5,-28 -19,-32 m 123,32 v 0 c -14,-4 -28,5 -32,19 -4,14 5,28 19,32 14,4 28,-5 32,-19 4,-14 -5,-28 -19,-32 m 123,32 v 0 c -14,-3 -29,5 -32,19 -4,14 4,29 18,32 14,4 29,-4 33,-18 3,-14 -5,-29 -19,-33 m 122,33 v 0 c -14,-4 -28,4 -32,18 -4,14 5,29 19,32 14,4 28,-4 32,-18 4,-14 -5,-29 -19,-32 m 123,32 v 0 c -14,-4 -28,5 -32,19 -4,14 5,28 19,32 14,3 28,-5 32,-19 3,-14 -5,-28 -19,-32 m 123,32 v 0 c -14,-3 -29,5 -33,19 -3,14 5,28 19,32 14,4 29,-5 32,-19 4,-14 -4,-28 -18,-32 m 122,33 v 0 c -14,-4 -28,4 -32,18 -4,14 5,29 19,32 14,4 28,-4 32,-18 4,-14 -5,-29 -19,-32 m -1807,-607 v 0 c -14,-3 -29,5 -32,19 -4,14 4,28 18,32 14,4 29,-5 33,-19 3,-14 -5,-28 -19,-32 m 122,33 v 0 c -14,-4 -28,4 -32,18 -3,14 5,29 19,32 14,4 29,-4 32,-18 4,-14 -5,-29 -19,-32 m 123,32 v 0 c -14,-4 -28,4 -32,18 -4,15 5,29 19,33 14,3 28,-5 32,-19 4,-14 -5,-28 -19,-32 m 123,32 v 0 c -14,-4 -29,5 -33,19 -3,14 5,28 19,32 14,4 29,-5 32,-19 4,-14 -4,-28 -18,-32 m 122,32 v 0 c -14,-3 -28,5 -32,19 -4,14 5,28 19,32 14,4 28,-4 32,-19 4,-14 -5,-28 -19,-32 m 123,33 v 0 c -14,-4 -29,4 -32,18 -4,14 5,29 19,32 14,4 28,-4 32,-18 3,-14 -5,-29 -19,-32 m 123,32 v 0 c -14,-4 -29,5 -33,19 -3,14 5,28 19,32 14,3 29,-5 32,-19 4,-14 -4,-28 -18,-32 m 122,32 v 0 c -14,-3 -28,5 -32,19 -4,14 5,28 19,32 14,4 28,-5 32,-19 4,-14 -5,-28 -19,-32 m 123,33 v 0 c -14,-4 -29,4 -32,18 -4,14 4,29 19,32 14,4 28,-4 32,-18 3,-14 -5,-29 -19,-32 m 123,32 v 0 c -15,-4 -29,5 -33,19 -3,14 5,28 19,32 14,3 29,-5 32,-19 4,-14 -4,-28 -18,-32 m 122,32 v 0 c -14,-4 -28,5 -32,19 -4,14 5,28 19,32 14,4 28,-5 32,-19 4,-14 -5,-28 -19,-32 m 123,32 v 0 c -14,-3 -29,5 -32,19 -4,14 4,28 18,32 15,4 29,-4 33,-18 3,-14 -5,-29 -19,-33 m 122,33 v 0 c -14,-4 -28,4 -32,18 -3.001,14 5,29 19,32 14,4 29,-4 32,-18 4,-14 -4,-29 -19,-32 m 123,32 v 0 c -14,-4 -28,5 -32,19 -4,14 5,28 19,32 14,3 28,-5 31.999,-19 4.001,-14 -4.999,-28 -18.999,-32 m 123,32 v 0 c -14,-3 -29,5 -32,19 -4,14 4,28 18,32 14,4 29,-5 33,-19 3,-14 -5.001,-28 -19,-32 m 122,33 v 0 c -14,-4 -28,4 -32,18 -3,14 4.999,29 19,32 14,4 29,-4 32,-18 4,-14 -5,-29 -19,-32 m -2175,-704 v 0 c -14,-3 -29,5 -32,19 -4,14 5,28 19,32 14,4 28,-5 32,-19 3,-14 -5,-28 -19,-32 m 123,33 v 0 c -14,-4 -29,4 -33,18 -3,14 5,29 19,32 14,4 29,-4 32,-18 4,-14 -4,-29 -18,-32 m 122,32 v 0 c -14,-4 -28,5 -32,19 -4,14 5,28 19,32 14,3 28,-5 32,-19 4,-14 -5,-28 -19,-32 m 123,32 v 0 c -14,-3 -29,5 -32,19 -4,14 4,28 19,32 14,4 28,-5 32,-19 3,-14 -5,-28 -19,-32 m 123,32 v 0 c -15,-3 -29,5 -33,19 -3,14 5,29 19,32 14,4 29,-4 32,-18 4,-14 -4,-29 -18,-33 m 122,33 v 0 c -14,-4 -28,4 -32,18 -4,14 5,29 19,33 14,3 28,-5 32,-19 4,-14 -5,-29 -19,-32 m 123,32 v 0 c -14,-4 -29,5 -32,19 -4,14 4,28 18,32 15,4 29,-5 33,-19 3,-14 -5,-28 -19,-32 m 122,32 v 0 c -14,-3 -28,5 -32,19 -3,14 5,28 19,32 14,4 29,-5 32,-19 4,-14 -4,-28 -19,-32 m 123,33 v 0 c -14,-4 -28,4 -32,18 -4,14 5,29 19,32 14,4 28,-4 32,-18 4,-14 -5,-29 -19,-32 m 123,32 v 0 c -14,-4 -29,5 -32,19 -4,14 4,28 18,32 14,3 29,-5 33,-19 3,-14 -5,-28 -19,-32 m 122,32 v 0 c -14,-3 -28,5 -32,19 -3,14 5,28 19,32 14,4 29,-5 32,-19 4,-14 -5,-28 -19,-32 m 123,33 v 0 c -14,-4 -28,4 -32,18 -4,14 5,29 19,32 14,4 28,-4 32,-18 4,-14 -5,-29 -19,-32 m 123,32 v 0 c -14,-4 -29,4 -33,18 -3,14 5,29 19,33 14,3 29,-5 32,-19 4,-14 -4,-28 -18,-32 m 122,32 v 0 c -14,-4 -28,5 -32,19 -4,14 5,28 19,32 14,4 28,-5 32,-19 4,-14 -5,-28 -19,-32 m 123,32 v 0 c -14,-3 -29,5 -32,19 -4,14 5,28 19,32 14,4 28,-5 32,-19 3,-14 -5,-28 -19,-32 m 123,33 v 0 c -14,-4 -29,4 -33,18 -3,14 5,29 19,32 14,4 29,-4 32,-18 4,-14 -4,-29 -18,-32 m 122,32 v 0 c -14,-4 -28,5 -32,19 -4,14 5,28 18.999,32 14.001,3 28.001,-5 32.001,-19 4,-14 -5,-28 -19,-32 m 123,32 v 0 c -14,-3 -29,5 -32,19 -4,14 4,28 19,32 14,4 28,-5 31.999,-19 C 72,-1666 64,-1680 50,-1684 m 123,33 v 0 c -15,-4 -29,4 -33,18 -3,14 5,29 19,32 14,4 29,-4 32,-18 4,-14 -4.001,-29 -18,-32 m -2299,-736 v 0 c -14,-4 -28,5 -32,19 -3,14 5,28 19,32 14,3 29,-5 32,-19 4,-14 -5,-28 -19,-32 m 123,32 v 0 c -14,-3 -28,5 -32,19 -4,14 5,28 19,32 14,4 28,-5 32,-19 4,-14 -5,-28 -19,-32 m 123,33 v 0 c -14,-4 -29,4 -32,18 -4,14 4,29 18,32 14,4 29,-4 33,-18 3,-14 -5,-29 -19,-32 m 122,32 v 0 c -14,-4 -28,5 -32,19 -4,14 5,28 19,32 14,3 28,-5 32,-19 4,-14 -5,-28 -19,-32 m 123,32 v 0 c -14,-4 -28,5 -32,19 -4,14 5,28 19,32 14,4 28,-5 32,-19 3,-14 -5,-28 -19,-32 m 123,32 v 0 c -14,-3 -29,5 -33,19 -3,14 5,28 19,32 14,4 29,-4 32,-18 4,-14 -4,-29 -18,-33 m 122,33 v 0 c -14,-4 -28,4 -32,18 -4,14 5,29 19,32 14,4 28,-4 32,-18 4,-14 -5,-29 -19,-32 m 123,32 v 0 c -14,-4 -29,5 -32,19 -4,14 5,28 19,32 14,3 28,-5 32,-19 3,-14 -5,-28 -19,-32 m 123,32 v 0 c -14,-3 -29,5 -33,19 -3,14 5,28 19,32 14,4 29,-5 32,-19 4,-14 -4,-28 -18,-32 m 122,33 v 0 c -14,-4 -28,4 -32,18 -4,14 5,29 19,32 14,4 28,-4 32,-18 4,-14 -5,-29 -19,-32 m 123,32 v 0 c -14,-4 -29,5 -32,19 -4,14 4,28 19,32 14,3 28,-5 32,-19 3,-14 -5,-28 -19,-32 m 123,32 v 0 c -15,-4 -29,5 -33,19 -3,14 5,28 19,32 14,4 29,-5 32,-19 4,-14 -4,-28 -18,-32 m 122,32 v 0 c -14,-3 -28,5 -32,19 -4,14 5,29 19,32 14,4 28,-4 32,-18 4,-14 -5,-29 -19,-33 m 123,33 v 0 c -14,-4 -29,4 -32,18 -4,14 4,29 18,33 15,3 29,-5 33,-19 3,-14 -5,-29 -19,-32 m 122,32 v 0 c -14,-4 -28,5 -32,19 -3,14 5,28 19,32 14,4 29,-5 32,-19 4,-14 -4,-28 -19,-32 m 123,32 v 0 c -14,-3 -28,5 -32,19 -4,14 5,28 19,32 14,4 28,-5 32,-19 3.999,-14 -5,-28 -19,-32 m 123,33 v 0 c -14,-4 -29,4 -32,18 -4,14 4,29 18,32 14,4 29,-4 33,-18 3,-14 -5,-29 -19,-32 m 122,32 v 0 c -14,-4 -28,5 -32,19 -3,14 5,28 19,32 14,3 29,-5 32,-19 4,-14 -5.001,-28 -19,-32 m 123,32 v 0 c -14,-3 -28.001,5 -32,19 -4,14 5,28 18.999,32 14.001,4 28.001,-5 32.001,-19 4,-14 -5,-28 -19,-32 m 123,33 v 0 c -14,-4 -29,4 -33.001,18 -2.999,14 5.001,29 19.001,32 14,4 29,-4 32,-18 4,-14 -4,-29 -18,-32 m -2298,-736 v 0 c -15,-4 -29,5 -33,19 -3,14 5,28 19,32 14,3 29,-5 32,-19 4,-14 -4,-28 -18,-32 m 122,32 v 0 c -14,-3 -28,5 -32,19 -4,14 5,28 19,32 14,4 28,-5 32,-19 4,-14 -5,-28 -19,-32 m 123,33 v 0 c -14,-4 -29,4 -32,18 -4,14 4,29 18,32 15,4 29,-4 33,-18 3,-14 -5,-29 -19,-32 m 122,32 v 0 c -14,-4 -28,5 -32,19 -3,14 5,28 19,32 14,3 29,-5 32,-19 4,-14 -4,-28 -19,-32 m 123,32 v 0 c -14,-4 -28,5 -32,19 -4,14 5,28 19,32 14,4 28,-5 32,-19 4,-14 -5,-28 -19,-32 m 123,32 v 0 c -14,-3 -29,5 -32,19 -4,14 4,28 18,32 14,4 29,-4 33,-18 3,-14 -5,-29 -19,-33 m 122,33 v 0 c -14,-4 -28,4 -32,18 -3,14 5,29 19,32 14,4 29,-4 32,-18 4,-14 -5,-29 -19,-32 m 123,32 v 0 c -14,-4 -28,5 -32,19 -4,14 5,28 19,32 14,3 28,-5 32,-19 4,-14 -5,-28 -19,-32 m 123,32 v 0 c -14,-3 -29,5 -32,19 -4,14 4,28 18,32 14,4 29,-5 33,-19 3,-14 -5,-28 -19,-32 m 122,33 v 0 c -14,-4 -28,4 -32,18 -4,14 5,29 19,32 14,4 28,-4 32,-18 4,-14 -5,-29 -19,-32 m 123,32 v 0 c -14,-4 -28,5 -32,19 -4,14 5,28 19,32 14,3 28,-5 32,-19 3,-14 -5,-28 -19,-32 m 123,32 v 0 c -14,-4 -29,5 -33,19 -3,14 5,28 19,32 14,4 29,-5 32,-19 4,-14 -4,-28 -18,-32 m 122,32 v 0 c -14,-3 -28,5 -32,19 -4,14 5,28 19,32 14,4 28,-4 32,-18 4,-14 -5,-29 -19,-33 m 123,33 v 0 c -14,-4 -29,4 -32,18 -4,14 5,29 19,32 14,4 28,-4 32,-18 3,-14 -5,-29 -19,-32 m 123,32 v 0 c -14,-4 -29,5 -33,19 -3,14 5,28 19,32 14,3 29,-5 32,-19 4,-14 -4,-28 -18,-32 m 122,32 v 0 c -14,-3 -28,5 -32,19 -4,14 5,28 19,32 14,4 28,-5 32,-19 4,-14 -5,-28 -19,-32 m 123,33 v 0 c -14.001,-4 -29,4 -32,18 -4.001,14 4,29 19,32 14,4 28,-4 32,-18 3,-14 -5,-29 -19,-32 m 123,32 v 0 c -15,-4 -29,5 -33,19 -3,14 5,28 19,32 14,3 29,-5 31.999,-19 C 14,-1942 6,-1956 -8,-1960 m 122,32 v 0 c -14,-4 -28,5 -32,19 -4,14 5,28 19,32 14,4 28,-5 32,-19 4,-14 -5.001,-28 -19,-32 m -2053,-671 v 0 c -14,-3 -28,5 -32,19 -4,14 5,28 19,32 14,4 28,-5 32,-19 4,-14 -5,-28 -19,-32 m 123,33 v 0 c -14,-4 -29,4 -32,18 -4,14 5,29 19,32 14,4 28,-4 32,-18 3,-14 -5,-29 -19,-32 m 123,32 v 0 c -14,-4 -29,4 -33,18 -3,14 5,29 19,33 14,3 29,-5 32,-19 4,-14 -4,-28 -18,-32 m 122,32 v 0 c -14,-4 -28,5 -32,19 -4,14 5,28 19,32 14,4 28,-5 32,-19 4,-14 -5,-28 -19,-32 m 123,32 v 0 c -14,-3 -29,5 -32,19 -4,14 4,28 19,32 14,4 28,-5 32,-19 3,-14 -5,-28 -19,-32 m 123,33 v 0 c -15,-4 -29,4 -33,18 -3,14 5,29 19,32 14,4 29,-4 32,-18 4,-14 -4,-29 -18,-32 m 122,32 v 0 c -14,-4 -28,5 -32,19 -4,14 5,28 19,32 14,3 28,-5 32,-19 4,-14 -5,-28 -19,-32 m 123,32 v 0 c -14,-3 -29,5 -32,19 -4,14 4,28 18,32 15,4 29,-5 33,-19 3,-14 -5,-28 -19,-32 m 122,33 v 0 c -14,-4 -28,4 -32,18 -3,14 5,29 19,32 14,4 29,-4 32,-18 4,-14 -4,-29 -19,-32 m 123,32 v 0 c -14,-4 -28,4 -32,18 -4,15 5,29 19,33 14,3 28,-5 32,-19 4,-14 -5,-28 -19,-32 m 123,32 v 0 c -14,-4 -29,5 -32,19 -4,14 4,28 18,32 14,4 29,-5 33,-19 3,-14 -5,-28 -19,-32 m 122,32 v 0 c -14,-3 -28,5 -32,19 -3,14 5,28 19,32 14,4 29,-4 32,-19 4,-14 -5,-28 -19,-32 m 123,33 v 0 c -14,-4 -28,4 -32,18 -4,14 5,29 19,32 14,4 28,-4 32,-18 4,-14 -5,-29 -19,-32 m 123,32 v 0 c -14,-4 -29,5 -32,19 -4,14 4,28 18,32 14,3 29,-5 33,-19 3,-14 -5,-28 -19,-32 m 122,32 v 0 c -14,-3 -28,5 -32,19 -4,14 5,28 19,32 14,4 28,-5 32,-19 4,-14 -5,-28 -19,-32 m 123,33 v 0 c -14,-4 -28,4 -32,18 -4,14 5,29 19,32 14,4 28,-4 32,-18 4,-14 -5,-29 -19,-32 m 123,32 v 0 c -14.001,-4 -29.001,5 -33,19 -3.001,14 5,28 18.999,32 14.001,3 29.001,-5 32.001,-19 4,-14 -4,-28 -18,-32 m 122,32 v 0 c -14,-4 -28,5 -32,19 -4,14 5,28 19,32 14,4 28,-5 31.999,-19 C 169,-2032 160,-2046 146,-2050 m -1317,-477 v 0 c -14,-4 -28,5 -32,19 -4,14 5,28 19,32 14,3 28,-5 32,-19 4,-14 -5,-28 -19,-32 m 123,32 v 0 c -14,-3 -29,5 -32,19 -4,14 5,28 19,32 14,4 28,-5 32,-19 3,-14 -5,-28 -19,-32 m 123,33 v 0 c -14,-4 -29,4 -33,18 -3,14 5,29 19,32 14,4 29,-4 32,-18 4,-14 -4,-29 -18,-32 m 122,32 v 0 c -14,-4 -28,4 -32,18 -4,14 5,29 19,33 14,3 28,-5 32,-19 4,-14 -5,-28 -19,-32 m 123,32 v 0 c -14,-4 -29,5 -32,19 -4,14 4,28 19,32 14,4 28,-5 32,-19 3,-14 -5,-28 -19,-32 m 123,32 v 0 c -15,-3 -29,5 -33,19 -3,14 5,28 19,32 14,4 29,-5 32,-19 4,-14 -4,-28 -18,-32 m 122,33 v 0 c -14,-4 -28,4 -32,18 -4,14 5,29 19,32 14,4 28,-4 32,-18 4,-14 -5,-29 -19,-32 m 123,32 v 0 c -14,-4 -29,5 -32,19 -4,14 4,28 18,32 15,3 29,-5 33,-19 3,-14 -5,-28 -19,-32 m 122,32 v 0 c -14.001,-3 -28,5 -32,19 -3,14 5,28 19,32 14,4 29,-5 32,-19 3.999,-14 -4,-28 -19,-32 m 123,33 v 0 c -14,-4 -28,4 -32,18 -4,14 5,29 19,32 14,4 28,-4 32,-18 4,-14 -5,-29 -19,-32 m 123,32 v 0 c -14,-4 -29,4 -32,18 -4,15 4,29 18,33 14,3 29,-5 33,-19 3,-14 -5,-28 -19,-32 m 122,32 v 0 c -14,-4 -28.001,5 -32,19 -3,14 5,28 18.999,32 14.001,4 29.001,-5 32.001,-19 4,-14 -5,-28 -19,-32 m -1317,-477 v 0 c -14,-4 -28,5 -32,19 -3,14 5,28 19,32 14,3 29,-5 32,-19 4,-14 -4,-28 -19,-32 m 123,32 v 0 c -14,-4 -28,5 -32,19 -4,14 5,28 19,32 14,4 28,-5 32,-19 4,-14 -5,-28 -19,-32 m 123,32 v 0 c -14,-3 -29,5 -32,19 -4,14 4,28 18,32 14,4 29,-4 33,-18 3,-14 -5,-29 -19,-33 m 122,33 v 0 c -14,-4 -28,4 -32,18 -3,14 5,29 19,32 14,4 29,-4 32,-18 4,-14 -5,-29 -19,-32 m 123,32 v 0 c -14,-4 -28,5 -32,19 -4,14 5,28 19,32 14,3 28,-5 32,-19 4,-14 -5,-28 -19,-32 m 123,32 v 0 c -14,-3 -29,5 -32,19 -4,14 4,28 18,32 14,4 29,-5 32,-19 4,-14 -4,-28 -18,-32 m 122,33 v 0 c -14,-4 -28,4 -32,18 -4,14 5,29 19,32 14,4 28,-4 32,-18 4,-14 -5,-29 -19,-32 m 123,32 v 0 c -14,-4 -29,5 -32,19 -4,14 5,28 19,32 14,3 28,-5 32,-19 3,-14 -5,-28 -19,-32 m 123,32 v 0 c -14,-4 -29,5 -33,19 -3,14 5,28 19,32 14,4 29,-5 32,-19 4,-14 -4,-28 -18,-32 m 122,32 v 0 c -14.001,-3 -28,5 -32,19 -4,14 5,29 19,32 14,4 28,-4 32,-18 3.999,-14 -5,-29 -19,-33 m 123,33 v 0 c -14,-4 -29,4 -32,18 -4,14 4,29 19,33 14,3 28,-5 32,-19 3,-14 -5,-29 -19,-32 m 123,32 v 0 c -15,-4 -29,5 -33,19 -3,14 5,28 19,32 14,4 29,-5 32,-19 4,-14 -4,-28 -18,-32 m -1317,-477 v 0 c -14,-4 -29,5 -33,19 -3,14 5,28 19,32 14,3 29,-5 32,-19 4,-14 -4,-28 -18,-32 m 490,129 v 0 c -14,-4 -28,5 -32,19 -4,14 5,28 19,32 14,3 28,-5 32,-19 4,-14 -5,-28 -19,-32 m 123,32 v 0 c -14,-3 -29,5 -32,19 -4,14 4,28 18,32 15,4 29,-5 33,-19 3,-14 -5,-28 -19,-32 m 122,33 v 0 c -14,-4 -28,4 -32,18 -3,14 5,29 19,32 14,4 29,-4 32,-18 4,-14 -4,-29 -19,-32 m 123,32 v 0 c -14,-4 -28,5 -32,19 -4,14 5,28 19,32 14,3 28,-5 32,-19 4,-14 -5,-28 -19,-32 m 123,32 v 0 c -14,-4 -29,5 -32,19 -4,14 4,28 18,32 14,4 29,-5 33,-19 3,-14 -5,-28 -19,-32 m 122,32 v 0 c -14,-3 -28,5 -32,19 -3,14 5,28 19,32 14,4 29,-4 32,-18 4,-14 -5,-29 -19,-33 m 123,33 v 0 c -14.001,-4 -28,4 -32,18 -4,14 5,29 19,32 14,4 28,-4 32,-18 4,-14 -5,-29 -19,-32 m -581,-284 v 0 c -14,-3 -29,5 -32,19 -4,14 4,28 19,32 14,4 28,-5 32,-19 3,-14 -5,-28 -19,-32 m 123,33 v 0 c -14,-4 -29,4 -33,18 -3,14 5,29 19,32 14,4 29,-4 32,-18 4,-14 -4,-29 -18,-32 m 122,32 v 0 c -14,-4 -28,4 -32,18 -4,15 5,29 19,33 14,3 28,-5 32,-19 4,-14 -5,-28 -19,-32 m 123,32 v 0 c -14,-4 -29,5 -32,19 -4,14 4,28 19,32 14,4 28,-5 32,-19 3,-14 -5,-28 -19,-32 m 123,32 v 0 c -15,-3 -29,5 -33,19 -3,14 5,28 19,32 14,4 29,-4 32,-18 4,-14 -4,-29 -18,-33 m 122,33 v 0 c -14,-4 -28,4 -32,18 -4,14 5,29 19,32 14,4 28,-4 32,-18 4,-14 -5,-29 -19,-32 m -336,-219 v 0 c -14,-4 -28,4 -32,18 -4,14 5,29 19,33 14,3 28,-5 32,-19 4,-14 -5,-28 -19,-32 m 123,32 v 0 c -14,-4 -28,5 -32,19 -4,14 5,28 19,32 14,4 28,-5 32,-19 4,-14 -5,-28 -19,-32 m 123,32 v 0 c -14,-3 -29,5 -33,19 -3,14 5,28 19,32 14,4 29,-5 32,-19 4,-14 -4,-28 -18,-32 m 122,33 v 0 c -14,-4 -28,4 -32,18 -4,14 5,29 19,32 14,4 28,-4 32,-18 4,-14 -5,-29 -19,-32 m -336,-219 v 0 c -14,-4 -28,4 -32,18 -3,14 5,29 19,33 14,3 29,-5 32,-19 4,-14 -4,-29 -19,-32 m 123,32 v 0 c -14,-4 -28,5 -32,19 -4,14 5,28 19,32 14,3 28,-5 32,-19 4,-14 -5,-28 -19,-32 m 123,32 v 0 c -14,-3 -29,5 -32,19 -4,14 4,28 18,32 15,4 29,-5 32.999,-19 C 116,-2829 108,-2843 94,-2847 m -213,-186 v 0 c -14,-4 -29,4 -33,18 -3,14 5,29 19,32 14,4 29,-4 32,-18 4,-14 -4,-29 -18,-32 m 122,32 v 0 c -14,-4 -28,5 -32,19 -4,14 5,28 19,32 14,3 28,-5 32,-19 4,-14 -5,-28 -19,-32 m 123,32 v 0 c -14,-3 -29,5 -32,19 -4,14 4,28 18.999,32 14.001,4 28.001,-5 32.001,-19 3,-14 -5,-28 -19,-32 m -91,-153 v 0 c -14,-4 -28,5 -32,18 -3,14 5,28 19,32 14,3 29,-5 31.999,-19 C 58,-3105 49,-3118 35,-3122 m 123,31 v 0 c -14,-3 -28,5 -32,19 -4,14 5,28 19,32 14,4 28,-5 32,-19 4,-14 -5.001,-28 -19,-32" />
          </g>
        </g>
        <g
           transform="scale(0.0749978,-0.0750998)"
           id="g774">
          <g
             transform="translate(7189.0811,-4502.6987)"
             id="g776">
            <path
               id="path778"
               style="fill:#eea97f;fill-opacity:1;fill-rule:nonzero;stroke:none"
               d="m 0,0 v 0 c -14,-4 -28,4 -32,18 -4,14 5,29 19,32 C 1,54 15,46 19,32 23,18 14,3 0,0 m 122.999,32 v 0 C 109,28 94,37 90,51 c -3,14 5,28 19,32 13.999,3 28.999,-5 32,-19 3.999,-14 -4,-28 -18.001,-32" />
          </g>
        </g>
        <g
           transform="scale(0.0749978,-0.0750998)"
           id="g780">
          <g
             transform="translate(3609.0811,-2347.6997)"
             id="g782">
            <path
               id="path784"
               style="fill:#dd5620;fill-opacity:1;fill-rule:nonzero;stroke:none"
               d="m 0,0 v 0 c -14,-3 -29,5 -32,19 -4,14 5,28 19,32 C 1,55 15,46 19,32 22,18 14,4 0,0" />
          </g>
        </g>
        <g
           transform="scale(0.0749978,-0.0750998)"
           id="g786">
          <g
             transform="translate(4324.0811,-2101.6997)"
             id="g788">
            <path
               id="path790"
               style="fill:#dd5620;fill-opacity:1;fill-rule:nonzero;stroke:none"
               d="m 0,0 v 0 c -14,-4 -28,5 -32,19 -4,14 5,28 19,32 C 1,54 15,46 19,32 23,18 14,4 0,0" />
          </g>
        </g>
      </g>
    </g>
  </g>
</svg>
