<?xml version="1.0" encoding="UTF-8" standalone="no"?>
<svg
   xmlns:dc="http://purl.org/dc/elements/1.1/"
   xmlns:cc="http://creativecommons.org/ns#"
   xmlns:rdf="http://www.w3.org/1999/02/22-rdf-syntax-ns#"
   xmlns:svg="http://www.w3.org/2000/svg"
   xmlns="http://www.w3.org/2000/svg"
   id="svg8"
   version="1.1"
   viewBox="0 0 61.34996 29.915247"
   height="29.915247mm"
   width="61.34996mm">
  <defs
     id="defs2">
    <clipPath
       clipPathUnits="userSpaceOnUse"
       id="clipPath30">
      <path
         d="M 0,118.45 H 208.346 V 0 H 0 Z"
         id="path28" />
    </clipPath>
    <clipPath
       clipPathUnits="userSpaceOnUse"
       id="clipPath383">
      <path
         d="M 0,110 H 208.346 V 0 H 0 Z"
         id="path381" />
    </clipPath>
    <clipPath
       clipPathUnits="userSpaceOnUse"
       id="clipPath726">
      <path
         d="M 0,595.28 H 841.89 V 0 H 0 Z"
         id="path724" />
    </clipPath>
    <clipPath
       clipPathUnits="userSpaceOnUse"
       id="clipPath796">
      <path
         d="M 0,595.28 H 841.89 V 0 H 0 Z"
         id="path794" />
    </clipPath>
  </defs>
  <metadata
     id="metadata5">
    <rdf:RDF>
      <cc:Work
         rdf:about="">
        <dc:format>image/svg+xml</dc:format>
        <dc:type
           rdf:resource="http://purl.org/dc/dcmitype/StillImage" />
        <dc:title></dc:title>
      </cc:Work>
    </rdf:RDF>
  </metadata>
  <g
     transform="translate(250.27914,-28.042376)"
     id="layer1">
    <g
       id="g4991">
      <g
         id="g24"
         transform="matrix(0.35277777,0,0,-0.35277777,-256.35429,63.677517)">
        <g
           id="g26"
           clip-path="url(#clipPath30)">
          <g
             id="g32"
             transform="translate(22.2229,101.007)">
            <path
               d="m 0,0 h -5.002 v -15.37 c 1.625,0.309 3.295,0.605 5.002,0.887 z"
               style="fill:#a3add8;fill-opacity:1;fill-rule:nonzero;stroke:none"
               id="path34" />
          </g>
          <g
             id="g36"
             transform="translate(52.7994,91.4579)">
            <path
               d="M 0,0 H 4.093 V 4.222 H 0 v 4.45 H -4.937 V 4.222 H -7.015 V 0 h 2.078 v -1.912 c 1.63,0.126 3.275,0.243 4.937,0.351 z"
               style="fill:#a3add8;fill-opacity:1;fill-rule:nonzero;stroke:none"
               id="path38" />
          </g>
          <g
             id="g40"
             transform="translate(68.2937,92.0424)">
            <path
               d="m 0,0 c 1.211,0 2.156,-0.51 2.793,-1.372 1.643,0.035 3.295,0.061 4.954,0.078 C 6.602,1.737 4.079,3.962 0,3.962 c -3.856,0 -6.823,-2.372 -8.023,-5.696 1.684,0.077 3.382,0.146 5.091,0.204 C -2.266,-0.565 -1.271,0 0,0"
               style="fill:#a3add8;fill-opacity:1;fill-rule:nonzero;stroke:none"
               id="path42" />
          </g>
          <g
             id="g44"
             transform="translate(89.2486,90.6916)">
            <path
               d="m 0,0 c 0.445,0.096 0.918,0.149 1.426,0.149 h 0.26 V 5.314 C -1.237,5.443 -2.861,3.885 -3.868,1.48 V 4.989 H -8.805 V 0.08 c 0.09,0 0.18,0 0.27,0 C -5.668,0.08 -2.822,0.053 0,0"
               style="fill:#a3add8;fill-opacity:1;fill-rule:nonzero;stroke:none"
               id="path46" />
          </g>
          <g
             id="g48"
             transform="translate(104.2527,90.8408)">
            <path
               d="M 0,0 H 0.26 V 5.165 C -2.663,5.294 -4.287,3.735 -5.294,1.332 V 4.84 h -4.937 v -5.104 c 2.567,-0.075 5.11,-0.172 7.622,-0.289 C -1.868,-0.185 -0.993,0 0,0"
               style="fill:#a3add8;fill-opacity:1;fill-rule:nonzero;stroke:none"
               id="path50" />
          </g>
          <g
             id="g52"
             transform="translate(115.2001,92.0424)">
            <path
               d="M 0,0 C 1.827,0 3.051,-1.155 3.52,-2.933 5.134,-3.082 6.731,-3.24 8.306,-3.408 7.643,0.647 4.981,3.962 0,3.962 -3.976,3.962 -7.004,1.438 -8.126,-2.05 -6.53,-2.145 -4.948,-2.251 -3.381,-2.365 -2.764,-0.9 -1.603,0 0,0"
               style="fill:#a3add8;fill-opacity:1;fill-rule:nonzero;stroke:none"
               id="path54" />
          </g>
          <g
             id="g56"
             transform="translate(130.8574,87.8199)">
            <path
               d="m 0,0 v 0.065 c 0,2.371 1.819,4.028 4.222,4.028 2.404,0 4.255,-1.657 4.255,-4.028 V 0 c 0,-0.457 -0.07,-0.887 -0.198,-1.284 1.732,-0.286 3.423,-0.585 5.07,-0.899 V 7.861 H 8.412 V 5.587 C 7.08,7.049 5.489,8.186 2.793,8.186 -1.076,8.186 -4.69,5.437 -4.916,0.544 -3.249,0.354 -1.61,0.152 0.003,-0.06 Z"
               style="fill:#a3add8;fill-opacity:1;fill-rule:nonzero;stroke:none"
               id="path58" />
          </g>
          <g
             id="g60"
             transform="translate(33.6189,91.4235)">
            <path
               d="M 0,0 C 0.326,0.155 1.05,0.307 1.405,0.307 1.761,0.307 2.484,0.155 2.81,0 4.067,-0.598 4.635,-1.491 4.798,-2.737 6.362,-2.572 7.949,-2.418 9.555,-2.272 9.001,0.261 7.483,2.397 5.141,3.588 4.064,4.134 2.816,4.583 1.405,4.583 c -1.411,0 -2.66,-0.449 -3.735,-0.995 -2.92,-1.484 -4.561,-4.437 -4.644,-7.797 1.613,0.237 3.258,0.462 4.931,0.676 C -2.034,-1.849 -1.512,-0.719 0,0"
               style="fill:#a3add8;fill-opacity:1;fill-rule:nonzero;stroke:none"
               id="path62" />
          </g>
          <g
             id="g64"
             transform="translate(22.2229,78.2708)">
            <path
               d="M 0,0 V 8.254 C -1.707,7.97 -3.377,7.675 -5.002,7.366 V 0 Z"
               style="fill:#164194;fill-opacity:1;fill-rule:nonzero;stroke:none"
               id="path66" />
          </g>
          <g
             id="g68"
             transform="translate(52.9295,77.9786)">
            <path
               d="M 0,0 C 1.657,0 2.858,0.39 3.897,1.007 V 4.969 C 3.182,4.58 2.371,4.353 1.462,4.353 c -1.105,0 -1.593,0.552 -1.593,1.688 v 5.877 C -1.793,11.811 -3.438,11.694 -5.067,11.567 V 5.23 C -5.067,1.201 -3.021,0 0,0"
               style="fill:#164194;fill-opacity:1;fill-rule:nonzero;stroke:none"
               id="path70" />
          </g>
          <g
             id="g72"
             transform="translate(59.6865,86.878)">
            <path
               d="m 0,0 c 0,-5.327 3.865,-8.997 9.095,-8.997 3.15,0 5.488,1.235 7.113,3.248 l -2.826,2.502 c -1.364,-1.268 -2.566,-1.787 -4.222,-1.787 -2.209,0 -3.769,1.169 -4.255,3.41 H 17.02 c 0.032,0.455 0.065,0.909 0.065,1.299 0,1.473 -0.243,2.907 -0.731,4.195 -1.659,-0.016 -3.31,-0.042 -4.953,-0.077 0.455,-0.616 0.754,-1.41 0.876,-2.331 H 4.84 C 4.988,2.31 5.27,3.046 5.676,3.635 3.967,3.576 2.269,3.508 0.585,3.431 0.207,2.388 0,1.253 0,0.065 Z"
               style="fill:#164194;fill-opacity:1;fill-rule:nonzero;stroke:none"
               id="path74" />
          </g>
          <g
             id="g76"
             transform="translate(85.3803,78.2708)">
            <path
               d="m 0,0 v 6.431 c 0,3.513 1.442,5.468 3.868,5.99 -2.822,0.053 -5.668,0.081 -8.535,0.081 -0.09,0 -0.18,-0.001 -0.27,-0.001 L -4.937,0 Z"
               style="fill:#164194;fill-opacity:1;fill-rule:nonzero;stroke:none"
               id="path78" />
          </g>
          <g
             id="g80"
             transform="translate(98.9584,78.2708)">
            <path
               d="m 0,0 v 6.431 c 0,2.899 0.981,4.736 2.686,5.586 -2.513,0.117 -5.056,0.214 -7.623,0.289 V 0 Z"
               style="fill:#164194;fill-opacity:1;fill-rule:nonzero;stroke:none"
               id="path82" />
          </g>
          <g
             id="g84"
             transform="translate(106.5927,86.878)">
            <path
               d="m 0,0 c 0,-5.327 3.865,-8.997 9.095,-8.997 3.151,0 5.488,1.235 7.113,3.248 l -2.826,2.502 c -1.364,-1.268 -2.565,-1.787 -4.222,-1.787 -2.209,0 -3.769,1.169 -4.255,3.41 H 17.02 c 0.032,0.455 0.065,0.909 0.065,1.299 0,0.708 -0.061,1.403 -0.172,2.082 -1.574,0.167 -3.17,0.325 -4.786,0.475 0.064,-0.245 0.115,-0.502 0.15,-0.77 H 4.84 C 4.923,1.947 5.055,2.394 5.226,2.798 3.659,2.914 2.077,3.019 0.481,3.115 0.173,2.159 0,1.135 0,0.065 Z"
               style="fill:#164194;fill-opacity:1;fill-rule:nonzero;stroke:none"
               id="path86" />
          </g>
          <g
             id="g88"
             transform="translate(125.9203,87.8199)">
            <path
               d="m 0,0 c 0,-5.165 3.671,-8.121 7.73,-8.121 2.631,0 4.222,1.072 5.684,2.827 v -0.845 c 0,-3.118 -1.591,-4.741 -4.969,-4.741 -2.306,0 -4.092,0.584 -5.879,1.59 l -1.689,-3.702 c 2.208,-1.169 4.872,-1.819 7.698,-1.819 3.377,0 5.879,0.715 7.502,2.338 1.462,1.462 2.209,3.736 2.209,6.854 v 3.436 C 16.64,-1.869 14.947,-1.57 13.216,-1.284 12.678,-2.948 11.1,-4.028 9.159,-4.028 6.777,-4.028 4.97,-2.43 4.94,-0.06 3.327,0.152 1.687,0.354 0.022,0.544 0.015,0.385 0,0.23 0,0.065 Z"
               style="fill:#164194;fill-opacity:1;fill-rule:nonzero;stroke:none"
               id="path90" />
          </g>
          <g
             id="g92"
             transform="translate(38.4744,87.8481)">
            <path
               d="m 0,0 v -1.694 -7.242 -0.636 h 4.937 v 8.608 0.065 c 0,0.757 -0.084,1.495 -0.238,2.202 C 3.094,1.157 1.507,1.004 -0.058,0.839 -0.023,0.574 0,0.298 0,0"
               style="fill:#164194;fill-opacity:1;fill-rule:nonzero;stroke:none"
               id="path94" />
          </g>
          <g
             id="g96"
             transform="translate(26.6369,86.8838)">
            <path
               d="m 0,0 v -8.608 h 4.937 v 0.637 7.241 1.694 L 4.939,1.007 C 3.266,0.793 1.621,0.567 0.008,0.331 0.006,0.242 0,0.154 0,0.065 Z"
               style="fill:#164194;fill-opacity:1;fill-rule:nonzero;stroke:none"
               id="path98" />
          </g>
          <path
             d="m 157.021,101.013 h 34.105 V 78.276 h -34.105 z"
             style="fill:#164194;fill-opacity:1;fill-rule:nonzero;stroke:none"
             id="path100" />
          <g
             id="g102"
             transform="translate(173.3461,96.0595)">
            <path
               d="M 0,0 0.721,0.524 1.44,0 1.166,0.849 1.897,1.375 H 0.995 L 0.721,2.234 0.445,1.373 -0.456,1.375 0.274,0.849 Z"
               style="fill:#ffed00;fill-opacity:1;fill-rule:nonzero;stroke:none"
               id="path104" />
          </g>
          <g
             id="g106"
             transform="translate(169.623,95.0585)">
            <path
               d="M 0,0 0.719,0.526 1.438,0 1.165,0.849 1.895,1.375 h -0.9 L 0.718,2.235 0.443,1.374 -0.458,1.375 0.272,0.849 Z"
               style="fill:#ffed00;fill-opacity:1;fill-rule:nonzero;stroke:none"
               id="path108" />
          </g>
          <g
             id="g110"
             transform="translate(167.6168,94.562)">
            <path
               d="m 0,0 -0.275,-0.861 h -0.902 l 0.732,-0.525 -0.274,-0.848 0.719,0.525 0.72,-0.525 -0.274,0.848 0.73,0.525 h -0.9 z"
               style="fill:#ffed00;fill-opacity:1;fill-rule:nonzero;stroke:none"
               id="path112" />
          </g>
          <g
             id="g114"
             transform="translate(166.6167,89.1325)">
            <path
               d="M 0,0 0.721,-0.524 0.447,0.326 1.176,0.85 H 0.277 L 0,1.71 -0.274,0.849 -1.176,0.85 l 0.73,-0.524 -0.273,-0.85 z"
               style="fill:#ffed00;fill-opacity:1;fill-rule:nonzero;stroke:none"
               id="path116" />
          </g>
          <g
             id="g118"
             transform="translate(167.8931,86.2516)">
            <path
               d="M 0,0 -0.276,0.861 -0.551,-0.001 -1.453,0 -0.721,-0.526 -0.995,-1.375 -0.276,-0.849 0.444,-1.375 0.17,-0.526 0.9,0 Z"
               style="fill:#ffed00;fill-opacity:1;fill-rule:nonzero;stroke:none"
               id="path120" />
          </g>
          <g
             id="g122"
             transform="translate(170.6234,83.5211)">
            <path
               d="m 0,0 -0.276,0.859 -0.275,-0.86 -0.9,0.001 0.73,-0.524 -0.274,-0.851 0.719,0.525 0.72,-0.525 L 0.17,-0.524 0.901,0 Z"
               style="fill:#ffed00;fill-opacity:1;fill-rule:nonzero;stroke:none"
               id="path124" />
          </g>
          <g
             id="g126"
             transform="translate(174.3425,82.5324)">
            <path
               d="M 0,0 -0.276,0.861 -0.551,-0.001 -1.454,0 -0.722,-0.526 -0.995,-1.375 -0.275,-0.85 0.444,-1.375 0.17,-0.526 0.901,0 Z"
               style="fill:#ffed00;fill-opacity:1;fill-rule:nonzero;stroke:none"
               id="path128" />
          </g>
          <g
             id="g130"
             transform="translate(178.0618,83.5211)">
            <path
               d="M 0,0 -0.276,0.859 -0.551,-0.001 -1.451,0 -0.722,-0.524 -0.995,-1.375 -0.276,-0.85 0.445,-1.375 0.17,-0.524 0.901,0 Z"
               style="fill:#ffed00;fill-opacity:1;fill-rule:nonzero;stroke:none"
               id="path132" />
          </g>
          <g
             id="g134"
             transform="translate(180.7933,86.2516)">
            <path
               d="M 0,0 -0.276,0.861 -0.551,-0.001 -1.453,0 -0.722,-0.526 -0.995,-1.375 -0.276,-0.849 0.444,-1.375 0.17,-0.526 0.9,0 Z"
               style="fill:#ffed00;fill-opacity:1;fill-rule:nonzero;stroke:none"
               id="path136" />
          </g>
          <g
             id="g138"
             transform="translate(182.6824,89.992)">
            <path
               d="m 0,0 h -0.901 l -0.276,0.861 -0.276,-0.862 -0.9,0.001 0.73,-0.524 -0.272,-0.85 0.718,0.527 0.72,-0.527 -0.274,0.85 z"
               style="fill:#ffed00;fill-opacity:1;fill-rule:nonzero;stroke:none"
               id="path140" />
          </g>
          <g
             id="g142"
             transform="translate(179.7976,92.3386)">
            <path
               d="M 0,0 0.719,0.526 1.439,0 1.165,0.849 1.895,1.374 h -0.9 L 0.719,2.234 0.444,1.373 -0.457,1.374 0.273,0.849 Z"
               style="fill:#ffed00;fill-opacity:1;fill-rule:nonzero;stroke:none"
               id="path144" />
          </g>
          <g
             id="g146"
             transform="translate(177.7973,97.2926)">
            <path
               d="m 0,0 -0.276,-0.862 -0.9,0.003 0.729,-0.527 -0.273,-0.849 0.721,0.527 0.718,-0.527 -0.273,0.849 0.73,0.527 H 0.275 Z"
               style="fill:#ffed00;fill-opacity:1;fill-rule:nonzero;stroke:none"
               id="path148" />
          </g>
          <g
             id="g150"
             transform="translate(157.0205,73.0555)">
            <path
               d="M 0,0 V 2.727 H 1.972 V 2.405 H 0.361 V 1.57 H 1.869 V 1.25 H 0.361 V 0.322 H 2.035 V 0 Z"
               style="fill:#164194;fill-opacity:1;fill-rule:nonzero;stroke:none"
               id="path152" />
          </g>
          <g
             id="g154"
             transform="translate(161.3442,75.7828)">
            <path
               d="M 0,0 H 0.361 V -1.575 C 0.361,-1.85 0.33,-2.067 0.268,-2.228 0.206,-2.39 0.094,-2.521 -0.068,-2.623 c -0.162,-0.1 -0.374,-0.15 -0.638,-0.15 -0.254,0 -0.464,0.043 -0.626,0.131 -0.163,0.089 -0.279,0.216 -0.348,0.383 -0.069,0.166 -0.105,0.395 -0.105,0.684 V 0 h 0.361 v -1.574 c 0,-0.236 0.023,-0.411 0.067,-0.524 0.044,-0.112 0.12,-0.199 0.227,-0.258 0.106,-0.062 0.238,-0.092 0.393,-0.092 0.265,0 0.455,0.06 0.567,0.18 0.113,0.12 0.17,0.352 0.17,0.694 z"
               style="fill:#164194;fill-opacity:1;fill-rule:nonzero;stroke:none"
               id="path156" />
          </g>
          <g
             id="g158"
             transform="translate(162.3114,73.0552)">
            <path
               d="M 0,0 V 2.727 H 1.209 C 1.453,2.727 1.638,2.703 1.764,2.654 1.89,2.605 1.992,2.518 2.067,2.395 2.142,2.271 2.181,2.133 2.181,1.983 2.181,1.79 2.118,1.628 1.992,1.494 1.868,1.361 1.674,1.276 1.412,1.242 1.507,1.195 1.58,1.15 1.63,1.105 1.735,1.009 1.835,0.888 1.929,0.743 L 2.404,0 H 1.95 L 1.589,0.568 C 1.483,0.731 1.397,0.857 1.328,0.944 1.26,1.031 1.199,1.092 1.145,1.126 L 0.981,1.198 C 0.939,1.208 0.873,1.211 0.78,1.211 H 0.361 V 0 Z m 0.361,1.524 h 0.776 c 0.164,0 0.294,0.017 0.387,0.051 0.093,0.034 0.163,0.089 0.212,0.164 0.049,0.075 0.072,0.156 0.072,0.244 0,0.13 -0.046,0.235 -0.141,0.319 C 1.575,2.385 1.427,2.426 1.224,2.426 H 0.361 Z"
               style="fill:#164194;fill-opacity:1;fill-rule:nonzero;stroke:none"
               id="path160" />
          </g>
          <g
             id="g162"
             transform="translate(164.9475,74.3833)">
            <path
               d="m 0,0 c 0,0.453 0.122,0.808 0.365,1.063 0.244,0.257 0.557,0.384 0.942,0.384 0.251,0 0.478,-0.059 0.68,-0.18 C 2.189,1.147 2.344,0.98 2.45,0.765 2.555,0.549 2.609,0.305 2.609,0.032 2.609,-0.244 2.553,-0.492 2.441,-0.711 2.33,-0.929 2.172,-1.094 1.967,-1.206 1.762,-1.318 1.541,-1.375 1.305,-1.375 c -0.257,0 -0.487,0.062 -0.689,0.186 -0.202,0.124 -0.355,0.294 -0.46,0.508 C 0.053,-0.466 0,-0.239 0,0 m 0.372,-0.005 c 0,-0.329 0.089,-0.587 0.266,-0.777 0.176,-0.189 0.398,-0.283 0.665,-0.283 0.272,0 0.495,0.095 0.67,0.286 0.176,0.192 0.264,0.462 0.264,0.813 0,0.221 -0.038,0.416 -0.113,0.582 C 2.05,0.781 1.939,0.91 1.795,1 1.65,1.092 1.488,1.137 1.309,1.137 1.053,1.137 0.833,1.049 0.648,0.874 0.464,0.698 0.372,0.405 0.372,-0.005"
               style="fill:#164194;fill-opacity:1;fill-rule:nonzero;stroke:none"
               id="path164" />
          </g>
          <g
             id="g166"
             transform="translate(168.021,73.0552)">
            <path
               d="M 0,0 V 2.727 H 1.029 C 1.211,2.727 1.348,2.719 1.444,2.701 1.578,2.679 1.691,2.637 1.781,2.574 1.871,2.511 1.944,2.424 1.999,2.311 2.055,2.198 2.082,2.075 2.082,1.939 2.082,1.707 2.008,1.511 1.86,1.35 1.713,1.189 1.446,1.109 1.06,1.109 H 0.361 V 0 Z m 0.361,1.431 h 0.706 c 0.232,0 0.398,0.043 0.496,0.13 C 1.66,1.648 1.71,1.77 1.71,1.927 1.71,2.041 1.681,2.14 1.623,2.22 1.565,2.302 1.49,2.356 1.396,2.382 1.335,2.397 1.223,2.405 1.058,2.405 H 0.361 Z"
               style="fill:#164194;fill-opacity:1;fill-rule:nonzero;stroke:none"
               id="path168" />
          </g>
          <g
             id="g170"
             transform="translate(170.5701,73.0555)">
            <path
               d="M 0,0 V 2.727 H 1.972 V 2.405 H 0.361 V 1.57 H 1.869 V 1.25 H 0.361 V 0.322 H 2.035 V 0 Z"
               style="fill:#164194;fill-opacity:1;fill-rule:nonzero;stroke:none"
               id="path172" />
          </g>
          <g
             id="g174"
             transform="translate(172.804,73.055)">
            <path
               d="M 0,0 1.048,2.728 H 1.437 L 2.553,0 H 2.142 L 1.824,0.827 H 0.683 L 0.384,0 Z M 0.787,1.121 H 1.712 L 1.428,1.876 C 1.341,2.106 1.276,2.293 1.235,2.441 1.199,2.266 1.15,2.093 1.087,1.92 Z"
               style="fill:#164194;fill-opacity:1;fill-rule:nonzero;stroke:none"
               id="path176" />
          </g>
          <g
             id="g178"
             transform="translate(175.6416,73.0555)">
            <path
               d="M 0,0 V 2.727 H 0.371 L 1.803,0.585 V 2.727 H 2.149 V 0 H 1.779 L 0.345,2.144 V 0 Z"
               style="fill:#164194;fill-opacity:1;fill-rule:nonzero;stroke:none"
               id="path180" />
          </g>
          <g
             id="g182"
             transform="translate(181.2453,75.7828)">
            <path
               d="M 0,0 H 0.361 V -1.575 C 0.361,-1.85 0.33,-2.067 0.268,-2.228 0.206,-2.39 0.094,-2.521 -0.068,-2.623 c -0.162,-0.1 -0.374,-0.15 -0.638,-0.15 -0.255,0 -0.464,0.043 -0.626,0.131 -0.163,0.089 -0.279,0.216 -0.348,0.383 -0.069,0.166 -0.105,0.395 -0.105,0.684 V 0 h 0.361 v -1.574 c 0,-0.236 0.023,-0.411 0.067,-0.524 0.044,-0.112 0.12,-0.199 0.227,-0.258 0.107,-0.062 0.238,-0.092 0.393,-0.092 0.265,0 0.455,0.06 0.567,0.18 0.113,0.12 0.17,0.352 0.17,0.694 z"
               style="fill:#164194;fill-opacity:1;fill-rule:nonzero;stroke:none"
               id="path184" />
          </g>
          <g
             id="g186"
             transform="translate(182.2034,73.0555)">
            <path
               d="M 0,0 V 2.727 H 0.371 L 1.803,0.585 V 2.727 H 2.149 V 0 H 1.779 L 0.345,2.144 V 0 Z"
               style="fill:#164194;fill-opacity:1;fill-rule:nonzero;stroke:none"
               id="path188" />
          </g>
          <path
             d="m 185.02,73.056 h 0.362 v 2.727 h -0.362 z"
             style="fill:#164194;fill-opacity:1;fill-rule:nonzero;stroke:none"
             id="path190" />
          <g
             id="g192"
             transform="translate(185.9072,74.3833)">
            <path
               d="m 0,0 c 0,0.453 0.122,0.808 0.365,1.063 0.244,0.257 0.557,0.384 0.942,0.384 0.251,0 0.478,-0.059 0.68,-0.18 C 2.189,1.147 2.344,0.98 2.45,0.765 2.555,0.549 2.609,0.305 2.609,0.032 2.609,-0.244 2.553,-0.492 2.441,-0.711 2.33,-0.929 2.172,-1.094 1.967,-1.206 1.762,-1.318 1.541,-1.375 1.305,-1.375 c -0.257,0 -0.487,0.062 -0.689,0.186 -0.202,0.124 -0.355,0.294 -0.46,0.508 C 0.053,-0.466 0,-0.239 0,0 m 0.372,-0.005 c 0,-0.329 0.089,-0.587 0.266,-0.777 0.176,-0.189 0.398,-0.283 0.665,-0.283 0.272,0 0.495,0.095 0.67,0.286 0.176,0.192 0.264,0.462 0.264,0.813 0,0.221 -0.038,0.416 -0.113,0.582 C 2.05,0.781 1.939,0.91 1.795,1 1.65,1.092 1.488,1.137 1.309,1.137 1.053,1.137 0.833,1.049 0.648,0.874 0.464,0.698 0.372,0.405 0.372,-0.005"
               style="fill:#164194;fill-opacity:1;fill-rule:nonzero;stroke:none"
               id="path194" />
          </g>
          <g
             id="g196"
             transform="translate(188.9773,73.0555)">
            <path
               d="M 0,0 V 2.727 H 0.371 L 1.803,0.585 V 2.727 H 2.149 V 0 H 1.778 L 0.345,2.144 V 0 Z"
               style="fill:#164194;fill-opacity:1;fill-rule:nonzero;stroke:none"
               id="path198" />
          </g>
          <g
             id="g200"
             transform="translate(30.3018,53.1133)">
            <path
               d="m 0,0 c 0,-1.217 -1.065,-1.856 -2.769,-1.856 -2.221,0 -5.505,1.278 -7.696,3.195 l -2.099,-4.168 c 2.525,-2.069 6.175,-3.407 9.735,-3.407 4.745,0 8.518,2.251 8.518,6.51 0,2.813 -1.507,4.315 -3.416,5.271 C -2.536,6.14 -7.007,6.82 -11.079,7.573 -9.67,1.823 0,3.497 0,0"
               style="fill:#e99b64;fill-opacity:1;fill-rule:nonzero;stroke:none"
               id="path202" />
          </g>
          <g
             id="g204"
             transform="translate(50.1281,49.7673)">
            <path
               d="M 0,0 V -2.708 H 5.263 V 6.878 C 3.483,6.981 1.729,7.093 0,7.215 V 5.597 C 0,3.376 -1.186,1.734 -3.194,1.703 c -1.673,0 -2.737,1.187 -2.737,3.134 v 2.844 c -1.789,0.154 -3.544,0.32 -5.263,0.496 V 3.346 c 0,-3.833 2.312,-6.267 5.871,-6.267 2.372,0 4.197,0.974 5.323,2.921"
               style="fill:#e99b64;fill-opacity:1;fill-rule:nonzero;stroke:none"
               id="path206" />
          </g>
          <g
             id="g208"
             transform="translate(70.3336,49.2199)">
            <path
               d="M 0,0 V -2.16 H 5.263 V 6.732 C 3.474,6.754 1.699,6.786 -0.059,6.828 -0.021,6.56 0,6.282 0,5.992 0,3.467 -1.46,1.704 -3.65,1.704 c -2.191,0 -3.65,1.763 -3.681,4.288 0.004,0.374 0.043,0.727 0.108,1.062 -1.789,0.071 -3.559,0.151 -5.306,0.241 -0.038,-0.384 -0.065,-0.774 -0.065,-1.181 0,-5.08 3.042,-8.487 7.666,-8.487 2.099,0 3.773,0.852 4.928,2.373"
               style="fill:#e99b64;fill-opacity:1;fill-rule:nonzero;stroke:none"
               id="path210" />
          </g>
          <g
             id="g212"
             transform="translate(90.3804,55.2121)">
            <path
               d="m 0,0 c 0,-2.555 -1.491,-4.259 -3.65,-4.259 -2.191,0 -3.681,1.704 -3.681,4.259 0,0.243 0.018,0.477 0.045,0.704 C -7.76,0.702 -8.234,0.701 -8.71,0.701 c -1.303,0 -2.597,0.006 -3.886,0.016 -0.014,-0.217 -0.029,-0.432 -0.029,-0.656 0,-5.05 3.59,-8.396 8.975,-8.396 5.354,0 8.943,3.346 8.943,8.396 0,0.288 -0.015,0.568 -0.038,0.843 C 3.502,0.852 1.732,0.811 -0.053,0.778 -0.021,0.528 0,0.27 0,0"
               style="fill:#e99b64;fill-opacity:1;fill-rule:nonzero;stroke:none"
               id="path214" />
          </g>
          <g
             id="g216"
             transform="translate(109.6049,56.672)">
            <path
               d="m 0,0 h -1.213 c -3.419,-0.2 -6.928,-0.362 -10.514,-0.485 -0.029,-0.317 -0.046,-0.642 -0.046,-0.975 0,-4.989 3.347,-8.335 8.701,-8.335 3.012,0 5.475,1.065 7.149,2.89 l -2.769,2.707 c -1.095,-1.095 -2.494,-1.673 -3.924,-1.673 -1.946,0 -3.346,1.096 -3.864,3.042 H 5.05 C 5.121,-1.664 5.066,-0.584 4.896,0.403 3.285,0.284 1.651,0.174 -0.006,0.072 -0.006,0.047 0,0.025 0,0"
               style="fill:#e99b64;fill-opacity:1;fill-rule:nonzero;stroke:none"
               id="path218" />
          </g>
          <g
             id="g220"
             transform="translate(24.7346,62.6653)">
            <path
               d="m 0,0 c 0,1.034 0.943,1.552 2.342,1.552 1.735,0 4.563,-0.913 6.814,-2.221 l 2.039,4.228 C 9.005,4.99 5.872,5.932 2.798,5.932 c -5.11,0 -8.486,-2.495 -8.486,-6.418 0,-0.55 0.065,-1.042 0.176,-1.493 C -1.44,-2.732 3.031,-3.412 7.841,-4.007 4.528,-2.347 0,-2.335 0,0"
               style="fill:#db5f18;fill-opacity:1;fill-rule:nonzero;stroke:none"
               id="path222" />
          </g>
          <g
             id="g224"
             transform="translate(50.1281,63.4558)">
            <path
               d="M 0,0 V -6.473 C 1.729,-6.595 3.483,-6.708 5.263,-6.81 V 0 Z"
               style="fill:#db5f18;fill-opacity:1;fill-rule:nonzero;stroke:none"
               id="path226" />
          </g>
          <g
             id="g228"
             transform="translate(38.9337,63.4558)">
            <path
               d="M 0,0 V -5.512 C 1.72,-5.688 3.475,-5.854 5.263,-6.008 V 0 Z"
               style="fill:#db5f18;fill-opacity:1;fill-rule:nonzero;stroke:none"
               id="path230" />
          </g>
          <g
             id="g232"
             transform="translate(70.3336,69.6317)">
            <path
               d="m 0,0 v -8.335 c -1.155,1.521 -2.89,2.372 -5.049,2.372 -4.166,0 -7.04,-2.805 -7.48,-7.154 1.747,-0.09 3.517,-0.17 5.306,-0.241 0.374,1.935 1.706,3.197 3.573,3.197 1.939,0 3.303,-1.36 3.591,-3.423 1.758,-0.042 3.533,-0.074 5.322,-0.096 V 0 Z"
               style="fill:#db5f18;fill-opacity:1;fill-rule:nonzero;stroke:none"
               id="path234" />
          </g>
          <g
             id="g236"
             transform="translate(86.7302,63.6389)">
            <path
               d="m 0,0 c -5.146,0 -8.645,-3.033 -8.945,-7.71 1.288,-0.01 2.583,-0.016 3.885,-0.016 0.476,0 0.95,0.002 1.424,0.003 0.252,2.136 1.656,3.555 3.636,3.555 1.929,0 3.321,-1.385 3.597,-3.48 1.786,0.032 3.555,0.074 5.308,0.125 C 8.526,-2.951 5.049,0 0,0"
               style="fill:#db5f18;fill-opacity:1;fill-rule:nonzero;stroke:none"
               id="path238" />
          </g>
          <g
             id="g240"
             transform="translate(106.3806,63.6392)">
            <path
               d="m 0,0 c -4.748,0 -8.085,-2.923 -8.503,-7.452 3.586,0.123 7.095,0.285 10.514,0.485 h -5.358 c 0.336,1.978 1.583,3.316 3.407,3.316 1.863,0 3.127,-1.279 3.159,-3.244 1.656,0.102 3.29,0.212 4.901,0.331 C 7.414,-2.471 4.656,0 0,0"
               style="fill:#db5f18;fill-opacity:1;fill-rule:nonzero;stroke:none"
               id="path242" />
          </g>
        </g>
      </g>
      <text
         style="font-variant:normal;font-weight:normal;font-stretch:normal;font-size:1.41111112px;font-family:Montserrat;-inkscape-font-specification:Montserrat-Regular;writing-mode:lr-tb;fill:#001689;fill-opacity:1;fill-rule:nonzero;stroke:none;stroke-width:0.35277778"
         id="text246"
         x="-250.36913"
         y="57.664101">
        <tspan
           x="-250.36913 -249.44344 -248.52199 -247.966 -247.08406 -246.12451 -245.29477 -244.46786 -243.5323 -243.16823 -242.14799 -241.31827 -240.41515 -240.0144 -239.13245 -238.19688 -237.36998 -236.95369 -236.58963 -235.49602 -234.6945 -233.98175 -233.15202 -232.73575 -231.85381 -230.89424 -229.42245 -228.59273 -227.65715 -227.08284 -226.71877 -225.90738 -224.98592 -224.05035"
           y="57.664101"
           id="tspan244"
           style="stroke-width:0.35277778">European Regional Development Fund</tspan>
      </text>
      <g
         id="g1142"
         transform="matrix(0.15413608,0,0,0.15413608,-206.65726,37.206428)">
        <g
           transform="matrix(0.35277777,0,0,-0.35277777,-319.15241,237.73288)"
           id="g790">
          <g
             clip-path="url(#clipPath796)"
             id="g792">
            <g
               transform="translate(725.7822,421.6804)"
               id="g798">
              <path
                 id="path800"
                 style="fill:#de481e;fill-opacity:1;fill-rule:nonzero;stroke:none"
                 d="m 0,0 c 0,-1.07 0.867,-1.937 1.937,-1.937 1.07,0 1.937,0.867 1.937,1.937 0,1.07 -0.867,1.937 -1.937,1.937 C 0.867,1.937 0,1.07 0,0" />
            </g>
            <g
               transform="translate(711.8359,411.9504)"
               id="g802">
              <path
                 id="path804"
                 style="fill:#de481e;fill-opacity:1;fill-rule:nonzero;stroke:none"
                 d="m 0,0 c 0,-1.886 1.529,-3.416 3.415,-3.416 1.887,0 3.416,1.53 3.416,3.416 0,1.886 -1.529,3.416 -3.416,3.416 C 1.529,3.416 0,1.886 0,0" />
            </g>
            <g
               transform="translate(700.4922,399.7971)"
               id="g806">
              <path
                 id="path808"
                 style="fill:#de481e;fill-opacity:1;fill-rule:nonzero;stroke:none"
                 d="M 0,0 C 0,-2.522 2.045,-4.567 4.567,-4.567 7.09,-4.567 9.135,-2.522 9.135,0 9.135,2.522 7.09,4.567 4.567,4.567 2.045,4.567 0,2.522 0,0" />
            </g>
            <g
               transform="translate(685.5723,368.6594)"
               id="g810">
              <path
                 id="path812"
                 style="fill:#de481e;fill-opacity:1;fill-rule:nonzero;stroke:none"
                 d="M 0,0 C 3.383,0 6.125,2.742 6.125,6.125 6.125,9.508 3.383,12.25 0,12.25 -3.383,12.25 -6.125,9.508 -6.125,6.125 -6.125,2.742 -3.383,0 0,0" />
            </g>
            <g
               transform="translate(673.4277,371.1965)"
               id="g814">
              <path
                 id="path816"
                 style="fill:#de481e;fill-opacity:1;fill-rule:nonzero;stroke:none"
                 d="m 0,0 c -3.639,0 -6.588,-2.95 -6.588,-6.588 0,-3.639 2.949,-6.589 6.588,-6.589 3.639,0 6.589,2.95 6.589,6.589 C 6.589,-2.95 3.639,0 0,0" />
            </g>
            <g
               transform="translate(659.2529,364.4353)"
               id="g818">
              <path
                 id="path820"
                 style="fill:#de481e;fill-opacity:1;fill-rule:nonzero;stroke:none"
                 d="m 0,0 c -3.789,0 -6.859,-3.071 -6.859,-6.859 0,-3.789 3.07,-6.86 6.859,-6.86 3.788,0 6.859,3.071 6.859,6.86 C 6.859,-3.071 3.788,0 0,0" />
            </g>
            <g
               transform="translate(650.5732,355.2185)"
               id="g822">
              <path
                 id="path824"
                 style="fill:#de481e;fill-opacity:1;fill-rule:nonzero;stroke:none"
                 d="m 0,0 c 0,3.833 -3.107,6.94 -6.94,6.94 -3.833,0 -6.94,-3.107 -6.94,-6.94 0,-3.833 3.107,-6.94 6.94,-6.94 C -3.107,-6.94 0,-3.833 0,0" />
            </g>
            <g
               transform="translate(634.9609,358.2107)"
               id="g826">
              <path
                 id="path828"
                 style="fill:#de481e;fill-opacity:1;fill-rule:nonzero;stroke:none"
                 d="m 0,0 c 0,3.778 -3.063,6.84 -6.84,6.84 -3.778,0 -6.841,-3.062 -6.841,-6.84 0,-3.778 3.063,-6.84 6.841,-6.84 C -3.063,-6.84 0,-3.778 0,0" />
            </g>
            <g
               transform="translate(620.7354,365.7038)"
               id="g830">
              <path
                 id="path832"
                 style="fill:#de481e;fill-opacity:1;fill-rule:nonzero;stroke:none"
                 d="m 0,0 c 0,3.62 -2.935,6.554 -6.554,6.554 -3.619,0 -6.553,-2.934 -6.553,-6.554 0,-3.62 2.934,-6.554 6.553,-6.554 C -2.935,-6.554 0,-3.62 0,0" />
            </g>
            <g
               transform="translate(602.2842,382.2473)"
               id="g834">
              <path
                 id="path836"
                 style="fill:#de481e;fill-opacity:1;fill-rule:nonzero;stroke:none"
                 d="m 0,0 c -3.354,0 -6.072,-2.719 -6.072,-6.073 0,-3.354 2.718,-6.073 6.072,-6.073 3.354,0 6.074,2.719 6.074,6.073 C 6.074,-2.719 3.354,0 0,0" />
            </g>
            <g
               transform="translate(587.4297,401.3362)"
               id="g838">
              <path
                 id="path840"
                 style="fill:#de481e;fill-opacity:1;fill-rule:nonzero;stroke:none"
                 d="m 0,0 c 0,2.462 -1.996,4.458 -4.459,4.458 -2.462,0 -4.458,-1.996 -4.458,-4.458 0,-2.462 1.996,-4.458 4.458,-4.458 C -1.996,-4.458 0,-2.462 0,0" />
            </g>
            <g
               transform="translate(575.8408,413.3083)"
               id="g842">
              <path
                 id="path844"
                 style="fill:#de481e;fill-opacity:1;fill-rule:nonzero;stroke:none"
                 d="m 0,0 c 0,1.804 -1.462,3.266 -3.266,3.266 -1.803,0 -3.265,-1.462 -3.265,-3.266 0,-1.803 1.462,-3.266 3.265,-3.266 C -1.462,-3.266 0,-1.803 0,0" />
            </g>
            <g
               transform="translate(561.5059,422.5666)"
               id="g846">
              <path
                 id="path848"
                 style="fill:#de481e;fill-opacity:1;fill-rule:nonzero;stroke:none"
                 d="m 0,0 c 0,0.963 -0.781,1.744 -1.744,1.744 -0.963,0 -1.743,-0.781 -1.743,-1.744 0,-0.963 0.78,-1.743 1.743,-1.743 C -0.781,-1.743 0,-0.963 0,0" />
            </g>
            <g
               transform="translate(603.6006,397.5813)"
               id="g850">
              <path
                 id="path852"
                 style="fill:#233769;fill-opacity:1;fill-rule:nonzero;stroke:none"
                 d="M 0,0 C 6.804,10.012 21.075,26.797 40.246,26.731 59.4,26.797 73.672,10.012 80.475,0 c 12.128,-17.849 23.027,-28.571 42.852,-30.554 1.364,-0.136 2.581,0.859 2.718,2.223 0.008,0.081 0.011,0.161 0.011,0.24 0,1.268 -0.952,2.349 -2.235,2.477 -17.985,1.8 -27.666,11.371 -39.239,28.405 C 71.878,21.485 56.127,31.751 40.246,31.696 24.348,31.751 8.597,21.485 -4.106,2.791 -15.68,-14.243 -25.36,-23.814 -43.347,-25.614 c -1.28,-0.127 -2.235,-1.206 -2.235,-2.467 0,-0.082 0.004,-0.166 0.013,-0.25 0.136,-1.364 1.353,-2.359 2.717,-2.223 C -23.026,-28.571 -12.127,-17.849 0,0" />
            </g>
          </g>
        </g>
        <text
           y="111.43276"
           x="-287.16364"
           id="text858"
           style="font-variant:normal;font-weight:normal;font-stretch:normal;font-size:42.33333206px;font-family:Montserrat;-inkscape-font-specification:Montserrat-Regular;writing-mode:lr-tb;fill:#de481e;fill-opacity:1;fill-rule:nonzero;stroke:none;stroke-width:0.35277778">
          <tspan
             style="stroke-width:0.35277778"
             id="tspan854"
             y="111.43276"
             x="-287.16364 -255.24432 -242.45966">BIO</tspan>
          <tspan
             style="stroke-width:0.35277778"
             id="tspan856"
             y="111.43276"
             x="-206.94199 -166.51366 -153.72899">MIC</tspan>
        </text>
      </g>
    </g>
  </g>
</svg>
