<?xml version="1.0" encoding="UTF-8" standalone="no"?>
<!-- Generator: Adobe Illustrator 16.0.0, SVG Export Plug-In . SVG Version: 6.00 Build 0)  -->

<svg
   xmlns:dc="http://purl.org/dc/elements/1.1/"
   xmlns:cc="http://creativecommons.org/ns#"
   xmlns:rdf="http://www.w3.org/1999/02/22-rdf-syntax-ns#"
   xmlns:svg="http://www.w3.org/2000/svg"
   xmlns="http://www.w3.org/2000/svg"
   xmlns:sodipodi="http://sodipodi.sourceforge.net/DTD/sodipodi-0.dtd"
   xmlns:inkscape="http://www.inkscape.org/namespaces/inkscape"
   version="1.1"
   id="Capa_1"
   x="0px"
   y="0px"
   width="34.891px"
   height="34.891px"
   viewBox="0 0 34.891 34.891"
   style="enable-background:new 0 0 34.891 34.891;"
   xml:space="preserve"
   sodipodi:docname="seo-training.svg"
   inkscape:version="0.92.3 (2405546, 2018-03-11)"><metadata
   id="metadata47"><rdf:RDF><cc:Work
       rdf:about=""><dc:format>image/svg+xml</dc:format><dc:type
         rdf:resource="http://purl.org/dc/dcmitype/StillImage" /></cc:Work></rdf:RDF></metadata><defs
   id="defs45" /><sodipodi:namedview
   pagecolor="#ffffff"
   bordercolor="#666666"
   borderopacity="1"
   objecttolerance="10"
   gridtolerance="10"
   guidetolerance="10"
   inkscape:pageopacity="0"
   inkscape:pageshadow="2"
   inkscape:window-width="1920"
   inkscape:window-height="1012"
   id="namedview43"
   showgrid="false"
   inkscape:zoom="4.7828152"
   inkscape:cx="-35.131301"
   inkscape:cy="14.86315"
   inkscape:window-x="-8"
   inkscape:window-y="-8"
   inkscape:window-maximized="1"
   inkscape:current-layer="Capa_1" />

<g
   id="g12">
</g>
<g
   id="g14">
</g>
<g
   id="g16">
</g>
<g
   id="g18">
</g>
<g
   id="g20">
</g>
<g
   id="g22">
</g>
<g
   id="g24">
</g>
<g
   id="g26">
</g>
<g
   id="g28">
</g>
<g
   id="g30">
</g>
<g
   id="g32">
</g>
<g
   id="g34">
</g>
<g
   id="g36">
</g>
<g
   id="g38">
</g>
<g
   id="g40">
</g>
<g
   id="g954"><g
     id="g10">
	<g
   id="g8">
		<path
   id="path2"
   d="M32.43,33.652c0-1.398-1.609-3.285-3.783-3.836c0.907-0.611,1.533-1.816,1.533-2.902c0-1.532-1.242-2.774-2.771-2.774    c-1.534,0-2.774,1.242-2.774,2.774c0,1.086,0.627,2.291,1.533,2.902c-2.173,0.551-3.783,2.438-3.783,3.836    C22.384,35.304,32.43,35.304,32.43,33.652z" />
		<path
   id="path4"
   d="M9.028,6.278c1.239,0,2.247-1.442,2.247-2.682c0-1.244-1.008-2.249-2.247-2.249c-1.242,0-2.25,1.005-2.25,2.249    C6.778,4.836,7.786,6.278,9.028,6.278z" />
		<path
   id="path6"
   d="M32.6,12.888V3.371c0-0.875-0.712-1.586-1.587-1.586h-6.146v-1.19C24.867,0.266,24.6,0,24.271,0s-0.596,0.267-0.596,0.595    v1.19H17.53c-0.874,0-1.586,0.711-1.586,1.586v4.873l-3.079-1.027c-0.193-0.068-1.919-0.671-3.509-0.75L9.143,6.892H9.139    l0.599,4.663l-0.711,1.244l-0.712-1.244l0.598-4.663H8.908L8.696,6.467C7.047,6.55,5.248,7.196,5.168,7.224    C5.135,7.237,5.114,7.262,5.084,7.276C5.03,7.303,4.982,7.33,4.935,7.367C4.887,7.401,4.85,7.439,4.812,7.481    C4.775,7.525,4.743,7.567,4.715,7.616C4.683,7.669,4.66,7.72,4.641,7.78C4.631,7.811,4.61,7.834,4.602,7.866L3.18,14.267    c-0.106,0.479,0.195,0.955,0.675,1.062c0.065,0.012,0.128,0.018,0.194,0.018c0.408,0,0.775-0.28,0.865-0.694l1.314-5.907    c0.092-0.029,0.195-0.06,0.31-0.092v6.071l-0.709,8.799c-0.027,0.34,0.12,0.645,0.354,0.858c-0.966,0.435-1.642,1.399-1.642,2.528    c0,1.086,0.626,2.291,1.533,2.902c-2.173,0.551-3.783,2.438-3.783,3.836c0,1.652,10.046,1.652,10.046,0    c0-1.398-1.61-3.285-3.783-3.836c0.908-0.611,1.534-1.816,1.534-2.902c0-1.375-1.001-2.508-2.314-2.729    c0.095-0.145,0.168-0.304,0.183-0.488l0.639-7.953c0.133,0.057,0.278,0.091,0.433,0.091c0.152,0,0.297-0.034,0.429-0.091    l0.64,7.953c0.047,0.56,0.513,0.981,1.064,0.981c0.027,0,0.057-0.001,0.085-0.003c0.587-0.047,1.026-0.561,0.979-1.148    l-0.708-8.798V8.655c0.451,0.128,0.756,0.237,0.764,0.241c0.006,0.002,0.009,0.002,0.012,0.003    c0.005,0.001,0.007,0.002,0.01,0.003l3.643,1.215v2.771c0,0.875,0.712,1.586,1.586,1.586h2.887l-2.533,9.454    c-0.023,0.09-0.021,0.178-0.005,0.262c-0.168-0.031-0.341-0.052-0.519-0.052c-1.532,0-2.774,1.242-2.774,2.774    c0,1.086,0.627,2.291,1.535,2.902c-2.174,0.551-3.784,2.438-3.784,3.836c0,1.652,10.046,1.652,10.046,0    c0-1.398-1.61-3.285-3.782-3.836c0.907-0.611,1.533-1.816,1.533-2.902c0-0.998-0.529-1.864-1.32-2.354    c0.104-0.076,0.186-0.188,0.221-0.322l2.615-9.763h2.027v6.919c0,0.327,0.268,0.594,0.596,0.594s0.596-0.267,0.596-0.594v-6.919    h2.025l2.615,9.763c0.071,0.266,0.312,0.44,0.575,0.44c0.051,0,0.103-0.007,0.153-0.021c0.316-0.086,0.506-0.412,0.422-0.729    l-2.533-9.454h2.887C31.888,14.474,32.6,13.763,32.6,12.888z M17.531,13.681c-0.438,0-0.794-0.356-0.794-0.793v-2.535    c0.038,0.005,0.076,0.019,0.114,0.019c0.372,0,0.72-0.236,0.844-0.607c0.154-0.467-0.097-0.97-0.563-1.125l-0.396-0.132V3.371    c0-0.438,0.355-0.793,0.794-0.793h13.482c0.438,0,0.794,0.355,0.794,0.793v9.517c0,0.437-0.354,0.793-0.794,0.793H17.531z" />
	</g>
</g><g
     transform="matrix(0.11687178,0,0,0.11687178,20.254871,-3.304413)"
     id="g924"><path
       inkscape:connector-curvature="0"
       style="fill:#465a61;stroke-width:0.15398091"
       d="m 41.356298,85.357522 -11.9642,11.96419 c -0.46194,0.41563 -1.06222,0.6466 -1.6168,0.6466 -0.60028,0 -1.20117,-0.23097 -1.66311,-0.6466 -0.87757,-0.92388 -0.87757,-2.40234 0,-3.27991 l 11.9642,-11.9642 c 0.87817,-0.87757 2.35602,-0.87757 3.28051,0 0.87697,0.92389 0.87697,2.40235 -5.7e-4,3.27992 z m 0,0"
       id="path2-7" /><path
       inkscape:connector-curvature="0"
       style="fill:#3b4a51;stroke-width:0.15398091"
       d="m 41.356298,85.357522 -7.62206,7.62205 v -6.55982 l 4.34215,-4.34215 c 0.87757,-0.87757 2.35602,-0.87757 3.27991,0 0.87757,0.92389 0.87757,2.40235 0,3.27992 z m 0,0"
       id="path4-5" /><path
       inkscape:connector-curvature="0"
       style="fill:#465a61;stroke-width:0.15398091"
       d="m 20.360758,99.182122 c -0.34706,0 -0.69893,-0.0788 -1.03095,-0.24361 L 9.1171474,93.831882 c -1.14163,-0.57081 -1.60417,-1.95784 -1.03336,-3.09886 0.57322,-1.13922 1.9602496,-1.60417 3.0994696,-1.03336 l 10.212661,5.10663 c 1.14163,0.57081 1.60417,1.95785 1.03336,3.09887 -0.40601,0.8102 -1.22042,1.27696 -2.06852,1.27696 z m 0,0"
       id="path6-8" /><path
       inkscape:connector-curvature="0"
       style="fill:#3b4a51;stroke-width:0.15398091"
       d="m 46.669838,79.998262 c -0.70374,0 -1.39605,-0.31759 -1.84957,-0.92449 -0.7669,-1.01952 -0.55939,-2.467898 0.46254,-3.232388 l 11.08844,-8.31377 c 1.01711,-0.7669 2.46309,-0.5642 3.23239,0.46194 0.7669,1.01952 0.55939,2.46791 -0.46254,3.2324 l -11.08843,8.313768 c -0.41503,0.31156 -0.89983,0.46254 -1.38283,0.46254 z m 0,0"
       id="path8" /><path
       inkscape:connector-curvature="0"
       style="fill:#697c86;stroke-width:0.15398091"
       d="m 6.0176774,82.770522 c -3.83449,0 -6.92913996,3.09465 -6.92913996,6.92914 0,3.83388 3.09464996,6.92914 6.92913996,6.92914 3.83449,0 6.9291396,-3.09526 6.9291396,-6.92914 0,-3.83449 -3.0946496,-6.92914 -6.9291396,-6.92914 z m 0,0"
       id="path10" /><path
       inkscape:connector-curvature="0"
       style="fill:#c6e2e7;stroke-width:0.15398091"
       d="m 24.495388,92.009372 c -3.83449,0 -6.92914,3.09466 -6.92914,6.92914 0,3.833888 3.09465,6.929148 6.92914,6.929148 3.83449,0 6.92914,-3.09526 6.92914,-6.929148 0,-3.83448 -3.09465,-6.92914 -6.92914,-6.92914 z m 0,0"
       id="path12" /><path
       inkscape:connector-curvature="0"
       style="fill:#fdbf00;stroke-width:0.15398091"
       d="m 42.973098,73.531664 c -3.83449,0 -6.92914,3.09466 -6.92914,6.929138 0,3.83389 3.09465,6.92914 6.92914,6.92914 3.83449,0 6.92914,-3.09525 6.92914,-6.92914 0,-3.834478 -3.09465,-6.929138 -6.92914,-6.929138 z m 0,0"
       id="path14" /><path
       inkscape:connector-curvature="0"
       style="fill:#e63950;stroke-width:0.15398091"
       d="m 61.450808,59.673384 c -3.83448,0 -6.92914,3.09466 -6.92914,6.92914 0,3.83388 3.09466,6.92914 6.92914,6.92914 3.83449,0 6.92914,-3.09526 6.92914,-6.92914 0,-3.83448 -3.09465,-6.92914 -6.92914,-6.92914 z m 0,0"
       id="path16" /><path
       inkscape:connector-curvature="0"
       style="fill:#e63950;stroke-width:0.15398091"
       d="M 68.379948,85.080232 V 135.18538 H 54.521668 V 85.080232 c 0,-1.2938 1.01591,-2.30971 2.30971,-2.30971 h 9.23886 c 1.2938,0 2.30971,1.01591 2.30971,2.30971 z m 0,0"
       id="path18" /><path
       inkscape:connector-curvature="0"
       style="fill:#fdbf00;stroke-width:0.15398091"
       d="M 49.902238,98.938512 V 135.18538 H 36.043958 V 98.938512 c 0,-1.2938 1.01591,-2.30971 2.30971,-2.30971 h 9.23886 c 1.2938,0 2.30971,1.01591 2.30971,2.30971 z m 0,0"
       id="path20" /><path
       inkscape:connector-curvature="0"
       style="fill:#c6e2e7;stroke-width:0.15398091"
       d="m 31.424528,117.41622 v 17.76916 h -13.85828 v -17.76916 c 0,-1.2938 1.01591,-2.30971 2.30971,-2.30971 h 9.23886 c 1.2938,0 2.30971,1.01591 2.30971,2.30971 z m 0,0"
       id="path22" /><path
       inkscape:connector-curvature="0"
       style="fill:#697c86;stroke-width:0.15398091"
       d="m 12.946817,108.17737 v 27.00801 H -0.91146256 v -27.00801 c 0,-1.2938 1.01591,-2.30971 2.30970996,-2.30971 h 9.2388596 c 1.2938,0 2.30971,1.01591 2.30971,2.30971 z m 0,0"
       id="path24" /><path
       inkscape:connector-curvature="0"
       style="fill:#cc2e43;stroke-width:0.15398091"
       d="m 61.450808,73.531664 v -13.85828 c 3.83449,0 6.92914,3.09466 6.92914,6.92914 0,3.83388 -3.09465,6.92914 -6.92914,6.92914 z m 0,0"
       id="path26" /><path
       inkscape:connector-curvature="0"
       style="fill:#cc2e43;stroke-width:0.15398091"
       d="m 68.379948,85.080232 v 50.105148 h -6.92914 V 82.770522 h 4.61943 c 1.2938,0 2.30971,1.01591 2.30971,2.30971 z m 0,0"
       id="path28" /><path
       inkscape:connector-curvature="0"
       style="fill:#ff9f00;stroke-width:0.15398091"
       d="M 42.973098,87.389942 V 73.531664 c 3.83449,0 6.92914,3.09466 6.92914,6.929138 0,3.83389 -3.09465,6.92914 -6.92914,6.92914 z m 0,0"
       id="path30" /><path
       inkscape:connector-curvature="0"
       style="fill:#ff9f00;stroke-width:0.15398091"
       d="m 49.902238,98.938512 v 36.246868 h -6.92914 V 96.628802 h 4.61943 c 1.2938,0 2.30971,1.01591 2.30971,2.30971 z m 0,0"
       id="path32" /><path
       inkscape:connector-curvature="0"
       style="fill:#a8d3d8;stroke-width:0.15398091"
       d="M 24.495388,105.86766 V 92.009372 c 3.83449,0 6.92914,3.09466 6.92914,6.92914 0,3.833888 -3.09465,6.929148 -6.92914,6.929148 z m 0,0"
       id="path34" /><path
       inkscape:connector-curvature="0"
       style="fill:#a8d3d8;stroke-width:0.15398091"
       d="m 31.424528,117.41622 v 17.76916 h -6.92914 v -20.07887 h 4.61943 c 1.2938,0 2.30971,1.01591 2.30971,2.30971 z m 0,0"
       id="path36" /><path
       inkscape:connector-curvature="0"
       style="fill:#596c76;stroke-width:0.15398091"
       d="m 6.0176774,96.628802 v -13.85828 c 3.83449,0 6.9291396,3.09465 6.9291396,6.92914 0,3.83388 -3.0946496,6.92914 -6.9291396,6.92914 z m 0,0"
       id="path38" /><path
       inkscape:connector-curvature="0"
       style="fill:#596c76;stroke-width:0.15398091"
       d="m 12.946817,108.17737 v 27.00801 H 6.0176774 v -29.31772 h 4.6194296 c 1.2938,0 2.30971,1.01591 2.30971,2.30971 z m 0,0"
       id="path40" /><path
       inkscape:connector-curvature="0"
       style="fill:#465a61;stroke-width:0.15398091"
       d="m 73.153358,136.2019 c 0,1.2932 -1.01591,2.30971 -2.30971,2.30971 H -3.3751626 c -1.2938,0 -2.30971,-1.01651 -2.30971,-2.30971 0,-1.2938 1.01591,-2.30972 2.30971,-2.30972 H 70.843648 c 1.2938,0 2.30971,1.01592 2.30971,2.30972 z m 0,0"
       id="path42" /><path
       inkscape:connector-curvature="0"
       style="fill:#3b4a51;stroke-width:0.15398091"
       d="m 73.153358,136.2019 c 0,1.2932 -1.01591,2.30971 -2.30971,2.30971 h -37.10941 v -4.61943 h 37.10941 c 1.2938,0 2.30971,1.01592 2.30971,2.30972 z m 0,0"
       id="path44" /></g></g></svg>